<svg width="50" height="50" viewBox="0 0 50 50" fill="none" xmlns="http://www.w3.org/2000/svg">
<path d="M17.1875 29.1667V36.1105C17.0903 37.6742 16.3787 39.136 15.2078 40.1769C14.0369 41.2178 12.5018 41.7534 10.9375 41.6667H1.5625" stroke="#0D2F81" stroke-width="1.5" stroke-linecap="round" stroke-linejoin="round"/>
<path d="M1.5625 36.9792V44.7917" stroke="#0D2F81" stroke-width="1.5" stroke-linecap="round" stroke-linejoin="round"/>
<path d="M31.25 22.9167H3.125C2.7106 22.9167 2.31317 22.7521 2.02015 22.4591C1.72712 22.1661 1.5625 21.7686 1.5625 21.3542V13.5417C1.5625 11.0553 2.55022 8.67078 4.30837 6.91262C6.06653 5.15447 8.4511 4.16675 10.9375 4.16675H45.3125C46.1413 4.16675 46.9362 4.49599 47.5222 5.08204C48.1083 5.66809 48.4375 6.46295 48.4375 7.29175V9.948C48.4376 10.5526 48.2622 11.1443 47.9328 11.6513C47.6033 12.1583 47.1338 12.5588 46.5812 12.8042L34.375 18.2313V19.7917C34.375 20.6205 34.0458 21.4154 33.4597 22.0015C32.8737 22.5875 32.0788 22.9167 31.25 22.9167Z" stroke="#0D2F81" stroke-width="1.5" stroke-linecap="round" stroke-linejoin="round"/>
<path d="M42.1875 14.7583V26.0416C42.1875 26.8704 41.8583 27.6653 41.2722 28.2513C40.6862 28.8374 39.8913 29.1666 39.0625 29.1666H10.9375C9.2799 29.1666 7.69019 28.5082 6.51808 27.3361C5.34598 26.1639 4.6875 24.5742 4.6875 22.9166" stroke="#0D2F81" stroke-width="1.5" stroke-linecap="round" stroke-linejoin="round"/>
<path d="M48.4375 18.2292V24.4792" stroke="#0D2F81" stroke-width="1.5" stroke-linecap="round" stroke-linejoin="round"/>
</svg>
