<svg width="50" height="50" viewBox="0 0 50 50" fill="none" xmlns="http://www.w3.org/2000/svg">
<path d="M45.3125 17.1875C45.3125 16.3587 44.9833 15.5638 44.3972 14.9778C43.8112 14.3917 43.0163 14.0625 42.1875 14.0625H21.875L18.125 9.0625C17.8339 8.67439 17.4565 8.35938 17.0225 8.14242C16.5886 7.92545 16.1101 7.8125 15.625 7.8125H7.8125C6.9837 7.8125 6.18884 8.14174 5.60279 8.72779C5.01674 9.31384 4.6875 10.1087 4.6875 10.9375V39.0625C4.6875 39.8913 5.01674 40.6862 5.60279 41.2722C6.18884 41.8583 6.9837 42.1875 7.8125 42.1875H42.1875C43.0163 42.1875 43.8112 41.8583 44.3972 41.2722C44.9833 40.6862 45.3125 39.8913 45.3125 39.0625V17.1875Z" stroke="#0D2F81" stroke-width="1.5" stroke-linecap="round" stroke-linejoin="round"/>
</svg>
