<svg width="50" height="50" viewBox="0 0 50 50" fill="none" xmlns="http://www.w3.org/2000/svg">
<path d="M36.8104 17.1875H13.1896C12.5339 17.1876 11.8948 16.9814 11.3627 16.5982C10.8307 16.2149 10.4326 15.674 10.225 15.0521L7.8125 7.8125V1.5625H42.1875V7.8125L39.775 15.0521C39.5674 15.674 39.1693 16.2149 38.6373 16.5982C38.1052 16.9814 37.4661 17.1876 36.8104 17.1875V17.1875Z" stroke="#0D2F81" stroke-width="1.5" stroke-linecap="round" stroke-linejoin="round"/>
<path d="M37.5 17.1104V17.1874C37.5 22.3666 31.9042 26.5624 25 26.5624C18.0958 26.5624 12.5 22.3666 12.5 17.1874V17.1104" stroke="#0D2F81" stroke-width="1.5" stroke-linecap="round" stroke-linejoin="round"/>
<path d="M8.85419 10.9375H41.1459" stroke="#0D2F81" stroke-width="1.5" stroke-linecap="round" stroke-linejoin="round"/>
<path d="M14.0625 34.375C11.0687 40.3604 20.1042 42.4625 15.625 48.4375" stroke="#0D2F81" stroke-width="1.5" stroke-linecap="round" stroke-linejoin="round"/>
<path d="M24.0583 34.375C21.0646 40.3604 30.1 42.4625 25.6208 48.4375" stroke="#0D2F81" stroke-width="1.5" stroke-linecap="round" stroke-linejoin="round"/>
<path d="M34.0542 34.375C31.0625 40.3604 40.0959 42.4625 35.6167 48.4375" stroke="#0D2F81" stroke-width="1.5" stroke-linecap="round" stroke-linejoin="round"/>
<path d="M20.3125 10.9375V17.1875" stroke="#0D2F81" stroke-width="1.5" stroke-linecap="round" stroke-linejoin="round"/>
<path d="M29.6875 10.9375V17.1875" stroke="#0D2F81" stroke-width="1.5" stroke-linecap="round" stroke-linejoin="round"/>
</svg>
