<svg width="50" height="50" viewBox="0 0 50 50" fill="none" xmlns="http://www.w3.org/2000/svg">
<path d="M45.3125 1.55408H10.9375C9.21161 1.55408 7.8125 2.95319 7.8125 4.67908V39.0541C7.8125 40.78 9.21161 42.1791 10.9375 42.1791H45.3125C47.0384 42.1791 48.4375 40.78 48.4375 39.0541V4.67908C48.4375 2.95319 47.0384 1.55408 45.3125 1.55408Z" stroke="#0D2F81" stroke-width="1.5" stroke-linecap="round" stroke-linejoin="round"/>
<path d="M42.1875 48.4291H4.6875C3.8587 48.4291 3.06384 48.0998 2.47779 47.5138C1.89174 46.9277 1.5625 46.1329 1.5625 45.3041V7.80408" stroke="#0D2F81" stroke-width="1.5" stroke-linecap="round" stroke-linejoin="round"/>
<path d="M35.9375 29.6792V15.625C35.9367 15.3351 35.8555 15.0512 35.7027 14.8048C35.55 14.5585 35.3319 14.3594 35.0726 14.2298C34.8134 14.1001 34.5232 14.0451 34.2345 14.0707C33.9458 14.0964 33.6698 14.2017 33.4375 14.375L29.6875 17.1875" stroke="#0D2F81" stroke-width="1.5" stroke-linecap="round" stroke-linejoin="round"/>
<path d="M32.8125 29.6791H39.0625" stroke="#0D2F81" stroke-width="1.5" stroke-linecap="round" stroke-linejoin="round"/>
<path d="M14.0625 23.4291H26.5625" stroke="#0D2F81" stroke-width="1.5" stroke-linecap="round" stroke-linejoin="round"/>
<path d="M20.3125 17.1791V29.6791" stroke="#0D2F81" stroke-width="1.5" stroke-linecap="round" stroke-linejoin="round"/>
</svg>
