<svg width="50" height="50" viewBox="0 0 50 50" fill="none" xmlns="http://www.w3.org/2000/svg">
<path d="M15.625 34.3582V26.5457L10.9375 21.8582" stroke="#0D2F81" stroke-width="1.5" stroke-linecap="round" stroke-linejoin="round"/>
<path d="M15.625 26.5457L20.3125 21.8582" stroke="#0D2F81" stroke-width="1.5" stroke-linecap="round" stroke-linejoin="round"/>
<path d="M15.625 48.4207V45.2957" stroke="#0D2F81" stroke-width="1.5" stroke-linecap="round" stroke-linejoin="round"/>
<path d="M21.875 39.0457C21.875 40.7033 21.2165 42.293 20.0444 43.4651C18.8723 44.6372 17.2826 45.2957 15.625 45.2957C13.9674 45.2957 12.3777 44.6372 11.2056 43.4651C10.0335 42.293 9.375 40.7033 9.375 39.0457V34.3582H21.875V39.0457Z" stroke="#0D2F81" stroke-width="1.5" stroke-linecap="round" stroke-linejoin="round"/>
<path d="M15.625 7.79566C12.452 7.79453 9.37177 8.86638 6.88489 10.8371C4.398 12.8078 2.65057 15.5615 1.92651 18.6508C1.20245 21.7402 1.5443 24.9836 2.89654 27.854C4.24877 30.7245 6.53192 33.0534 9.37502 34.4623V34.3623H21.875V34.4623C24.7181 33.0534 27.0013 30.7245 28.3535 27.854C29.7057 24.9836 30.0476 21.7402 29.3235 18.6508C28.5995 15.5615 26.852 12.8078 24.3651 10.8371C21.8783 8.86638 18.7981 7.79453 15.625 7.79566V7.79566Z" stroke="#0D2F81" stroke-width="1.5" stroke-linecap="round" stroke-linejoin="round"/>
<path d="M37.7958 15.6082C37.9503 15.6082 38.1013 15.654 38.2298 15.7398C38.3583 15.8257 38.4584 15.9477 38.5176 16.0904C38.5767 16.2332 38.5922 16.3903 38.562 16.5418C38.5319 16.6934 38.4575 16.8326 38.3482 16.9418C38.2389 17.0511 38.0997 17.1255 37.9482 17.1556C37.7966 17.1858 37.6396 17.1703 37.4968 17.1112C37.354 17.0521 37.232 16.9519 37.1462 16.8234C37.0603 16.695 37.0145 16.5439 37.0145 16.3894C37.0145 16.1822 37.0968 15.9835 37.2433 15.837C37.3899 15.6905 37.5886 15.6082 37.7958 15.6082" stroke="#0D2F81" stroke-width="1.5" stroke-linecap="round" stroke-linejoin="round"/>
<path d="M30.9521 9.8373C32.9871 8.5078 35.3652 7.7998 37.7959 7.7998C40.2266 7.7998 42.6047 8.5078 44.6396 9.8373" stroke="#0D2F81" stroke-width="1.5" stroke-linecap="round" stroke-linejoin="round"/>
<path d="M48.4375 4.89988C45.31 2.7376 41.598 1.57935 37.7958 1.57935C33.9936 1.57935 30.2817 2.7376 27.1542 4.89988" stroke="#0D2F81" stroke-width="1.5" stroke-linecap="round" stroke-linejoin="round"/>
</svg>
