<svg width="50" height="50" viewBox="0 0 50 50" fill="none" xmlns="http://www.w3.org/2000/svg">
<path d="M34.375 45.3355C40.4156 45.3355 45.3125 40.4386 45.3125 34.398C45.3125 28.3573 40.4156 23.4604 34.375 23.4604C28.3344 23.4604 23.4375 28.3573 23.4375 34.398C23.4375 40.4386 28.3344 45.3355 34.375 45.3355Z" stroke="#0D2F81" stroke-width="1.5" stroke-linecap="round" stroke-linejoin="round"/>
<path d="M48.4375 48.4604L42.1084 42.1312" stroke="#0D2F81" stroke-width="1.5" stroke-linecap="round" stroke-linejoin="round"/>
<path d="M10.9375 21.8979H20.3125" stroke="#0D2F81" stroke-width="1.5" stroke-linecap="round" stroke-linejoin="round"/>
<path d="M10.9375 29.7104H15.625" stroke="#0D2F81" stroke-width="1.5" stroke-linecap="round" stroke-linejoin="round"/>
<path d="M10.9375 37.5229H15.625" stroke="#0D2F81" stroke-width="1.5" stroke-linecap="round" stroke-linejoin="round"/>
<path d="M20.3125 48.4604H4.6875C3.8587 48.4604 3.06384 48.1312 2.47779 47.5452C1.89174 46.9591 1.5625 46.1642 1.5625 45.3354V12.5229C1.5625 11.6941 1.89174 10.8993 2.47779 10.3132C3.06384 9.72719 3.8587 9.39795 4.6875 9.39795H12.5C12.5 7.32595 13.3231 5.33881 14.7882 3.87368C16.2534 2.40855 18.2405 1.58545 20.3125 1.58545C22.3845 1.58545 24.3716 2.40855 25.8368 3.87368C27.3019 5.33881 28.125 7.32595 28.125 9.39795H35.9375C36.7663 9.39795 37.5612 9.72719 38.1472 10.3132C38.7333 10.8993 39.0625 11.6941 39.0625 12.5229V17.2104" stroke="#0D2F81" stroke-width="1.5" stroke-linecap="round" stroke-linejoin="round"/>
<path d="M20.3125 7.83545C20.467 7.83545 20.6181 7.88127 20.7465 7.96711C20.875 8.05296 20.9751 8.17497 21.0343 8.31773C21.0934 8.46048 21.1089 8.61757 21.0787 8.76911C21.0486 8.92066 20.9742 9.05987 20.8649 9.16913C20.7557 9.27839 20.6165 9.35279 20.4649 9.38294C20.3134 9.41308 20.1563 9.39761 20.0135 9.33848C19.8708 9.27935 19.7488 9.17921 19.6629 9.05074C19.5771 8.92226 19.5312 8.77122 19.5312 8.6167C19.5312 8.4095 19.6136 8.21079 19.7601 8.06427C19.9066 7.91776 20.1053 7.83545 20.3125 7.83545" stroke="#0D2F81" stroke-width="1.5" stroke-linecap="round" stroke-linejoin="round"/>
</svg>
