<svg width="50" height="50" viewBox="0 0 50 50" fill="none" xmlns="http://www.w3.org/2000/svg">
<path d="M35.9375 48.4375C42.8411 48.4375 48.4375 42.8411 48.4375 35.9375C48.4375 29.0339 42.8411 23.4375 35.9375 23.4375C29.0339 23.4375 23.4375 29.0339 23.4375 35.9375C23.4375 42.8411 29.0339 48.4375 35.9375 48.4375Z" stroke="#0D2F81" stroke-width="1.5" stroke-linecap="round" stroke-linejoin="round"/>
<path d="M32.0312 33.5938C32.0312 32.8212 32.2603 32.0659 32.6896 31.4236C33.1188 30.7812 33.7289 30.2805 34.4426 29.9848C35.1564 29.6892 35.9418 29.6118 36.6996 29.7626C37.4573 29.9133 38.1533 30.2853 38.6996 30.8316C39.2459 31.3779 39.618 32.0739 39.7687 32.8317C39.9194 33.5894 39.8421 34.3748 39.5464 35.0886C39.2508 35.8024 38.7501 36.4125 38.1077 36.8417C37.4653 37.2709 36.7101 37.5 35.9375 37.5" stroke="#0D2F81" stroke-width="1.5" stroke-linecap="round" stroke-linejoin="round"/>
<path d="M35.9375 42.1875C36.092 42.1875 36.2431 42.2333 36.3715 42.3192C36.5 42.405 36.6001 42.527 36.6593 42.6698C36.7184 42.8125 36.7339 42.9696 36.7037 43.1212C36.6736 43.2727 36.5992 43.4119 36.4899 43.5212C36.3807 43.6304 36.2415 43.7048 36.0899 43.735C35.9384 43.7651 35.7813 43.7497 35.6385 43.6905C35.4958 43.6314 35.3738 43.5313 35.2879 43.4028C35.2021 43.2743 35.1562 43.1233 35.1562 42.9688C35.1562 42.7615 35.2386 42.5628 35.3851 42.4163C35.5316 42.2698 35.7303 42.1875 35.9375 42.1875Z" stroke="#0D2F81" stroke-width="1.5" stroke-linecap="round" stroke-linejoin="round"/>
<path d="M7.8125 14.0625H29.6875" stroke="#0D2F81" stroke-width="1.5" stroke-linecap="round" stroke-linejoin="round"/>
<path d="M7.8125 23.4375H20.3125" stroke="#0D2F81" stroke-width="1.5" stroke-linecap="round" stroke-linejoin="round"/>
<path d="M7.8125 32.8125H15.625" stroke="#0D2F81" stroke-width="1.5" stroke-linecap="round" stroke-linejoin="round"/>
<path d="M15.625 42.1875H4.6875C3.8587 42.1875 3.06384 41.8583 2.47779 41.2722C1.89174 40.6862 1.5625 39.8913 1.5625 39.0625V4.6875C1.5625 3.8587 1.89174 3.06384 2.47779 2.47779C3.06384 1.89174 3.8587 1.5625 4.6875 1.5625H26.8312C27.6595 1.56268 28.4538 1.89163 29.0396 2.47708L35.0229 8.46042C35.6084 9.04625 35.9373 9.84053 35.9375 10.6687V15.625" stroke="#0D2F81" stroke-width="1.5" stroke-linecap="round" stroke-linejoin="round"/>
</svg>
