<svg xmlns="http://www.w3.org/2000/svg" width="24" height="24" viewBox="0 0 24 24" fill="none">
<path d="M18 18.75H7.5C7.08579 18.75 6.75 19.0858 6.75 19.5V22.5C6.75 22.9142 7.08579 23.25 7.5 23.25H18C18.4142 23.25 18.75 22.9142 18.75 22.5V19.5C18.75 19.0858 18.4142 18.75 18 18.75Z" stroke="#0D2F81" stroke-width="1.5" stroke-linecap="round" stroke-linejoin="round"/>
<path d="M19.5 14.25H9C8.58579 14.25 8.25 14.5858 8.25 15V18C8.25 18.4142 8.58579 18.75 9 18.75H19.5C19.9142 18.75 20.25 18.4142 20.25 18V15C20.25 14.5858 19.9142 14.25 19.5 14.25Z" stroke="#0D2F81" stroke-width="1.5" stroke-linecap="round" stroke-linejoin="round"/>
<path d="M15 9.75H4.5C4.08579 9.75 3.75 10.0858 3.75 10.5V13.5C3.75 13.9142 4.08579 14.25 4.5 14.25H15C15.4142 14.25 15.75 13.9142 15.75 13.5V10.5C15.75 10.0858 15.4142 9.75 15 9.75Z" stroke="#0D2F81" stroke-width="1.5" stroke-linecap="round" stroke-linejoin="round"/>
<path d="M16.5 5.25H6C5.58579 5.25 5.25 5.58579 5.25 6V9C5.25 9.41421 5.58579 9.75 6 9.75H16.5C16.9142 9.75 17.25 9.41421 17.25 9V6C17.25 5.58579 16.9142 5.25 16.5 5.25Z" stroke="#0D2F81" stroke-width="1.5" stroke-linecap="round" stroke-linejoin="round"/>
<path d="M21.75 7.5V10.5" stroke="#0D2F81" stroke-width="1.5" stroke-linecap="round" stroke-linejoin="round"/>
<path d="M20.25 9H23.25" stroke="#0D2F81" stroke-width="1.5" stroke-linecap="round" stroke-linejoin="round"/>
<path d="M2.25 0.75V3.75" stroke="#0D2F81" stroke-width="1.5" stroke-linecap="round" stroke-linejoin="round"/>
<path d="M0.75 2.25H3.75" stroke="#0D2F81" stroke-width="1.5" stroke-linecap="round" stroke-linejoin="round"/>
</svg>