<svg xmlns="http://www.w3.org/2000/svg" width="20" height="20" viewBox="0 0 20 20" fill="none">
<g clip-path="url(#clip0)">
<path d="M3.75 9.0625C3.81181 9.0625 3.87223 9.08083 3.92362 9.11517C3.97501 9.1495 4.01506 9.19831 4.03871 9.25541C4.06236 9.31251 4.06855 9.37535 4.0565 9.43597C4.04444 9.49659 4.01467 9.55227 3.97097 9.59597C3.92727 9.63968 3.87158 9.66944 3.81097 9.6815C3.75035 9.69355 3.68751 9.68736 3.63041 9.66371C3.57331 9.64006 3.5245 9.60001 3.49017 9.54862C3.45583 9.49723 3.4375 9.43681 3.4375 9.375C3.4375 9.29212 3.47042 9.21263 3.52903 9.15403C3.58763 9.09542 3.66712 9.0625 3.75 9.0625Z" stroke="#0D2F81" stroke-width="1.5" stroke-linecap="round" stroke-linejoin="round"/>
<path d="M16.25 15.3125C16.3118 15.3125 16.3722 15.3308 16.4236 15.3652C16.475 15.3995 16.5151 15.4483 16.5387 15.5054C16.5624 15.5625 16.5686 15.6253 16.5565 15.686C16.5444 15.7466 16.5147 15.8023 16.471 15.846C16.4273 15.8897 16.3716 15.9194 16.311 15.9315C16.2503 15.9436 16.1875 15.9374 16.1304 15.9137C16.0733 15.8901 16.0245 15.85 15.9902 15.7986C15.9558 15.7472 15.9375 15.6868 15.9375 15.625C15.9375 15.5421 15.9704 15.4626 16.029 15.404C16.0876 15.3454 16.1671 15.3125 16.25 15.3125Z" stroke="#0D2F81" stroke-width="1.5" stroke-linecap="round" stroke-linejoin="round"/>
<path d="M18.125 6.25H1.875C1.18464 6.25 0.625 6.80964 0.625 7.5V17.5C0.625 18.1904 1.18464 18.75 1.875 18.75H18.125C18.8154 18.75 19.375 18.1904 19.375 17.5V7.5C19.375 6.80964 18.8154 6.25 18.125 6.25Z" stroke="#0D2F81" stroke-width="1.5" stroke-linecap="round" stroke-linejoin="round"/>
<path d="M10 15C11.3807 15 12.5 13.8807 12.5 12.5C12.5 11.1193 11.3807 10 10 10C8.61929 10 7.5 11.1193 7.5 12.5C7.5 13.8807 8.61929 15 10 15Z" stroke="#0D2F81" stroke-width="1.5" stroke-linecap="round" stroke-linejoin="round"/>
<path d="M1.875 3.75H18.125" stroke="#0D2F81" stroke-width="1.5" stroke-linecap="round" stroke-linejoin="round"/>
<path d="M4.375 1.25H15.625" stroke="#0D2F81" stroke-width="1.5" stroke-linecap="round" stroke-linejoin="round"/>
</g>
<defs>
<clipPath id="clip0">
<rect width="20" height="20" fill="white"/>
</clipPath>
</defs>
</svg>