<svg xmlns="http://www.w3.org/2000/svg" width="250" height="250" viewBox="0 0 250 250" fill="none">
<g opacity="0.1">
<circle cx="2.19298" cy="2.19298" r="2.19298" fill="#0D2F81"/>
<ellipse cx="2.19298" cy="37.2807" rx="2.19298" ry="2.19298" fill="#0D2F81"/>
<ellipse cx="2.19298" cy="72.3684" rx="2.19298" ry="2.19299" fill="#0D2F81"/>
<ellipse cx="2.19298" cy="107.456" rx="2.19298" ry="2.19298" fill="#0D2F81"/>
<ellipse cx="2.19298" cy="142.544" rx="2.19298" ry="2.19299" fill="#0D2F81"/>
<ellipse cx="2.19298" cy="177.632" rx="2.19298" ry="2.19298" fill="#0D2F81"/>
<ellipse cx="2.19298" cy="212.719" rx="2.19298" ry="2.19298" fill="#0D2F81"/>
<ellipse cx="2.19298" cy="247.807" rx="2.19298" ry="2.19298" fill="#0D2F81"/>
<ellipse cx="37.2806" cy="2.19298" rx="2.19298" ry="2.19298" fill="#0D2F81"/>
<circle cx="37.2806" cy="37.2807" r="2.19298" fill="#0D2F81"/>
<ellipse cx="37.2806" cy="72.3684" rx="2.19298" ry="2.19299" fill="#0D2F81"/>
<ellipse cx="37.2806" cy="107.456" rx="2.19298" ry="2.19298" fill="#0D2F81"/>
<ellipse cx="37.2806" cy="142.544" rx="2.19298" ry="2.19299" fill="#0D2F81"/>
<ellipse cx="37.2806" cy="177.632" rx="2.19298" ry="2.19298" fill="#0D2F81"/>
<ellipse cx="37.2806" cy="212.719" rx="2.19298" ry="2.19298" fill="#0D2F81"/>
<ellipse cx="37.2806" cy="247.807" rx="2.19298" ry="2.19298" fill="#0D2F81"/>
<ellipse cx="72.3683" cy="2.19298" rx="2.19299" ry="2.19298" fill="#0D2F81"/>
<ellipse cx="72.3683" cy="37.2807" rx="2.19299" ry="2.19298" fill="#0D2F81"/>
<circle cx="72.3683" cy="72.3684" r="2.19299" fill="#0D2F81"/>
<ellipse cx="72.3683" cy="107.456" rx="2.19299" ry="2.19298" fill="#0D2F81"/>
<circle cx="72.3683" cy="142.544" r="2.19299" fill="#0D2F81"/>
<ellipse cx="72.3683" cy="177.632" rx="2.19299" ry="2.19298" fill="#0D2F81"/>
<ellipse cx="72.3683" cy="212.719" rx="2.19299" ry="2.19298" fill="#0D2F81"/>
<ellipse cx="72.3683" cy="247.807" rx="2.19299" ry="2.19298" fill="#0D2F81"/>
<ellipse cx="107.456" cy="2.19298" rx="2.19298" ry="2.19298" fill="#0D2F81"/>
<ellipse cx="107.456" cy="37.2807" rx="2.19298" ry="2.19298" fill="#0D2F81"/>
<ellipse cx="107.456" cy="72.3684" rx="2.19298" ry="2.19299" fill="#0D2F81"/>
<circle cx="107.456" cy="107.456" r="2.19298" fill="#0D2F81"/>
<ellipse cx="107.456" cy="142.544" rx="2.19298" ry="2.19299" fill="#0D2F81"/>
<ellipse cx="107.456" cy="177.632" rx="2.19298" ry="2.19298" fill="#0D2F81"/>
<ellipse cx="107.456" cy="212.719" rx="2.19298" ry="2.19298" fill="#0D2F81"/>
<ellipse cx="107.456" cy="247.807" rx="2.19298" ry="2.19298" fill="#0D2F81"/>
<ellipse cx="142.544" cy="2.19298" rx="2.19299" ry="2.19298" fill="#0D2F81"/>
<ellipse cx="142.544" cy="37.2807" rx="2.19299" ry="2.19298" fill="#0D2F81"/>
<circle cx="142.544" cy="72.3684" r="2.19299" fill="#0D2F81"/>
<ellipse cx="142.544" cy="107.456" rx="2.19299" ry="2.19298" fill="#0D2F81"/>
<circle cx="142.544" cy="142.544" r="2.19299" fill="#0D2F81"/>
<ellipse cx="142.544" cy="177.632" rx="2.19299" ry="2.19298" fill="#0D2F81"/>
<ellipse cx="142.544" cy="212.719" rx="2.19299" ry="2.19298" fill="#0D2F81"/>
<ellipse cx="142.544" cy="247.807" rx="2.19299" ry="2.19298" fill="#0D2F81"/>
<ellipse cx="177.631" cy="2.19298" rx="2.19298" ry="2.19298" fill="#0D2F81"/>
<ellipse cx="177.631" cy="37.2807" rx="2.19298" ry="2.19298" fill="#0D2F81"/>
<ellipse cx="177.631" cy="72.3684" rx="2.19298" ry="2.19299" fill="#0D2F81"/>
<ellipse cx="177.631" cy="107.456" rx="2.19298" ry="2.19298" fill="#0D2F81"/>
<ellipse cx="177.631" cy="142.544" rx="2.19298" ry="2.19299" fill="#0D2F81"/>
<circle cx="177.631" cy="177.632" r="2.19298" fill="#0D2F81"/>
<circle cx="177.631" cy="212.719" r="2.19298" fill="#0D2F81"/>
<circle cx="177.631" cy="247.807" r="2.19298" fill="#0D2F81"/>
<ellipse cx="212.719" cy="2.19298" rx="2.19298" ry="2.19298" fill="#0D2F81"/>
<ellipse cx="212.719" cy="37.2807" rx="2.19298" ry="2.19298" fill="#0D2F81"/>
<ellipse cx="212.719" cy="72.3684" rx="2.19298" ry="2.19299" fill="#0D2F81"/>
<ellipse cx="212.719" cy="107.456" rx="2.19298" ry="2.19298" fill="#0D2F81"/>
<ellipse cx="212.719" cy="142.544" rx="2.19298" ry="2.19299" fill="#0D2F81"/>
<circle cx="212.719" cy="177.632" r="2.19298" fill="#0D2F81"/>
<circle cx="212.719" cy="212.719" r="2.19298" fill="#0D2F81"/>
<circle cx="212.719" cy="247.807" r="2.19298" fill="#0D2F81"/>
<ellipse cx="247.807" cy="2.19298" rx="2.193" ry="2.19298" fill="#0D2F81"/>
<ellipse cx="247.807" cy="37.2807" rx="2.193" ry="2.19298" fill="#0D2F81"/>
<ellipse cx="247.807" cy="72.3684" rx="2.193" ry="2.19299" fill="#0D2F81"/>
<ellipse cx="247.807" cy="107.456" rx="2.193" ry="2.19298" fill="#0D2F81"/>
<ellipse cx="247.807" cy="142.544" rx="2.193" ry="2.19299" fill="#0D2F81"/>
<ellipse cx="247.807" cy="177.632" rx="2.193" ry="2.19298" fill="#0D2F81"/>
<ellipse cx="247.807" cy="212.719" rx="2.193" ry="2.19298" fill="#0D2F81"/>
<ellipse cx="247.807" cy="247.807" rx="2.193" ry="2.19298" fill="#0D2F81"/>
</g>
</svg>