<svg width="14" height="12" viewBox="0 0 14 12" fill="none" xmlns="http://www.w3.org/2000/svg">
<path d="M13.5019 2.14969L11.8732 0.516352C11.8461 0.48919 11.814 0.46764 11.7785 0.452936C11.7431 0.438233 11.7051 0.430664 11.6667 0.430664C11.6284 0.430664 11.5904 0.438233 11.555 0.452936C11.5195 0.46764 11.4873 0.48919 11.4602 0.516352L4.58157 7.39969C4.55448 7.42685 4.52229 7.4484 4.48686 7.4631C4.45142 7.47781 4.41344 7.48537 4.37507 7.48537C4.33671 7.48537 4.29872 7.47781 4.26328 7.4631C4.22785 7.4484 4.19566 7.42685 4.16857 7.39969L2.5399 5.76635C2.51281 5.73919 2.48063 5.71764 2.44519 5.70294C2.40976 5.68823 2.37177 5.68066 2.3334 5.68066C2.29504 5.68066 2.25705 5.68823 2.22162 5.70294C2.18618 5.71764 2.154 5.73919 2.1269 5.76635L0.498238 7.39969C0.443559 7.45438 0.412842 7.52855 0.412842 7.60589C0.412842 7.68323 0.443559 7.75741 0.498238 7.8121L4.16857 11.483C4.19566 11.5102 4.22785 11.5317 4.26328 11.5464C4.29872 11.5611 4.33671 11.5687 4.37507 11.5687C4.41344 11.5687 4.45142 11.5611 4.48686 11.5464C4.52229 11.5317 4.55448 11.5102 4.58157 11.483L13.5019 2.55802C13.5553 2.5035 13.5853 2.4302 13.5853 2.35385C13.5853 2.27751 13.5553 2.20421 13.5019 2.14969Z" fill="#1F1F1F" fill-opacity="0.5"/>
</svg>
