<svg width="14" height="14" viewBox="0 0 14 14" fill="none" xmlns="http://www.w3.org/2000/svg">
<path d="M13.5019 3.14999L11.8732 1.51666C11.8461 1.4895 11.814 1.46795 11.7785 1.45324C11.7431 1.43854 11.7051 1.43097 11.6667 1.43097C11.6284 1.43097 11.5904 1.43854 11.555 1.45324C11.5195 1.46795 11.4873 1.4895 11.4602 1.51666L4.58157 8.39999C4.55448 8.42715 4.52229 8.4487 4.48686 8.46341C4.45142 8.47811 4.41344 8.48568 4.37507 8.48568C4.33671 8.48568 4.29872 8.47811 4.26328 8.46341C4.22785 8.4487 4.19566 8.42715 4.16857 8.39999L2.5399 6.76666C2.51281 6.7395 2.48063 6.71795 2.44519 6.70324C2.40976 6.68854 2.37177 6.68097 2.3334 6.68097C2.29504 6.68097 2.25705 6.68854 2.22162 6.70324C2.18618 6.71795 2.154 6.7395 2.1269 6.76666L0.498238 8.39999C0.443559 8.45469 0.412842 8.52886 0.412842 8.6062C0.412842 8.68354 0.443559 8.75771 0.498238 8.81241L4.16857 12.4833C4.19566 12.5105 4.22785 12.532 4.26328 12.5467C4.29872 12.5614 4.33671 12.569 4.37507 12.569C4.41344 12.569 4.45142 12.5614 4.48686 12.5467C4.52229 12.532 4.55448 12.5105 4.58157 12.4833L13.5019 3.55832C13.5553 3.5038 13.5853 3.4305 13.5853 3.35416C13.5853 3.27781 13.5553 3.20451 13.5019 3.14999Z" fill="#0D2F81"/>
</svg>
