<svg xmlns="http://www.w3.org/2000/svg" width="207" height="203" viewBox="0 0 207 203" fill="none">
<path d="M72.1918 141.457C79.7386 141.457 85.1619 137.423 85.1783 131.999C85.1619 127.817 81.9439 124.403 77.9254 123.734V123.505C81.4212 122.786 83.9205 119.764 83.9368 116.089C83.9205 110.911 78.9545 107.088 72.1918 107.088C65.4126 107.088 60.4467 110.911 60.4631 116.089C60.4467 119.748 62.9134 122.786 66.4744 123.505V123.734C62.3906 124.403 59.2053 127.817 59.2216 131.999C59.2053 137.423 64.6449 141.457 72.1918 141.457ZM72.1918 136.263C68.8267 136.263 66.5724 134.27 66.5724 131.444C66.5724 128.553 68.9411 126.462 72.1918 126.462C75.4261 126.462 77.8111 128.553 77.8111 131.444C77.8111 134.286 75.5405 136.263 72.1918 136.263ZM72.1918 121.316C69.3658 121.316 67.3565 119.47 67.3565 116.824C67.3565 114.21 69.3331 112.413 72.1918 112.413C75.0341 112.413 77.027 114.227 77.027 116.824C77.027 119.47 75.0014 121.316 72.1918 121.316ZM103.241 141.735C111.654 141.735 116.734 135.332 116.75 124.305C116.767 113.361 111.621 107.088 103.241 107.088C94.8446 107.088 89.748 113.344 89.7317 124.305C89.699 135.299 94.812 141.719 103.241 141.735ZM103.241 135.871C99.4022 135.871 96.9192 132.016 96.9355 124.305C96.9519 116.71 99.4185 112.887 103.241 112.887C107.047 112.887 109.53 116.71 109.53 124.305C109.546 132.016 107.063 135.871 103.241 135.871ZM134.911 141.735C143.324 141.735 148.404 135.332 148.42 124.305C148.436 113.361 143.291 107.088 134.911 107.088C126.515 107.088 121.418 113.344 121.402 124.305C121.369 135.299 126.482 141.719 134.911 141.735ZM134.911 135.871C131.072 135.871 128.589 132.016 128.605 124.305C128.622 116.71 131.088 112.887 134.911 112.887C138.717 112.887 141.2 116.71 141.2 124.305C141.216 132.016 138.733 135.871 134.911 135.871Z" fill="#1F1F1F"/>
<path d="M70.2784 177H77.642V175.489H72.0341V171.926H77.1932V170.42H72.0341V166.875H77.5739V165.364H70.2784V177ZM81.4815 165.364H79.7827V177H81.4815V165.364ZM83.767 177H85.4659V168.273H83.767V177ZM84.625 166.926C85.2102 166.926 85.6989 166.472 85.6989 165.915C85.6989 165.358 85.2102 164.898 84.625 164.898C84.0341 164.898 83.5511 165.358 83.5511 165.915C83.5511 166.472 84.0341 166.926 84.625 166.926ZM91.8253 168.273H90.0355V166.182H88.3366V168.273H87.0582V169.636H88.3366V174.79C88.331 176.375 89.5412 177.142 90.8821 177.114C91.4219 177.108 91.7855 177.006 91.9844 176.932L91.6776 175.528C91.5639 175.551 91.3537 175.602 91.081 175.602C90.5298 175.602 90.0355 175.42 90.0355 174.438V169.636H91.8253V168.273ZM97.3722 177.176C99.2756 177.176 100.622 176.239 101.009 174.818L99.4006 174.528C99.0938 175.352 98.3551 175.773 97.3892 175.773C95.9347 175.773 94.9574 174.83 94.9119 173.148H101.116V172.545C101.116 169.392 99.2301 168.159 97.2528 168.159C94.821 168.159 93.2188 170.011 93.2188 172.693C93.2188 175.403 94.7983 177.176 97.3722 177.176ZM94.9176 171.875C94.9858 170.636 95.8835 169.562 97.2642 169.562C98.5824 169.562 99.446 170.54 99.4517 171.875H94.9176ZM107.372 177H109.128V172.909H111.514C114.213 172.909 115.548 171.278 115.548 169.131C115.548 166.989 114.224 165.364 111.52 165.364H107.372V177ZM109.128 171.42V166.869H111.332C113.071 166.869 113.781 167.812 113.781 169.131C113.781 170.449 113.071 171.42 111.355 171.42H109.128ZM119.169 165.364H117.47V177H119.169V165.364ZM126.983 173.381C126.989 174.864 125.886 175.568 124.932 175.568C123.881 175.568 123.153 174.807 123.153 173.619V168.273H121.455V173.824C121.455 175.989 122.642 177.114 124.318 177.114C125.631 177.114 126.523 176.42 126.926 175.489H127.017V177H128.688V168.273H126.983V173.381ZM137.51 170.403C137.158 169.045 136.095 168.159 134.209 168.159C132.237 168.159 130.839 169.199 130.839 170.744C130.839 171.983 131.589 172.807 133.226 173.17L134.703 173.494C135.544 173.682 135.936 174.057 135.936 174.602C135.936 175.278 135.214 175.807 134.101 175.807C133.084 175.807 132.43 175.369 132.226 174.511L130.584 174.761C130.868 176.307 132.152 177.176 134.112 177.176C136.22 177.176 137.68 176.057 137.68 174.477C137.68 173.244 136.896 172.483 135.294 172.114L133.908 171.795C132.947 171.568 132.533 171.244 132.538 170.653C132.533 169.983 133.26 169.506 134.226 169.506C135.283 169.506 135.771 170.091 135.97 170.676L137.51 170.403Z" fill="#1F1F1F" fill-opacity="0.5"/>
<path d="M115.25 76.75V70H108.5" stroke="black" stroke-width="1.5" stroke-linecap="round" stroke-linejoin="round"/>
<path d="M115.25 70L107.311 77.939C107.172 78.0784 107.006 78.189 106.824 78.2644C106.642 78.3398 106.447 78.3787 106.25 78.3787C106.053 78.3787 105.858 78.3398 105.676 78.2644C105.494 78.189 105.328 78.0784 105.189 77.939L102.061 74.811C101.922 74.6716 101.756 74.561 101.574 74.4856C101.392 74.4102 101.197 74.3713 101 74.3713C100.803 74.3713 100.608 74.4102 100.426 74.4856C100.244 74.561 100.078 74.6716 99.939 74.811L92.75 82" stroke="#1F1F1F" stroke-width="1.5" stroke-linecap="round" stroke-linejoin="round"/>
<path d="M37.5926 168.407C34.6637 171.336 29.8909 171.354 27.1896 168.213C15.9811 155.184 8.291 139.449 4.92147 122.509C1.06295 103.111 3.04328 83.0043 10.612 64.7317C18.1808 46.459 30.9981 30.8412 47.443 19.853C63.8879 8.8649 83.2219 3 103 3C122.778 3 142.112 8.8649 158.557 19.853C175.002 30.8412 187.819 46.459 195.388 64.7317C202.957 83.0043 204.937 103.111 201.079 122.509C197.709 139.449 190.019 155.184 178.81 168.213C176.109 171.354 171.336 171.336 168.407 168.407C165.478 165.478 165.507 160.749 168.167 157.574C177.299 146.669 183.576 133.612 186.367 119.583C189.646 103.094 187.963 86.0036 181.53 70.4719C175.096 54.9402 164.202 41.665 150.223 32.3251C136.245 22.9852 119.811 18 103 18C86.1886 18 69.7547 22.9852 55.7765 32.3251C41.7984 41.665 30.9037 54.9402 24.4702 70.4719C18.0368 86.0036 16.3535 103.094 19.6333 119.583C22.4238 133.612 28.7006 146.669 37.8331 157.574C40.4926 160.749 40.5216 165.478 37.5926 168.407Z" fill="#24CE95"/>
<mask id="path-6-outside-1" maskUnits="userSpaceOnUse" x="0" y="0" width="206" height="174" fill="black">
<rect fill="white" width="206" height="174"/>
<path d="M37.5926 168.407C34.6637 171.336 29.8909 171.354 27.1897 168.213C18.1347 157.687 11.3525 145.368 7.30597 132.028C2.53221 116.291 1.71319 99.6201 4.92147 83.491C8.12975 67.3619 15.2663 52.2729 25.6989 39.5607C36.1316 26.8484 49.5384 16.9053 64.7316 10.6121C79.9249 4.31878 96.4358 1.86963 112.802 3.48153C129.168 5.09342 144.883 10.7166 158.557 19.853C172.231 28.9894 183.44 41.357 191.192 55.8603C197.763 68.1541 201.678 81.6608 202.719 95.5069C203.029 99.6374 199.642 103 195.5 103C191.358 103 188.034 99.6356 187.669 95.5096C186.663 84.1329 183.371 73.0489 177.963 62.9313C171.374 50.6035 161.846 40.091 150.223 32.3251C138.601 24.5591 125.242 19.7794 111.331 18.4093C97.4204 17.0392 83.3862 19.121 70.4719 24.4702C57.5576 29.8195 46.1619 38.2712 37.2941 49.0766C28.4263 59.882 22.3603 72.7076 19.6332 86.4173C16.9062 100.127 17.6024 114.298 21.6601 127.674C24.9903 138.652 30.5004 148.818 37.8332 157.574C40.4926 160.749 40.5216 165.478 37.5926 168.407Z"/>
</mask>
<path d="M37.5926 168.407C34.6637 171.336 29.8909 171.354 27.1897 168.213C18.1347 157.687 11.3525 145.368 7.30597 132.028C2.53221 116.291 1.71319 99.6201 4.92147 83.491C8.12975 67.3619 15.2663 52.2729 25.6989 39.5607C36.1316 26.8484 49.5384 16.9053 64.7316 10.6121C79.9249 4.31878 96.4358 1.86963 112.802 3.48153C129.168 5.09342 144.883 10.7166 158.557 19.853C172.231 28.9894 183.44 41.357 191.192 55.8603C197.763 68.1541 201.678 81.6608 202.719 95.5069C203.029 99.6374 199.642 103 195.5 103C191.358 103 188.034 99.6356 187.669 95.5096C186.663 84.1329 183.371 73.0489 177.963 62.9313C171.374 50.6035 161.846 40.091 150.223 32.3251C138.601 24.5591 125.242 19.7794 111.331 18.4093C97.4204 17.0392 83.3862 19.121 70.4719 24.4702C57.5576 29.8195 46.1619 38.2712 37.2941 49.0766C28.4263 59.882 22.3603 72.7076 19.6332 86.4173C16.9062 100.127 17.6024 114.298 21.6601 127.674C24.9903 138.652 30.5004 148.818 37.8332 157.574C40.4926 160.749 40.5216 165.478 37.5926 168.407Z" fill="#50D7E5"/>
<path d="M37.5926 168.407C34.6637 171.336 29.8909 171.354 27.1897 168.213C18.1347 157.687 11.3525 145.368 7.30597 132.028C2.53221 116.291 1.71319 99.6201 4.92147 83.491C8.12975 67.3619 15.2663 52.2729 25.6989 39.5607C36.1316 26.8484 49.5384 16.9053 64.7316 10.6121C79.9249 4.31878 96.4358 1.86963 112.802 3.48153C129.168 5.09342 144.883 10.7166 158.557 19.853C172.231 28.9894 183.44 41.357 191.192 55.8603C197.763 68.1541 201.678 81.6608 202.719 95.5069C203.029 99.6374 199.642 103 195.5 103C191.358 103 188.034 99.6356 187.669 95.5096C186.663 84.1329 183.371 73.0489 177.963 62.9313C171.374 50.6035 161.846 40.091 150.223 32.3251C138.601 24.5591 125.242 19.7794 111.331 18.4093C97.4204 17.0392 83.3862 19.121 70.4719 24.4702C57.5576 29.8195 46.1619 38.2712 37.2941 49.0766C28.4263 59.882 22.3603 72.7076 19.6332 86.4173C16.9062 100.127 17.6024 114.298 21.6601 127.674C24.9903 138.652 30.5004 148.818 37.8332 157.574C40.4926 160.749 40.5216 165.478 37.5926 168.407Z" stroke="white" stroke-width="6" mask="url(#path-6-outside-1)"/>
<mask id="path-7-outside-2" maskUnits="userSpaceOnUse" x="0" y="-1" width="169" height="175" fill="black">
<rect fill="white" y="-1" width="169" height="175"/>
<path d="M37.5926 168.407C34.6637 171.336 29.8907 171.354 27.1894 168.213C12.0109 150.57 3.40811 128.109 3.01414 104.681C2.57798 78.7457 12.2369 53.6552 29.9517 34.7069C47.6666 15.7586 72.0511 4.4352 97.9575 3.12721C121.358 1.94573 144.347 9.01948 162.971 22.9778C166.285 25.4619 166.589 30.2253 163.863 33.3444C161.138 36.4636 156.417 36.7523 153.07 34.3122C137.403 22.891 118.227 17.1229 98.7139 18.1081C76.6934 19.2199 55.9666 28.8448 40.909 44.9509C25.8513 61.0569 17.6413 82.3838 18.012 104.429C18.3405 123.965 25.3844 142.71 37.8328 157.574C40.4923 160.749 40.5216 165.478 37.5926 168.407Z"/>
</mask>
<path d="M37.5926 168.407C34.6637 171.336 29.8907 171.354 27.1894 168.213C12.0109 150.57 3.40811 128.109 3.01414 104.681C2.57798 78.7457 12.2369 53.6552 29.9517 34.7069C47.6666 15.7586 72.0511 4.4352 97.9575 3.12721C121.358 1.94573 144.347 9.01948 162.971 22.9778C166.285 25.4619 166.589 30.2253 163.863 33.3444C161.138 36.4636 156.417 36.7523 153.07 34.3122C137.403 22.891 118.227 17.1229 98.7139 18.1081C76.6934 19.2199 55.9666 28.8448 40.909 44.9509C25.8513 61.0569 17.6413 82.3838 18.012 104.429C18.3405 123.965 25.3844 142.71 37.8328 157.574C40.4923 160.749 40.5216 165.478 37.5926 168.407Z" fill="#FFB300"/>
<path d="M37.5926 168.407C34.6637 171.336 29.8907 171.354 27.1894 168.213C12.0109 150.57 3.40811 128.109 3.01414 104.681C2.57798 78.7457 12.2369 53.6552 29.9517 34.7069C47.6666 15.7586 72.0511 4.4352 97.9575 3.12721C121.358 1.94573 144.347 9.01948 162.971 22.9778C166.285 25.4619 166.589 30.2253 163.863 33.3444C161.138 36.4636 156.417 36.7523 153.07 34.3122C137.403 22.891 118.227 17.1229 98.7139 18.1081C76.6934 19.2199 55.9666 28.8448 40.909 44.9509C25.8513 61.0569 17.6413 82.3838 18.012 104.429C18.3405 123.965 25.3844 142.71 37.8328 157.574C40.4923 160.749 40.5216 165.478 37.5926 168.407Z" stroke="white" stroke-width="6" mask="url(#path-7-outside-2)"/>
<mask id="path-8-outside-3" maskUnits="userSpaceOnUse" x="0" y="8" width="75" height="166" fill="black">
<rect fill="white" y="8" width="75" height="166"/>
<path d="M37.5926 168.407C34.6637 171.336 29.8909 171.354 27.1896 168.213C17.8945 157.408 10.997 144.716 6.99323 130.977C2.28851 114.832 1.73131 97.761 5.37317 81.3436C9.01503 64.9261 16.7383 49.6922 27.8287 37.051C37.2667 26.2932 48.8838 17.7087 61.8762 11.8472C65.6519 10.1438 69.9697 12.1777 71.3854 16.0703C72.8011 19.963 70.7751 24.2363 67.0223 25.9895C56.3915 30.956 46.8783 38.0823 39.1044 46.9434C29.6776 57.6884 23.1128 70.6372 20.0172 84.592C16.9216 98.5469 17.3952 113.057 21.3942 126.78C24.6921 138.097 30.2996 148.578 37.8332 157.574C40.4926 160.749 40.5216 165.478 37.5926 168.407Z"/>
</mask>
<path d="M37.5926 168.407C34.6637 171.336 29.8909 171.354 27.1896 168.213C17.8945 157.408 10.997 144.716 6.99323 130.977C2.28851 114.832 1.73131 97.761 5.37317 81.3436C9.01503 64.9261 16.7383 49.6922 27.8287 37.051C37.2667 26.2932 48.8838 17.7087 61.8762 11.8472C65.6519 10.1438 69.9697 12.1777 71.3854 16.0703C72.8011 19.963 70.7751 24.2363 67.0223 25.9895C56.3915 30.956 46.8783 38.0823 39.1044 46.9434C29.6776 57.6884 23.1128 70.6372 20.0172 84.592C16.9216 98.5469 17.3952 113.057 21.3942 126.78C24.6921 138.097 30.2996 148.578 37.8332 157.574C40.4926 160.749 40.5216 165.478 37.5926 168.407Z" fill="#FA8557"/>
<path d="M37.5926 168.407C34.6637 171.336 29.8909 171.354 27.1896 168.213C17.8945 157.408 10.997 144.716 6.99323 130.977C2.28851 114.832 1.73131 97.761 5.37317 81.3436C9.01503 64.9261 16.7383 49.6922 27.8287 37.051C37.2667 26.2932 48.8838 17.7087 61.8762 11.8472C65.6519 10.1438 69.9697 12.1777 71.3854 16.0703C72.8011 19.963 70.7751 24.2363 67.0223 25.9895C56.3915 30.956 46.8783 38.0823 39.1044 46.9434C29.6776 57.6884 23.1128 70.6372 20.0172 84.592C16.9216 98.5469 17.3952 113.057 21.3942 126.78C24.6921 138.097 30.2996 148.578 37.8332 157.574C40.4926 160.749 40.5216 165.478 37.5926 168.407Z" stroke="white" stroke-width="6" mask="url(#path-8-outside-3)"/>
<mask id="path-9-outside-4" maskUnits="userSpaceOnUse" x="0" y="64" width="43" height="110" fill="black">
<rect fill="white" y="64" width="43" height="110"/>
<path d="M37.5926 168.407C34.6637 171.336 29.8909 171.354 27.1896 168.213C16.0464 155.26 8.37972 139.631 4.9799 122.8C1.58007 105.97 2.57899 88.5907 7.82019 72.3273C9.09072 68.3848 13.496 66.5481 17.3322 68.1105C21.1684 69.6728 22.9774 74.0424 21.7592 78.0013C17.6008 91.515 16.8677 105.894 19.6829 119.83C22.4981 133.767 28.7552 146.734 37.8331 157.574C40.4926 160.749 40.5216 165.478 37.5926 168.407Z"/>
</mask>
<path d="M37.5926 168.407C34.6637 171.336 29.8909 171.354 27.1896 168.213C16.0464 155.26 8.37972 139.631 4.9799 122.8C1.58007 105.97 2.57899 88.5907 7.82019 72.3273C9.09072 68.3848 13.496 66.5481 17.3322 68.1105C21.1684 69.6728 22.9774 74.0424 21.7592 78.0013C17.6008 91.515 16.8677 105.894 19.6829 119.83C22.4981 133.767 28.7552 146.734 37.8331 157.574C40.4926 160.749 40.5216 165.478 37.5926 168.407Z" fill="#F71E3F"/>
<path d="M37.5926 168.407C34.6637 171.336 29.8909 171.354 27.1896 168.213C16.0464 155.26 8.37972 139.631 4.9799 122.8C1.58007 105.97 2.57899 88.5907 7.82019 72.3273C9.09072 68.3848 13.496 66.5481 17.3322 68.1105C21.1684 69.6728 22.9774 74.0424 21.7592 78.0013C17.6008 91.515 16.8677 105.894 19.6829 119.83C22.4981 133.767 28.7552 146.734 37.8331 157.574C40.4926 160.749 40.5216 165.478 37.5926 168.407Z" stroke="white" stroke-width="6" mask="url(#path-9-outside-4)"/>
<circle cx="192" cy="127" r="12.5" fill="white" stroke="#24CE95" stroke-width="5"/>
</svg>