<svg xmlns="http://www.w3.org/2000/svg" width="200" height="200" viewBox="0 0 200 200" fill="none">
<path d="M51.6415 126.091H47.7267C47.6806 127.245 46.0556 129.212 43.6273 129.212V132.388C45.714 132.388 47.0712 131.612 47.4775 130.984H47.6529V145H51.6415V126.091ZM58.4624 145.24C59.6442 145.24 60.669 144.252 60.6783 143.024C60.669 141.815 59.6442 140.827 58.4624 140.827C57.2436 140.827 56.2372 141.815 56.2464 143.024C56.2372 144.252 57.2436 145.24 58.4624 145.24ZM85.7942 132.711C85.2679 128.344 81.9625 125.832 77.5861 125.832C72.5911 125.832 68.7779 129.359 68.7779 135.545C68.7779 141.279 72.0186 144.751 76.5428 145.203L76.1827 146.819C77.4661 146.976 78.057 147.336 78.0293 148.093C78.0016 148.878 77.0691 149.247 75.5179 149.247L75.5549 151.001C78.6479 151.001 80.4391 149.829 80.4299 147.991C80.4206 146.699 79.525 145.942 78.2601 145.748L78.3525 145.231C82.7381 144.908 85.388 141.852 85.7942 138.555L81.7502 138.537C81.3716 140.559 79.7836 141.722 77.6507 141.722C74.7793 141.722 72.8311 139.589 72.8311 135.545C72.8311 131.612 74.7516 129.369 77.6784 129.369C79.8667 129.369 81.4455 130.634 81.7502 132.711H85.7942ZM95.0502 145.277C98.5588 145.277 100.922 143.569 101.476 140.938L97.8386 140.697C97.4416 141.778 96.426 142.341 95.1149 142.341C93.1483 142.341 91.9018 141.039 91.9018 138.925V138.915H101.559V137.835C101.559 133.016 98.6419 130.634 94.8933 130.634C90.72 130.634 88.0147 133.597 88.0147 137.974C88.0147 142.47 90.6831 145.277 95.0502 145.277ZM91.9018 136.478C91.9849 134.862 93.2129 133.57 94.9579 133.57C96.666 133.57 97.8478 134.788 97.8571 136.478H91.9018ZM106.188 150.521C109.068 150.521 110.776 148.896 111.58 146.625L117.119 130.818H112.955L109.991 141.233H109.844L106.908 130.818H102.771L107.859 145.406L107.6 146.089C107.046 147.382 106.095 147.465 104.71 147.04L103.824 150.087C104.267 150.281 105.07 150.521 106.188 150.521ZM119.132 145H123.065V136.977C123.075 135.241 124.33 134.05 125.918 134.05C126.454 134.05 126.888 134.197 127.257 134.382L128.439 131.132C127.922 130.818 127.257 130.615 126.5 130.615C124.903 130.615 123.61 131.538 123.093 133.293H122.945V130.818H119.132V145ZM136.081 145.277C139.59 145.277 141.954 143.569 142.508 140.938L138.87 140.697C138.473 141.778 137.457 142.341 136.146 142.341C134.18 142.341 132.933 141.039 132.933 138.925V138.915H142.591V137.835C142.591 133.016 139.673 130.634 135.925 130.634C131.751 130.634 129.046 133.597 129.046 137.974C129.046 142.47 131.714 145.277 136.081 145.277ZM132.933 136.478C133.016 134.862 134.244 133.57 135.989 133.57C137.697 133.57 138.879 134.788 138.888 136.478H132.933ZM145.157 145H149.091V140.494L150.153 139.285L154.021 145H158.628L153.098 136.958L158.361 130.818H153.846L149.303 136.201H149.091V126.091H145.157V145Z" fill="#1F1F1F"/>
<path d="M63.7237 171H65.4794V165.926H71.2805V171H73.0419V159.364H71.2805V164.42H65.4794V159.364H63.7237V171ZM79.2237 171.176C81.1271 171.176 82.4737 170.239 82.8601 168.818L81.2521 168.528C80.9453 169.352 80.2067 169.773 79.2408 169.773C77.7862 169.773 76.8089 168.83 76.7635 167.148H82.968V166.545C82.968 163.392 81.0817 162.159 79.1044 162.159C76.6726 162.159 75.0703 164.011 75.0703 166.693C75.0703 169.403 76.6499 171.176 79.2237 171.176ZM76.7692 165.875C76.8374 164.636 77.7351 163.562 79.1158 163.562C80.4339 163.562 81.2976 164.54 81.3033 165.875H76.7692ZM88.12 171.17C89.7109 171.17 90.3359 170.199 90.6428 169.642H90.7848V171H92.4439V159.364H90.745V163.688H90.6428C90.3359 163.148 89.7564 162.159 88.1314 162.159C86.0234 162.159 84.4723 163.824 84.4723 166.653C84.4723 169.477 86.0007 171.17 88.12 171.17ZM88.495 169.722C86.978 169.722 86.1882 168.386 86.1882 166.636C86.1882 164.903 86.9609 163.602 88.495 163.602C89.978 163.602 90.7734 164.812 90.7734 166.636C90.7734 168.472 89.9609 169.722 88.495 169.722ZM98.63 171.176C100.533 171.176 101.88 170.239 102.266 168.818L100.658 168.528C100.352 169.352 99.6129 169.773 98.647 169.773C97.1925 169.773 96.2152 168.83 96.1697 167.148H102.374V166.545C102.374 163.392 100.488 162.159 98.5107 162.159C96.0788 162.159 94.4766 164.011 94.4766 166.693C94.4766 169.403 96.0561 171.176 98.63 171.176ZM96.1754 165.875C96.2436 164.636 97.1413 163.562 98.522 163.562C99.8402 163.562 100.704 164.54 100.71 165.875H96.1754ZM108.441 162.273H106.56V161.489C106.56 160.716 106.879 160.295 107.708 160.295C108.06 160.295 108.31 160.375 108.469 160.426L108.867 159.051C108.629 158.96 108.134 158.818 107.447 158.818C106.066 158.818 104.856 159.625 104.856 161.261V162.273H103.509V163.636H104.856V171H106.56V163.636H108.441V162.273ZM111.896 159.364H110.197V171H111.896V159.364ZM117.942 171.176C119.846 171.176 121.192 170.239 121.579 168.818L119.971 168.528C119.664 169.352 118.925 169.773 117.96 169.773C116.505 169.773 115.528 168.83 115.482 167.148H121.687V166.545C121.687 163.392 119.8 162.159 117.823 162.159C115.391 162.159 113.789 164.011 113.789 166.693C113.789 169.403 115.369 171.176 117.942 171.176ZM115.488 165.875C115.556 164.636 116.454 163.562 117.835 163.562C119.153 163.562 120.016 164.54 120.022 165.875H115.488ZM123.572 171H125.271V165.67C125.271 164.528 126.151 163.705 127.356 163.705C127.708 163.705 128.106 163.767 128.242 163.807V162.182C128.072 162.159 127.737 162.142 127.521 162.142C126.498 162.142 125.623 162.722 125.305 163.659H125.214V162.273H123.572V171ZM129.712 171H131.411V162.273H129.712V171ZM130.57 160.926C131.156 160.926 131.644 160.472 131.644 159.915C131.644 159.358 131.156 158.898 130.57 158.898C129.979 158.898 129.496 159.358 129.496 159.915C129.496 160.472 129.979 160.926 130.57 160.926Z" fill="#1F1F1F" fill-opacity="0.5"/>
<path d="M34.5926 165.407C31.6637 168.336 26.8909 168.354 24.1896 165.213C12.9811 152.184 5.291 136.449 1.92147 119.509C-1.93705 100.111 0.0432836 80.0043 7.61205 61.7317C15.1808 43.459 27.9981 27.8412 44.443 16.853C60.8879 5.8649 80.2219 -2.35852e-07 100 0C119.778 2.35852e-07 139.112 5.8649 155.557 16.853C172.002 27.8412 184.819 43.459 192.388 61.7317C199.957 80.0043 201.937 100.111 198.079 119.509C194.709 136.449 187.019 152.184 175.81 165.213C173.109 168.354 168.336 168.336 165.407 165.407C162.478 162.478 162.507 157.749 165.167 154.574C174.299 143.669 180.576 130.612 183.367 116.583C186.646 100.094 184.963 83.0036 178.53 67.4719C172.096 51.9402 161.202 38.665 147.223 29.3251C133.245 19.9852 116.811 15 100 15C83.1886 15 66.7547 19.9852 52.7765 29.3251C38.7984 38.665 27.9037 51.9402 21.4702 67.4719C15.0368 83.0036 13.3535 100.094 16.6333 116.583C19.4238 130.612 25.7006 143.669 34.8331 154.574C37.4926 157.749 37.5216 162.478 34.5926 165.407Z" fill="#24CE95"/>
<path d="M34.5926 165.407C31.6637 168.336 26.8909 168.354 24.1896 165.213C14.8945 154.408 7.99701 141.716 3.99323 127.977C-0.711495 111.832 -1.26869 94.761 2.37317 78.3436C6.01503 61.9261 13.7383 46.6922 24.8287 34.051C34.2667 23.2932 45.8838 14.7087 58.8762 8.84718C62.6519 7.14379 66.9697 9.17765 68.3854 13.0703C69.8011 16.963 67.7751 21.2363 64.0223 22.9895C53.3915 27.956 43.8783 35.0823 36.1044 43.9434C26.6776 54.6884 20.1128 67.6372 17.0172 81.592C13.9216 95.5469 14.3952 110.057 18.3942 123.78C21.6921 135.097 27.2996 145.578 34.8332 154.574C37.4926 157.749 37.5216 162.478 34.5926 165.407Z" fill="#FFB300"/>
<circle cx="55" cy="19" r="12.5" fill="white" stroke="#FFB300" stroke-width="5"/>
</svg>