<svg xmlns="http://www.w3.org/2000/svg" width="24" height="24" viewBox="0 0 24 24" fill="none">
<g clip-path="url(#clip0)">
<path d="M22.5 17.248V12.748H18" stroke="#1F1F1F" stroke-width="1.5" stroke-linecap="round" stroke-linejoin="round"/>
<path d="M22.5 12.748L17.45 17.8C17.1627 18.0871 16.8032 18.2913 16.4094 18.3907C16.0155 18.4902 15.6022 18.4813 15.213 18.365L9.5 16.837C9.11863 16.7352 8.7172 16.7355 8.33598 16.8378C7.95475 16.9401 7.60714 17.1409 7.328 17.42L1.5 23.252" stroke="#1F1F1F" stroke-width="1.5" stroke-linecap="round" stroke-linejoin="round"/>
<path d="M12 5.25201H9.96704C9.65547 5.25223 9.35369 5.36085 9.11345 5.55925C8.87321 5.75764 8.70949 6.03345 8.65036 6.33935C8.59124 6.64526 8.6404 6.96221 8.78941 7.23583C8.93842 7.50946 9.17799 7.72271 9.46704 7.83901L11.531 8.66401C11.8207 8.7799 12.061 8.99311 12.2105 9.26697C12.36 9.54083 12.4094 9.85823 12.3502 10.1646C12.291 10.4709 12.127 10.7471 11.8862 10.9455C11.6454 11.144 11.3431 11.2524 11.031 11.252H9.00004" stroke="#1F1F1F" stroke-width="1.5" stroke-linecap="round" stroke-linejoin="round"/>
<path d="M10.5 5.25201V4.50201" stroke="#1F1F1F" stroke-width="1.5" stroke-linecap="round" stroke-linejoin="round"/>
<path d="M10.5 12.002V11.252" stroke="#1F1F1F" stroke-width="1.5" stroke-linecap="round" stroke-linejoin="round"/>
<path d="M17.8519 9.73702C18.1177 8.42183 18.0257 7.05943 17.5857 5.79186C17.1457 4.52429 16.3737 3.39798 15.3501 2.53037C14.3266 1.66275 13.0891 1.0856 11.7666 0.859101C10.444 0.632598 9.08497 0.765035 7.83107 1.2426C6.57716 1.72017 5.47433 2.52538 4.63757 3.57428C3.8008 4.62317 3.26075 5.87734 3.07371 7.20601C2.88668 8.53469 3.05951 9.88921 3.57419 11.1283C4.08888 12.3675 4.92656 13.4458 5.99989 14.251" stroke="#1F1F1F" stroke-width="1.5" stroke-linecap="round" stroke-linejoin="round"/>
</g>
<defs>
<clipPath id="clip0">
<rect width="24" height="24" fill="white"/>
</clipPath>
</defs>
</svg>