<svg xmlns="http://www.w3.org/2000/svg" width="372" height="170" viewBox="0 0 372 170" fill="none">
<path d="M170 85C170 131.944 131.944 170 85 170C38.0558 170 0 131.944 0 85C0 38.0558 38.0558 0 85 0C131.944 0 170 38.0558 170 85ZM25.5 85C25.5 117.861 52.1391 144.5 85 144.5C117.861 144.5 144.5 117.861 144.5 85C144.5 52.1391 117.861 25.5 85 25.5C52.1391 25.5 25.5 52.1391 25.5 85Z" fill="#50D7E5"/>
<path d="M85 0C67.945 -2.03379e-07 51.2844 5.13054 37.1838 14.7247C23.0833 24.3189 12.195 37.933 5.93425 53.7973C-0.326479 69.6616 -1.67007 87.0425 2.07812 103.681C5.82631 120.319 14.4929 135.444 26.9514 147.092C39.4099 158.739 55.0841 166.369 71.9365 168.99C88.7889 171.611 106.04 169.102 121.448 161.789C136.855 154.476 149.706 142.697 158.331 127.983C166.955 113.27 170.954 96.302 169.808 79.2855L144.365 80.9999C145.168 92.9114 142.369 104.789 136.332 115.088C130.294 125.388 121.299 133.633 110.513 138.752C99.7281 143.872 87.6522 145.628 75.8556 143.793C64.0589 141.958 53.087 136.617 44.366 128.464C35.6451 120.311 29.5784 109.723 26.9547 98.0764C24.3309 86.4297 25.2715 74.2631 29.654 63.1581C34.0365 52.0531 41.6583 42.5232 51.5287 35.8073C61.3991 29.0914 73.0615 25.5 85 25.5V0Z" fill="#24CE95"/>
<path d="M85 0C73.8376 -1.3311e-07 62.7846 2.19859 52.4719 6.47024C42.1592 10.7419 32.7889 17.0029 24.8959 24.8959C17.0029 32.7889 10.7419 42.1592 6.47024 52.4719C2.19859 62.7846 -3.54812e-07 73.8376 0 85C3.54812e-07 96.1624 2.19859 107.215 6.47024 117.528C10.7419 127.841 17.0029 137.211 24.8959 145.104C32.7889 152.997 42.1592 159.258 52.4719 163.53C62.7846 167.801 73.8376 170 85 170V144.5C77.1864 144.5 69.4492 142.961 62.2303 139.971C55.0115 136.981 48.4522 132.598 42.9271 127.073C37.4021 121.548 33.0193 114.989 30.0292 107.77C27.039 100.551 25.5 92.8137 25.5 85C25.5 77.1863 27.039 69.4492 30.0292 62.2303C33.0193 55.0115 37.4021 48.4522 42.9271 42.9271C48.4522 37.4021 55.0115 33.0193 62.2303 30.0292C69.4492 27.039 77.1863 25.5 85 25.5V0Z" fill="#FA8557"/>
<rect x="210" y="47" width="15" height="15" fill="#50D7E5"/>
<path d="M235.861 59H237.442V55.2926H241.486V59H243.071V50.2727H241.486V53.9673H237.442V50.2727H235.861V59ZM244.79 59H250.501V57.6747H246.371V55.2926H250.173V53.9673H246.371V51.598H250.467V50.2727H244.79V59ZM255.037 59C257.696 59 259.273 57.3551 259.273 54.6278C259.273 51.9091 257.696 50.2727 255.097 50.2727H252.08V59H255.037ZM253.661 57.6321V51.6406H255.007C256.78 51.6406 257.705 52.6293 257.705 54.6278C257.705 56.6349 256.78 57.6321 254.96 57.6321H253.661ZM260.775 59H266.485V57.6747H262.356V55.2926H266.157V53.9673H262.356V51.598H266.451V50.2727H260.775V59ZM268.064 59H269.645V55.2926H273.271V53.9673H269.645V51.598H273.655V50.2727H268.064V59ZM278.954 57.9517C279.457 57.9517 279.887 57.5341 279.891 57.0142C279.887 56.5028 279.457 56.0852 278.954 56.0852C278.434 56.0852 278.012 56.5028 278.016 57.0142C278.012 57.5341 278.434 57.9517 278.954 57.9517ZM278.954 53.6222C279.457 53.6222 279.887 53.2045 279.891 52.6847C279.887 52.1733 279.457 51.7557 278.954 51.7557C278.434 51.7557 278.012 52.1733 278.016 52.6847C278.012 53.2045 278.434 53.6222 278.954 53.6222ZM287.784 50.2727H286.267C286.233 50.6562 285.526 51.6619 284.324 51.6619V52.9403C285.304 52.9403 285.956 52.5611 286.127 52.2926H286.199V59H287.784V50.2727ZM293.206 59.1193C295.089 59.1321 296.355 57.8366 296.351 56.1108C296.355 54.4616 295.179 53.2685 293.649 53.2685C292.712 53.2685 291.885 53.7244 291.467 54.4744H291.408C291.412 52.6122 292.085 51.4957 293.295 51.4957C294.045 51.4957 294.553 51.9347 294.714 52.625H296.27C296.082 51.1932 294.945 50.1278 293.295 50.1278C291.199 50.1278 289.874 51.875 289.874 54.8835C289.874 58.0838 291.531 59.1108 293.206 59.1193ZM293.197 57.8409C292.264 57.8409 291.582 57.0696 291.578 56.1577C291.587 55.2415 292.294 54.4744 293.219 54.4744C294.143 54.4744 294.821 55.2074 294.817 56.1449C294.821 57.0994 294.122 57.8409 293.197 57.8409ZM298.348 59.0938C298.851 59.0938 299.282 58.6761 299.286 58.1562C299.282 57.6449 298.851 57.2273 298.348 57.2273C297.828 57.2273 297.407 57.6449 297.411 58.1562C297.407 58.6761 297.828 59.0938 298.348 59.0938ZM303.607 59.1662C305.712 59.1705 306.969 57.5085 306.969 54.6449C306.969 51.7983 305.703 50.1534 303.607 50.1534C301.51 50.1534 300.249 51.794 300.245 54.6449C300.245 57.5043 301.502 59.1662 303.607 59.1662ZM303.607 57.8324C302.52 57.8324 301.838 56.7415 301.843 54.6449C301.847 52.5653 302.525 51.4702 303.607 51.4702C304.694 51.4702 305.371 52.5653 305.375 54.6449C305.375 56.7415 304.698 57.8324 303.607 57.8324ZM311.611 59.1662C313.716 59.1705 314.973 57.5085 314.973 54.6449C314.973 51.7983 313.707 50.1534 311.611 50.1534C309.514 50.1534 308.253 51.794 308.249 54.6449C308.249 57.5043 309.506 59.1662 311.611 59.1662ZM311.611 57.8324C310.524 57.8324 309.842 56.7415 309.847 54.6449C309.851 52.5653 310.528 51.4702 311.611 51.4702C312.697 51.4702 313.375 52.5653 313.379 54.6449C313.379 56.7415 312.702 57.8324 311.611 57.8324ZM319.615 59.1662C321.72 59.1705 322.977 57.5085 322.977 54.6449C322.977 51.7983 321.711 50.1534 319.615 50.1534C317.518 50.1534 316.257 51.794 316.252 54.6449C316.252 57.5043 317.51 59.1662 319.615 59.1662ZM319.615 57.8324C318.528 57.8324 317.846 56.7415 317.85 54.6449C317.855 52.5653 318.532 51.4702 319.615 51.4702C320.701 51.4702 321.379 52.5653 321.383 54.6449C321.383 56.7415 320.706 57.8324 319.615 57.8324Z" fill="#1F1F1F" fill-opacity="0.7"/>
<rect x="210" y="77" width="15" height="15" fill="#24CE95"/>
<path d="M241.707 83.0597H243.318C243.05 81.3466 241.567 80.1534 239.636 80.1534C237.352 80.1534 235.639 81.8324 235.639 84.6449C235.639 87.4062 237.276 89.1193 239.683 89.1193C241.844 89.1193 243.391 87.7301 243.391 85.4801V84.4318H239.849V85.6676H241.861C241.835 86.9119 241.004 87.7003 239.692 87.7003C238.23 87.7003 237.229 86.6051 237.229 84.6278C237.229 82.6634 238.247 81.5724 239.658 81.5724C240.71 81.5724 241.426 82.1349 241.707 83.0597ZM244.919 89H250.63V87.6747H246.5V85.2926H250.301V83.9673H246.5V81.598H250.596V80.2727H244.919V89ZM252.208 89H253.789V85.804H255.4L257.113 89H258.877L256.99 85.5398C258.017 85.1264 258.558 84.2486 258.558 83.0639C258.558 81.3977 257.484 80.2727 255.481 80.2727H252.208V89ZM253.789 84.4915V81.5938H255.238C256.419 81.5938 256.947 82.1349 256.947 83.0639C256.947 83.9929 256.419 84.4915 255.247 84.4915H253.789ZM267.483 83.2173C267.215 81.2784 265.723 80.1534 263.789 80.1534C261.509 80.1534 259.792 81.8153 259.792 84.6364C259.792 87.2571 261.262 88.8807 263.32 89.0938L263.158 89.848C263.763 89.9119 264.036 90.0568 264.027 90.419C264.019 90.794 263.605 90.9602 262.953 90.9602L262.971 91.7188C264.317 91.7188 265.071 91.1861 265.067 90.3807C265.067 89.7585 264.641 89.4347 264.108 89.3537L264.155 89.1065C266.026 88.9574 267.253 87.679 267.483 86.1108L265.89 86.1023C265.689 87.125 264.854 87.7003 263.81 87.7003C262.395 87.7003 261.381 86.6392 261.381 84.6364C261.381 82.6676 262.387 81.5724 263.814 81.5724C264.875 81.5724 265.706 82.1733 265.89 83.2173H267.483ZM268.931 89H274.641V87.6747H270.512V85.2926H274.313V83.9673H270.512V81.598H274.607V80.2727H268.931V89ZM276.22 89H277.801V86.4006L278.768 85.2585L281.372 89H283.273L279.868 84.1889L283.243 80.2727H281.312L277.908 84.2827H277.801V80.2727H276.22V89ZM284.341 89H289.766V87.6747H285.922V80.2727H284.341V89ZM291.138 89H296.848V87.6747H292.719V85.2926H296.52V83.9673H292.719V81.598H296.814V80.2727H291.138V89ZM303.17 82.6719H304.691C304.662 81.1974 303.404 80.1534 301.547 80.1534C299.714 80.1534 298.338 81.1847 298.342 82.7273C298.342 83.9801 299.233 84.7003 300.669 85.071L301.662 85.3267C302.603 85.5653 303.225 85.8594 303.23 86.5369C303.225 87.2827 302.518 87.7812 301.487 87.7812C300.498 87.7812 299.731 87.3381 299.667 86.4219H298.112C298.172 88.0156 299.262 88.9659 301.018 89.1108L300.865 89.8224C301.47 89.8864 301.743 90.0312 301.734 90.3935C301.725 90.7685 301.312 90.9347 300.66 90.9347L300.677 91.6932C302.024 91.6932 302.778 91.1605 302.774 90.3551C302.774 89.733 302.348 89.4091 301.815 89.3281L301.853 89.1236C303.728 89.0085 304.806 87.9986 304.811 86.5497C304.806 85.0369 303.558 84.3466 302.245 84.0355L301.427 83.831C300.711 83.6605 299.936 83.358 299.944 82.6293C299.949 81.973 300.537 81.4915 301.525 81.4915C302.467 81.4915 303.089 81.9304 303.17 82.6719ZM306.22 89H311.93V87.6747H307.801V85.2926H311.602V83.9673H307.801V81.598H311.896V80.2727H306.22V89ZM320.681 80.2727H319.109V86.2216H319.032L314.924 80.2727H313.509V89H315.09V83.0554H315.163L319.275 89H320.681V80.2727ZM326.262 87.9517C326.765 87.9517 327.196 87.5341 327.2 87.0142C327.196 86.5028 326.765 86.0852 326.262 86.0852C325.743 86.0852 325.321 86.5028 325.325 87.0142C325.321 87.5341 325.743 87.9517 326.262 87.9517ZM326.262 83.6222C326.765 83.6222 327.196 83.2045 327.2 82.6847C327.196 82.1733 326.765 81.7557 326.262 81.7557C325.743 81.7557 325.321 82.1733 325.325 82.6847C325.321 83.2045 325.743 83.6222 326.262 83.6222ZM335.093 80.2727H333.576C333.542 80.6562 332.835 81.6619 331.633 81.6619V82.9403C332.613 82.9403 333.265 82.5611 333.435 82.2926H333.508V89H335.093V80.2727ZM337.319 89H343.301V87.679H339.5V87.6193L341.005 86.0895C342.701 84.4616 343.169 83.669 343.169 82.6847C343.169 81.223 341.98 80.1534 340.225 80.1534C338.495 80.1534 337.267 81.2273 337.267 82.8849H338.772C338.772 81.9943 339.334 81.4361 340.203 81.4361C341.034 81.4361 341.652 81.9432 341.652 82.7656C341.652 83.4943 341.209 84.0142 340.348 84.8878L337.319 87.858V89ZM345.739 89.0938C346.242 89.0938 346.672 88.6761 346.676 88.1562C346.672 87.6449 346.242 87.2273 345.739 87.2273C345.219 87.2273 344.797 87.6449 344.801 88.1562C344.797 88.6761 345.219 89.0938 345.739 89.0938ZM350.998 89.1662C353.103 89.1705 354.36 87.5085 354.36 84.6449C354.36 81.7983 353.094 80.1534 350.998 80.1534C348.901 80.1534 347.64 81.794 347.635 84.6449C347.635 87.5043 348.892 89.1662 350.998 89.1662ZM350.998 87.8324C349.911 87.8324 349.229 86.7415 349.233 84.6449C349.238 82.5653 349.915 81.4702 350.998 81.4702C352.084 81.4702 352.762 82.5653 352.766 84.6449C352.766 86.7415 352.088 87.8324 350.998 87.8324ZM359.001 89.1662C361.107 89.1705 362.364 87.5085 362.364 84.6449C362.364 81.7983 361.098 80.1534 359.001 80.1534C356.905 80.1534 355.643 81.794 355.639 84.6449C355.639 87.5043 356.896 89.1662 359.001 89.1662ZM359.001 87.8324C357.915 87.8324 357.233 86.7415 357.237 84.6449C357.241 82.5653 357.919 81.4702 359.001 81.4702C360.088 81.4702 360.766 82.5653 360.77 84.6449C360.77 86.7415 360.092 87.8324 359.001 87.8324ZM367.005 89.1662C369.11 89.1705 370.368 87.5085 370.368 84.6449C370.368 81.7983 369.102 80.1534 367.005 80.1534C364.909 80.1534 363.647 81.794 363.643 84.6449C363.643 87.5043 364.9 89.1662 367.005 89.1662ZM367.005 87.8324C365.919 87.8324 365.237 86.7415 365.241 84.6449C365.245 82.5653 365.923 81.4702 367.005 81.4702C368.092 81.4702 368.77 82.5653 368.774 84.6449C368.774 86.7415 368.096 87.8324 367.005 87.8324Z" fill="#1F1F1F" fill-opacity="0.7"/>
<rect x="210" y="107" width="15" height="15" fill="#FA8557"/>
<path d="M235.861 119H237.442V116.401L238.409 115.259L241.013 119H242.913L239.509 114.189L242.884 110.273H240.953L237.548 114.283H237.442V110.273H235.861V119ZM245.103 119L245.823 116.848H249.104L249.828 119H251.516L248.439 110.273H246.488L243.415 119H245.103ZM246.249 115.578L247.429 112.062H247.498L248.678 115.578H246.249ZM252.665 119H258.09V117.675H254.246V110.273H252.665V119ZM260.911 119L261.631 116.848H264.913L265.637 119H267.325L264.248 110.273H262.296L259.224 119H260.911ZM262.058 115.578L263.238 112.062H263.306L264.487 115.578H262.058ZM275.646 110.273H274.074V116.222H273.997L269.889 110.273H268.474V119H270.055V113.055H270.127L274.24 119H275.646V110.273ZM281.227 117.952C281.73 117.952 282.161 117.534 282.165 117.014C282.161 116.503 281.73 116.085 281.227 116.085C280.707 116.085 280.286 116.503 280.29 117.014C280.286 117.534 280.707 117.952 281.227 117.952ZM281.227 113.622C281.73 113.622 282.161 113.205 282.165 112.685C282.161 112.173 281.73 111.756 281.227 111.756C280.707 111.756 280.286 112.173 280.29 112.685C280.286 113.205 280.707 113.622 281.227 113.622ZM286.559 117.381H290.723V119H292.231V117.381H293.348V116.081H292.231V110.273H290.262L286.559 116.124V117.381ZM290.74 116.081H288.179V116.013L290.672 112.062H290.74V116.081ZM295.266 119.094C295.769 119.094 296.2 118.676 296.204 118.156C296.2 117.645 295.769 117.227 295.266 117.227C294.746 117.227 294.325 117.645 294.329 118.156C294.325 118.676 294.746 119.094 295.266 119.094ZM300.525 119.166C302.63 119.17 303.887 117.509 303.887 114.645C303.887 111.798 302.621 110.153 300.525 110.153C298.428 110.153 297.167 111.794 297.163 114.645C297.163 117.504 298.42 119.166 300.525 119.166ZM300.525 117.832C299.438 117.832 298.756 116.741 298.761 114.645C298.765 112.565 299.442 111.47 300.525 111.47C301.612 111.47 302.289 112.565 302.293 114.645C302.293 116.741 301.616 117.832 300.525 117.832ZM308.529 119.166C310.634 119.17 311.891 117.509 311.891 114.645C311.891 111.798 310.625 110.153 308.529 110.153C306.432 110.153 305.171 111.794 305.167 114.645C305.167 117.504 306.424 119.166 308.529 119.166ZM308.529 117.832C307.442 117.832 306.76 116.741 306.765 114.645C306.769 112.565 307.446 111.47 308.529 111.47C309.615 111.47 310.293 112.565 310.297 114.645C310.297 116.741 309.62 117.832 308.529 117.832ZM316.533 119.166C318.638 119.17 319.895 117.509 319.895 114.645C319.895 111.798 318.629 110.153 316.533 110.153C314.436 110.153 313.175 111.794 313.17 114.645C313.17 117.504 314.428 119.166 316.533 119.166ZM316.533 117.832C315.446 117.832 314.764 116.741 314.768 114.645C314.773 112.565 315.45 111.47 316.533 111.47C317.619 111.47 318.297 112.565 318.301 114.645C318.301 116.741 317.624 117.832 316.533 117.832Z" fill="#1F1F1F" fill-opacity="0.7"/>
</svg>