<svg width="15" height="15" viewBox="0 0 15 15" fill="none" xmlns="http://www.w3.org/2000/svg">
<path fill-rule="evenodd" clip-rule="evenodd" d="M12.0537 6.72255e-05C12.4412 -0.00255615 12.8253 0.0716251 13.184 0.218326C13.5427 0.365026 13.8687 0.581339 14.1433 0.854768L13.6142 1.38616L14.1454 0.856842C14.4189 1.13136 14.6353 1.45737 14.7821 1.81603C14.9289 2.1747 15.0031 2.5589 15.0005 2.94642C14.9978 3.33394 14.9184 3.7171 14.7668 4.07374C14.6158 4.42893 14.3962 4.7508 14.1206 5.02091L13.89 5.25152C13.8849 5.25684 13.8798 5.2621 13.8746 5.2673C13.8715 5.27041 13.8684 5.2735 13.8652 5.27654C13.8631 5.27858 13.861 5.28061 13.8589 5.28261L5.42338 13.7182C5.32836 13.8133 5.20955 13.881 5.07938 13.9144L0.936349 14.977C0.679601 15.0429 0.407162 14.9683 0.219724 14.7809C0.0322866 14.5935 -0.0423102 14.3211 0.0235048 14.0643L1.08551 9.9212C1.09004 9.90355 1.09519 9.88611 1.10096 9.86891C1.13653 9.76212 1.19678 9.66174 1.28171 9.57666C1.28693 9.57142 1.29222 9.56628 1.29756 9.56124L9.97898 0.879677C10.2492 0.604106 10.5711 0.384551 10.9264 0.23361C11.283 0.0820665 11.6662 0.0026906 12.0537 6.72255e-05ZM2.2125 11.5656L1.79119 13.2092L3.43631 12.7873L2.2125 11.5656ZM4.89567 12.1246L2.87383 10.1063L10.2634 2.71664L12.2834 4.73674L4.89567 12.1246ZM13.3864 3.48691C13.3638 3.54002 13.3381 3.5916 13.3094 3.6414L11.3589 1.69085C11.4086 1.66228 11.46 1.63665 11.513 1.61415C11.6872 1.5401 11.8745 1.50131 12.0638 1.50003C12.2532 1.49875 12.4409 1.535 12.6162 1.60668C12.791 1.67818 12.9499 1.78352 13.0839 1.91664C13.217 2.05051 13.3223 2.20938 13.3938 2.38412C13.4655 2.55931 13.5018 2.74698 13.5005 2.93626C13.4992 3.12555 13.4604 3.3127 13.3864 3.48691Z" fill="#1F1F1F" fill-opacity="0.5"/>
</svg>
