<svg width="70" height="70" viewBox="0 0 70 70" fill="none" xmlns="http://www.w3.org/2000/svg">
<g clip-path="url(#clip0_8067_1053)">
<path d="M67.7571 36.2678C67.8402 35.8457 67.8288 35.4104 67.7238 34.9932C67.6188 34.576 67.4229 34.1872 67.15 33.8546C66.8771 33.5221 66.534 33.254 66.1453 33.0696C65.7566 32.8853 65.3319 32.7891 64.9017 32.7882H30.4034C29.732 32.787 29.0816 32.5542 28.5619 32.1291C28.0423 31.704 27.6851 31.1127 27.5509 30.4549L26.74 26.3978C26.6058 25.74 26.2487 25.1486 25.729 24.7235C25.2093 24.2984 24.5589 24.0657 23.8875 24.0645H5.09545C4.66549 24.0658 4.24116 24.1622 3.85282 24.3468C3.46449 24.5314 3.12176 24.7995 2.84917 25.132C2.57659 25.4645 2.38089 25.8532 2.27608 26.2702C2.17128 26.6872 2.15997 27.1222 2.24295 27.544L9.80587 65.4607C9.94014 66.1185 10.2972 66.7099 10.8169 67.135C11.3366 67.56 11.987 67.7928 12.6584 67.794H59.0859C59.7572 67.7928 60.4077 67.56 60.9273 67.135C61.447 66.7099 61.8041 66.1185 61.9384 65.4607C63.1371 59.4757 66.3367 43.367 67.7571 36.2678Z" stroke="#DA291C" stroke-width="3.5" stroke-linecap="round" stroke-linejoin="round"/>
<path d="M13.125 15.3125L13.1833 5.10417C13.1833 4.33062 13.4906 3.58875 14.0376 3.04177C14.5846 2.49479 15.3265 2.1875 16.1 2.1875H53.9088C54.6823 2.1875 55.4242 2.49479 55.9711 3.04177C56.5181 3.58875 56.8254 4.33062 56.8254 5.10417L56.8838 24.0625" stroke="#DA291C" stroke-width="3.5" stroke-linecap="round" stroke-linejoin="round"/>
<path d="M21.91 10.915L45.9375 10.9384" stroke="#DA291C" stroke-width="3.5" stroke-linecap="round" stroke-linejoin="round"/>
<path d="M35 19.6875H45.9375" stroke="#DA291C" stroke-width="3.5" stroke-linecap="round" stroke-linejoin="round"/>
</g>
<defs>
<clipPath id="clip0_8067_1053">
<rect width="70" height="70" fill="white"/>
</clipPath>
</defs>
</svg>
