<svg width="50" height="50" viewBox="0 0 50 50" fill="none" xmlns="http://www.w3.org/2000/svg">
<path d="M9.375 37.5H7.8125C6.1549 37.5 4.56518 36.8415 3.39308 35.6694C2.22098 34.4973 1.5625 32.9076 1.5625 31.25V25C1.5625 23.3424 2.22098 21.7527 3.39308 20.5806C4.56518 19.4085 6.1549 18.75 7.8125 18.75H9.375C9.7894 18.75 10.1868 18.9146 10.4799 19.2076C10.7729 19.5007 10.9375 19.8981 10.9375 20.3125V35.9375C10.9375 36.3519 10.7729 36.7493 10.4799 37.0424C10.1868 37.3354 9.7894 37.5 9.375 37.5Z" stroke="#0D2F81" stroke-width="1.5" stroke-linecap="round" stroke-linejoin="round"/>
<path d="M42.1875 37.5H40.625C40.2106 37.5 39.8132 37.3354 39.5201 37.0424C39.2271 36.7493 39.0625 36.3519 39.0625 35.9375V20.3125C39.0625 19.8981 39.2271 19.5007 39.5201 19.2076C39.8132 18.9146 40.2106 18.75 40.625 18.75H42.1875C43.8451 18.75 45.4348 19.4085 46.6069 20.5806C47.779 21.7527 48.4375 23.3424 48.4375 25V31.25C48.4375 32.9076 47.779 34.4973 46.6069 35.6694C45.4348 36.8415 43.8451 37.5 42.1875 37.5Z" stroke="#0D2F81" stroke-width="1.5" stroke-linecap="round" stroke-linejoin="round"/>
<path d="M7.8125 18.75C7.8125 14.1916 9.62332 9.81988 12.8466 6.5966C16.0699 3.37332 20.4416 1.5625 25 1.5625C29.5584 1.5625 33.9301 3.37332 37.1534 6.5966C40.3767 9.81988 42.1875 14.1916 42.1875 18.75" stroke="#0D2F81" stroke-width="1.5" stroke-linecap="round" stroke-linejoin="round"/>
<path d="M31.25 45.3125H35.9375C37.5951 45.3125 39.1848 44.654 40.3569 43.4819C41.529 42.3098 42.1875 40.7201 42.1875 39.0625V37.5" stroke="#0D2F81" stroke-width="1.5" stroke-linecap="round" stroke-linejoin="round"/>
<path d="M28.125 48.4375H25C24.1712 48.4375 23.3763 48.1083 22.7903 47.5222C22.2042 46.9362 21.875 46.1413 21.875 45.3125C21.875 44.4837 22.2042 43.6888 22.7903 43.1028C23.3763 42.5167 24.1712 42.1875 25 42.1875H28.125C28.9538 42.1875 29.7487 42.5167 30.3347 43.1028C30.9208 43.6888 31.25 44.4837 31.25 45.3125C31.25 46.1413 30.9208 46.9362 30.3347 47.5222C29.7487 48.1083 28.9538 48.4375 28.125 48.4375Z" stroke="#0D2F81" stroke-width="1.5" stroke-linecap="round" stroke-linejoin="round"/>
<path d="M18.75 32.1709C20.459 33.7282 22.6879 34.5915 25 34.5915C27.3121 34.5915 29.541 33.7282 31.25 32.1709" stroke="#0D2F81" stroke-width="1.5" stroke-linecap="round" stroke-linejoin="round"/>
<path d="M18.75 20.8021V23.5355" stroke="#0D2F81" stroke-width="1.5" stroke-linecap="round" stroke-linejoin="round"/>
<path d="M31.25 20.8021V23.5355" stroke="#0D2F81" stroke-width="1.5" stroke-linecap="round" stroke-linejoin="round"/>
</svg>
