<svg xmlns="http://www.w3.org/2000/svg" width="20" height="20" viewBox="0 0 20 20" fill="none">
<g clip-path="url(#clip0)">
<path d="M3.75 15H3.125C2.46196 15 1.82607 14.7366 1.35723 14.2678C0.888392 13.7989 0.625 13.163 0.625 12.5V10C0.625 9.33696 0.888392 8.70107 1.35723 8.23223C1.82607 7.76339 2.46196 7.5 3.125 7.5H3.75C3.91576 7.5 4.07473 7.56585 4.19194 7.68306C4.30915 7.80027 4.375 7.95924 4.375 8.125V14.375C4.375 14.5408 4.30915 14.6997 4.19194 14.8169C4.07473 14.9342 3.91576 15 3.75 15Z" stroke="#0D2F81" stroke-width="1.5" stroke-linecap="round" stroke-linejoin="round"/>
<path d="M16.875 15H16.25C16.0842 15 15.9253 14.9342 15.8081 14.8169C15.6908 14.6997 15.625 14.5408 15.625 14.375V8.125C15.625 7.95924 15.6908 7.80027 15.8081 7.68306C15.9253 7.56585 16.0842 7.5 16.25 7.5H16.875C17.538 7.5 18.1739 7.76339 18.6428 8.23223C19.1116 8.70107 19.375 9.33696 19.375 10V12.5C19.375 13.163 19.1116 13.7989 18.6428 14.2678C18.1739 14.7366 17.538 15 16.875 15Z" stroke="#0D2F81" stroke-width="1.5" stroke-linecap="round" stroke-linejoin="round"/>
<path d="M3.125 7.5C3.125 5.67664 3.84933 3.92795 5.13864 2.63864C6.42795 1.34933 8.17664 0.625 10 0.625V0.625C11.8234 0.625 13.572 1.34933 14.8614 2.63864C16.1507 3.92795 16.875 5.67664 16.875 7.5" stroke="#0D2F81" stroke-width="1.5" stroke-linecap="round" stroke-linejoin="round"/>
<path d="M12.5 18.125H14.375C15.038 18.125 15.6739 17.8616 16.1428 17.3928C16.6116 16.9239 16.875 16.288 16.875 15.625V15" stroke="#0D2F81" stroke-width="1.5" stroke-linecap="round" stroke-linejoin="round"/>
<path d="M11.25 19.375H10C9.66848 19.375 9.35054 19.2433 9.11612 19.0089C8.8817 18.7745 8.75 18.4565 8.75 18.125C8.75 17.7935 8.8817 17.4755 9.11612 17.2411C9.35054 17.0067 9.66848 16.875 10 16.875H11.25C11.5815 16.875 11.8995 17.0067 12.1339 17.2411C12.3683 17.4755 12.5 17.7935 12.5 18.125C12.5 18.4565 12.3683 18.7745 12.1339 19.0089C11.8995 19.2433 11.5815 19.375 11.25 19.375Z" stroke="#0D2F81" stroke-width="1.5" stroke-linecap="round" stroke-linejoin="round"/>
</g>
<defs>
<clipPath id="clip0">
<rect width="20" height="20" fill="white"/>
</clipPath>
</defs>
</svg>