<svg width="101" height="23" viewBox="0 0 101 23" fill="none" xmlns="http://www.w3.org/2000/svg">
<path d="M9.81546 5.40771L4.86694 8.2693L9.81546 11.1309L14.7689 8.2693L9.81546 5.40771Z" fill="white"/>
<path d="M9.81543 0.130859L0.299805 5.63086V16.6309L9.81543 22.1309L19.3311 16.6309V5.63086L9.81543 0.130859ZM9.81543 18.4658L3.47003 14.8008V7.46584L9.81543 3.80083L16.1608 7.46584V14.8008L9.81543 18.4658Z" fill="white"/>
<path d="M4.86694 8.26929V13.9925L9.81546 16.859V11.1309L4.86694 8.26929Z" fill="white"/>
<path d="M26.4644 18.4233H24.3542V3.79297H26.5041V8.56393V9.29793C26.6081 9.14915 26.7963 8.96069 26.9449 8.8367C27.7375 8.27133 28.7827 7.87457 29.704 7.87457C32.8594 7.87457 35.138 10.1113 35.138 13.1663V18.3985H33.0476V17.1437V13.1663C33.0476 11.3263 31.8142 9.96249 29.704 9.96249C27.8663 9.96249 26.5041 11.3214 26.4644 13.1216V18.4233Z" fill="white"/>
<path d="M46.0999 8.02075L40.121 21.307H37.887L39.0362 18.8372L39.4523 17.8751L39.056 16.9775L35.4202 8.02075H37.4461L40.0368 14.592L40.4777 15.807L40.9978 14.6118L43.9897 8.02075H46.0999Z" fill="white"/>
<path d="M65.1808 7.93701C65.1808 8.96361 65.1808 9.84143 65.1808 9.84143C65.2006 9.84143 62.2334 9.63313 61.857 12.1228V18.4411H59.6626V7.97669H61.857V8.93882C62.7139 8.24946 63.026 7.93701 65.1808 7.93701Z" fill="white"/>
<path d="M76.3955 13.1688C76.3955 16.1841 73.9287 18.6291 70.9219 18.6291C67.9152 18.6291 65.5276 16.1791 65.5276 13.1688C65.5276 10.1534 67.9102 7.72827 70.9219 7.72827C73.9336 7.72827 76.3955 10.1534 76.3955 13.1688ZM74.3893 13.1688C74.3893 11.1602 72.9479 9.61285 70.9219 9.61285C68.9356 9.61285 67.4297 11.1602 67.4297 13.1688C67.4297 15.1972 68.9356 16.7445 70.9219 16.7445C72.9479 16.7445 74.3893 15.1972 74.3893 13.1688Z" fill="white"/>
<path d="M100.375 14.9449C99.3698 17.3948 97.324 18.6049 95.194 18.6049C92.2269 18.6049 89.8442 16.155 89.8442 13.2041C89.8442 10.2334 92.2269 7.78345 95.194 7.78345C98.1413 7.78345 100.524 10.2334 100.524 13.2041C100.524 13.3926 100.524 13.6207 100.504 13.7893H98.5772H97.5122H91.89C92.1625 15.4011 93.4999 16.6559 95.194 16.6559C96.4918 16.6559 97.6162 16.026 98.1611 14.9399C98.5772 14.9449 99.8106 14.9449 100.375 14.9449ZM91.9544 12.2271H92.3111H97.8292H98.4583C98.3939 12.0585 98.2899 11.8898 98.2305 11.7262C97.6856 10.5756 96.5562 9.71762 95.199 9.71762C93.7773 9.71762 92.6281 10.6153 92.108 11.8303C92.0337 11.9742 91.9742 12.0981 91.9544 12.2271Z" fill="white"/>
<path d="M83.2758 7.91748C79.6399 7.95716 77.8914 10.3476 77.8914 13.2092V18.4612H80.0461V17.2263V13.2092C80.0461 11.3444 81.1309 9.96572 83.2461 9.96572C83.256 9.96572 83.2659 9.96572 83.2758 9.96572C83.2857 9.96572 83.2956 9.96572 83.3055 9.96572C85.4157 9.96572 86.5054 11.3444 86.5054 13.2092V17.2263V18.4612H88.6602V13.2092C88.6553 10.3476 86.9116 7.95716 83.2758 7.91748Z" fill="white"/>
<path d="M52.9111 8.11133V9.97111C54.7489 9.97111 56.1903 11.4788 56.1903 13.3634C56.1903 15.2281 54.7489 16.711 52.9111 16.711V18.6154C55.8287 18.6055 58.1569 16.2646 58.1569 13.3634C58.1569 10.4373 55.8238 8.12125 52.9111 8.11133Z" fill="white"/>
<path d="M49.3398 3.77612H47.2048V13.3676C47.2098 16.2639 49.741 18.5998 52.9112 18.6098V16.7053C50.91 16.7053 49.3447 15.2175 49.3447 13.3577C49.3447 11.4731 50.915 9.96548 52.9112 9.96548V8.1057C51.554 8.11066 50.3156 8.53717 49.3398 9.25629V3.77612Z" fill="white"/>
<path d="M9.81567 14.9503V16.8548L11.4652 15.9025V13.9932L9.81567 14.9503Z" fill="white"/>
<path d="M9.81567 11.1304V13.0398L11.4652 12.0876V10.1782L9.81567 11.1304Z" fill="white"/>
<path d="M11.4651 12.088V13.9924L13.1146 13.0402V11.1309L11.4651 12.088Z" fill="white"/>
<path d="M13.1147 9.22646V11.1309L14.7692 10.1787V8.26929L13.1147 9.22646Z" fill="white"/>
</svg>
