<svg xmlns="http://www.w3.org/2000/svg" width="20" height="20" viewBox="0 0 20 20" fill="none">
<g clip-path="url(#clip0)">
<path d="M18.125 15.625H9.375L4.375 19.375V15.625H1.875C1.54348 15.625 1.22554 15.4933 0.991117 15.2589C0.756696 15.0245 0.625 14.7065 0.625 14.375V1.875C0.625 1.54348 0.756696 1.22554 0.991117 0.991117C1.22554 0.756696 1.54348 0.625 1.875 0.625H18.125C18.4565 0.625 18.7745 0.756696 19.0089 0.991117C19.2433 1.22554 19.375 1.54348 19.375 1.875V14.375C19.375 14.7065 19.2433 15.0245 19.0089 15.2589C18.7745 15.4933 18.4565 15.625 18.125 15.625Z" stroke="#1F1F1F" stroke-opacity="0.7" stroke-width="1.5" stroke-linecap="round" stroke-linejoin="round"/>
<path d="M8.125 5.62452C8.12509 5.16621 8.25116 4.71675 8.48943 4.32525C8.72771 3.93375 9.06902 3.61528 9.47607 3.40465C9.88311 3.19402 10.3402 3.09934 10.7974 3.13095C11.2547 3.16257 11.6944 3.31926 12.0686 3.5839C12.4428 3.84854 12.737 4.21095 12.9191 4.63151C13.1012 5.05208 13.1643 5.51462 13.1013 5.96858C13.0383 6.42254 12.8517 6.85046 12.562 7.20555C12.2722 7.56064 11.8904 7.82925 11.4583 7.98202C11.2147 8.06818 11.0037 8.22775 10.8544 8.43877C10.7052 8.6498 10.625 8.90189 10.625 9.16036V9.37452" stroke="#1F1F1F" stroke-opacity="0.7" stroke-width="1.5" stroke-linecap="round" stroke-linejoin="round"/>
<path d="M10.625 11.875C10.5632 11.875 10.5028 11.8933 10.4514 11.9277C10.4 11.962 10.3599 12.0108 10.3363 12.0679C10.3126 12.125 10.3064 12.1878 10.3185 12.2485C10.3306 12.3091 10.3603 12.3648 10.404 12.4085C10.4477 12.4522 10.5034 12.4819 10.564 12.494C10.6247 12.5061 10.6875 12.4999 10.7446 12.4762C10.8017 12.4526 10.8505 12.4125 10.8848 12.3611C10.9192 12.3097 10.9375 12.2493 10.9375 12.1875C10.9375 12.1046 10.9046 12.0251 10.846 11.9665C10.7874 11.9079 10.7079 11.875 10.625 11.875Z" stroke="#1F1F1F" stroke-opacity="0.7" stroke-width="1.5" stroke-linecap="round" stroke-linejoin="round"/>
</g>
<defs>
<clipPath id="clip0">
<rect width="20" height="20" fill="white"/>
</clipPath>
</defs>
</svg>