<svg xmlns="http://www.w3.org/2000/svg" width="20" height="20" viewBox="0 0 20 20" fill="none">
<g clip-path="url(#clip0)">
<path d="M3.74915 16.248V9.99805" stroke="#0D2F81" stroke-width="1.5" stroke-linecap="round" stroke-linejoin="round"/>
<path d="M3.75 10H4.375C4.87228 10 5.34919 10.1975 5.70083 10.5492C6.05246 10.9008 6.25 11.3777 6.25 11.875C6.25 12.3723 6.05246 12.8492 5.70083 13.2008C5.34919 13.5525 4.87228 13.75 4.375 13.75H3.75" stroke="#0D2F81" stroke-width="1.5" stroke-linecap="round" stroke-linejoin="round"/>
<path d="M8.75 16.25C9.41304 16.25 10.0489 15.9866 10.5178 15.5178C10.9866 15.0489 11.25 14.413 11.25 13.75V12.5C11.25 11.837 10.9866 11.2011 10.5178 10.7322C10.0489 10.2634 9.41304 10 8.75 10V16.25Z" stroke="#0D2F81" stroke-width="1.5" stroke-linecap="round" stroke-linejoin="round"/>
<path d="M13.75 16.25V11.25C13.75 10.9185 13.8817 10.6005 14.1161 10.3661C14.3505 10.1317 14.6685 10 15 10H16.25" stroke="#0D2F81" stroke-width="1.5" stroke-linecap="round" stroke-linejoin="round"/>
<path d="M13.7491 13.748H15.6241" stroke="#0D2F81" stroke-width="1.5" stroke-linecap="round" stroke-linejoin="round"/>
<path d="M19.0075 4.63221C19.242 4.86641 19.3739 5.18414 19.3741 5.51555V17.4997C19.3737 17.9966 19.1761 18.4729 18.8247 18.8242C18.4733 19.1754 17.9968 19.3728 17.5 19.373H2.49998C2.00284 19.3733 1.52597 19.1761 1.1742 18.8248C0.822442 18.4735 0.624588 17.9969 0.624146 17.4997V2.49971C0.623927 2.25327 0.672291 2.00921 0.766473 1.78148C0.860655 1.55375 0.998806 1.34681 1.17303 1.17252C1.34725 0.998219 1.55412 0.859976 1.78181 0.765693C2.0095 0.67141 2.25354 0.622937 2.49998 0.623047H14.4808C14.645 0.622973 14.8076 0.655242 14.9593 0.718013C15.111 0.780783 15.2488 0.872825 15.365 0.98888L19.0075 4.63221Z" stroke="#0D2F81" stroke-width="1.5" stroke-linecap="round" stroke-linejoin="round"/>
<path d="M14.3741 0.623047V4.37305C14.3741 4.70457 14.5058 5.02251 14.7403 5.25693C14.9747 5.49135 15.2926 5.62305 15.6241 5.62305H19.3741" stroke="#0D2F81" stroke-width="1.5" stroke-linecap="round" stroke-linejoin="round"/>
</g>
<defs>
<clipPath id="clip0">
<rect width="20" height="20" fill="white"/>
</clipPath>
</defs>
</svg>