<svg xmlns="http://www.w3.org/2000/svg" width="1.7rem" height="1.7rem" viewBox="0 0 40 40" fill="none">
<path d="M15 15C15.0002 14.0834 15.2523 13.1844 15.7289 12.4014C16.2054 11.6184 16.888 10.9815 17.7021 10.5603C18.5162 10.139 19.4304 9.94964 20.3449 10.0129C21.2593 10.0761 22.1388 10.3895 22.8871 10.9187C23.6355 11.448 24.224 12.1728 24.5882 13.014C24.9525 13.8551 25.0785 14.7802 24.9526 15.6881C24.8266 16.596 24.4535 17.4519 23.8739 18.1621C23.2944 18.8722 22.5309 19.4095 21.6667 19.715C21.179 19.8874 20.7569 20.2068 20.4584 20.6292C20.1599 21.0516 19.9997 21.5561 20 22.0733V23.75" stroke="white" stroke-width="1.5" stroke-linecap="round" stroke-linejoin="round"/>
<path d="M20 28.75C19.8764 28.75 19.7555 28.7867 19.6528 28.8553C19.55 28.924 19.4699 29.0216 19.4226 29.1358C19.3753 29.25 19.3629 29.3757 19.387 29.4969C19.4111 29.6182 19.4706 29.7295 19.5581 29.8169C19.6455 29.9044 19.7568 29.9639 19.8781 29.988C19.9993 30.0121 20.125 29.9997 20.2392 29.9524C20.3534 29.9051 20.451 29.825 20.5197 29.7222C20.5883 29.6195 20.625 29.4986 20.625 29.375C20.625 29.2092 20.5592 29.0503 20.4419 28.9331C20.3247 28.8158 20.1658 28.75 20 28.75Z" stroke="white" stroke-width="1.5" stroke-linecap="round" stroke-linejoin="round"/>
<path d="M20 38.75C30.3553 38.75 38.75 30.3553 38.75 20C38.75 9.64466 30.3553 1.25 20 1.25C9.64466 1.25 1.25 9.64466 1.25 20C1.25 30.3553 9.64466 38.75 20 38.75Z" stroke="white" stroke-width="1.5" stroke-miterlimit="10"/>
</svg>