<svg xmlns="http://www.w3.org/2000/svg" width="20" height="20" viewBox="0 0 20 20" fill="none">
<g clip-path="url(#clip0)">
<path d="M8.78833 2.0317C8.94125 2.20145 9.12813 2.33717 9.33686 2.43007C9.5456 2.52297 9.77152 2.57098 9.99999 2.57098C10.2285 2.57098 10.4544 2.52297 10.6631 2.43007C10.8719 2.33717 11.0587 2.20145 11.2117 2.0317L12 1.1667C12.2259 0.916646 12.5237 0.742647 12.8525 0.668579C13.1812 0.594512 13.5249 0.624005 13.8362 0.753013C14.1475 0.88202 14.4113 1.10422 14.5913 1.38911C14.7714 1.674 14.8588 2.00763 14.8417 2.3442L14.7825 3.51086C14.771 3.73845 14.8074 3.96591 14.8892 4.1786C14.971 4.39128 15.0965 4.58447 15.2575 4.74572C15.4185 4.90697 15.6115 5.03271 15.8241 5.11483C16.0366 5.19695 16.2641 5.23364 16.4917 5.22253L17.6583 5.16336C17.9947 5.14678 18.3279 5.23462 18.6124 5.41485C18.8969 5.59508 19.1186 5.85888 19.2473 6.17008C19.376 6.48129 19.4053 6.82468 19.3312 7.15318C19.2571 7.48168 19.0832 7.77923 18.8333 8.00503L17.965 8.78836C17.7955 8.9415 17.6599 9.1285 17.5672 9.33728C17.4744 9.54607 17.4265 9.77199 17.4265 10.0004C17.4265 10.2289 17.4744 10.4548 17.5672 10.6636C17.6599 10.8724 17.7955 11.0594 17.965 11.2125L18.8333 11.9959C19.0834 12.2218 19.2574 12.5196 19.3314 12.8483C19.4055 13.1771 19.376 13.5207 19.247 13.8321C19.118 14.1434 18.8958 14.4072 18.6109 14.5872C18.326 14.7672 17.9924 14.8547 17.6558 14.8375L16.4892 14.7784C16.2611 14.7666 16.033 14.8029 15.8199 14.8849C15.6067 14.9668 15.4131 15.0926 15.2516 15.2541C15.0901 15.4156 14.9643 15.6092 14.8823 15.8224C14.8004 16.0356 14.7641 16.2636 14.7758 16.4917L14.835 17.6584C14.8499 17.9932 14.7614 18.3246 14.5814 18.6074C14.4015 18.8902 14.1388 19.1108 13.8292 19.2391C13.5195 19.3675 13.1778 19.3974 12.8506 19.3248C12.5233 19.2522 12.2263 19.0806 12 18.8334L11.2158 17.9659C11.0628 17.7963 10.8758 17.6608 10.6671 17.5681C10.4584 17.4753 10.2326 17.4274 10.0042 17.4274C9.77576 17.4274 9.54991 17.4753 9.3412 17.5681C9.13248 17.6608 8.94555 17.7963 8.79249 17.9659L8.00499 18.8334C7.779 19.0818 7.4819 19.2544 7.1542 19.3278C6.82649 19.4012 6.48413 19.3717 6.17378 19.2435C5.86343 19.1152 5.6002 18.8943 5.41997 18.6109C5.23974 18.3275 5.15128 17.9955 5.16666 17.66L5.22666 16.4934C5.23839 16.2653 5.20211 16.0373 5.12016 15.8241C5.0382 15.6109 4.91241 15.4173 4.75091 15.2558C4.58941 15.0943 4.3958 14.9685 4.18262 14.8865C3.96943 14.8046 3.74142 14.7683 3.51333 14.78L2.34666 14.8392C2.01023 14.8568 1.67661 14.7697 1.39161 14.5901C1.1066 14.4105 0.884189 14.1471 0.754895 13.836C0.625602 13.5249 0.595771 13.1814 0.669497 12.8527C0.743223 12.5239 0.916891 12.2261 1.16666 12L2.03416 11.2167C2.2037 11.0636 2.33923 10.8766 2.43199 10.6678C2.52474 10.459 2.57267 10.2331 2.57267 10.0046C2.57267 9.77615 2.52474 9.55023 2.43199 9.34145C2.33923 9.13267 2.2037 8.94567 2.03416 8.79253L1.16666 8.00503C0.917701 7.7792 0.744563 7.48199 0.670911 7.15403C0.59726 6.82607 0.62669 6.48337 0.755179 6.17277C0.883667 5.86218 1.10494 5.59884 1.38876 5.41876C1.67258 5.23868 2.00508 5.15065 2.34083 5.1667L3.50749 5.22586C3.73602 5.23788 3.96451 5.20169 4.17814 5.11965C4.39177 5.0376 4.58575 4.91154 4.74748 4.74965C4.90922 4.58776 5.03509 4.39365 5.11693 4.17995C5.19876 3.96624 5.23473 3.73771 5.22249 3.5092L5.16666 2.3417C5.15091 2.00608 5.2391 1.67379 5.4192 1.39015C5.59929 1.10651 5.86251 0.885343 6.17294 0.756832C6.48338 0.62832 6.8259 0.598721 7.15378 0.672073C7.48165 0.745425 7.77891 0.918156 8.00499 1.1667L8.78833 2.0317Z" stroke="#1F1F1F" stroke-opacity="0.5" stroke-width="1.5" stroke-linecap="round" stroke-linejoin="round"/>
<path d="M10 13.7509C12.0711 13.7509 13.75 12.0719 13.75 10.0009C13.75 7.92979 12.0711 6.25085 10 6.25085C7.92893 6.25085 6.25 7.92979 6.25 10.0009C6.25 12.0719 7.92893 13.7509 10 13.7509Z" stroke="#1F1F1F" stroke-opacity="0.5" stroke-width="1.5" stroke-linecap="round" stroke-linejoin="round"/>
</g>
<defs>
<clipPath id="clip0">
<rect width="20" height="20" fill="white"/>
</clipPath>
</defs>
</svg>