<svg xmlns="http://www.w3.org/2000/svg" width="17" height="17" viewBox="0 0 17 17" fill="none">
<path d="M7.53067 2.12311C7.65308 2.25899 7.80268 2.36764 7.96977 2.442C8.13686 2.51637 8.3177 2.5548 8.50059 2.5548C8.68348 2.5548 8.86433 2.51637 9.03142 2.442C9.19851 2.36764 9.3481 2.25899 9.47052 2.12311L10.1016 1.43069C10.2824 1.23053 10.5208 1.09124 10.784 1.03195C11.0471 0.972663 11.3222 0.996272 11.5714 1.09954C11.8206 1.20281 12.0318 1.38068 12.1759 1.60873C12.32 1.83678 12.39 2.10384 12.3763 2.37326L12.3289 3.30716C12.3198 3.48934 12.3489 3.67142 12.4143 3.84167C12.4798 4.01193 12.5803 4.16657 12.7092 4.29565C12.838 4.42473 12.9925 4.52538 13.1627 4.59112C13.3328 4.65685 13.5149 4.68622 13.6971 4.67733L14.631 4.62996C14.9002 4.61669 15.167 4.68701 15.3947 4.83128C15.6224 4.97555 15.8 5.18671 15.903 5.43583C16.006 5.68495 16.0294 5.95982 15.9701 6.22279C15.9108 6.48575 15.7715 6.72393 15.5716 6.90468L14.8765 7.53173C14.7408 7.65431 14.6323 7.804 14.558 7.97113C14.4838 8.13826 14.4454 8.3191 14.4454 8.50198C14.4454 8.68486 14.4838 8.86571 14.558 9.03284C14.6323 9.19996 14.7408 9.34965 14.8765 9.47224L15.5716 10.0993C15.7717 10.2801 15.911 10.5185 15.9703 10.7817C16.0296 11.0449 16.006 11.3199 15.9027 11.5691C15.7994 11.8184 15.6216 12.0295 15.3935 12.1736C15.1655 12.3177 14.8984 12.3877 14.629 12.374L13.6951 12.3266C13.5125 12.3172 13.33 12.3463 13.1593 12.4119C12.9887 12.4775 12.8337 12.5782 12.7044 12.7075C12.5751 12.8367 12.4744 12.9917 12.4088 13.1624C12.3432 13.333 12.3142 13.5156 12.3236 13.6981L12.3709 14.632C12.3829 14.9001 12.312 15.1653 12.168 15.3917C12.0239 15.6181 11.8137 15.7947 11.5658 15.8974C11.3179 16.0002 11.0444 16.0241 10.7824 15.966C10.5205 15.9079 10.2828 15.7705 10.1016 15.5726L9.47385 14.8782C9.35133 14.7425 9.20169 14.634 9.03462 14.5598C8.86755 14.4855 8.68676 14.4472 8.50393 14.4472C8.3211 14.4472 8.14031 14.4855 7.97324 14.5598C7.80616 14.634 7.65653 14.7425 7.53401 14.8782L6.90362 15.5726C6.72272 15.7715 6.4849 15.9097 6.22257 15.9684C5.96025 16.0272 5.68619 16.0036 5.43776 15.9009C5.18933 15.7982 4.97862 15.6214 4.83435 15.3945C4.69008 15.1677 4.61927 14.9019 4.63158 14.6334L4.67961 13.6995C4.689 13.5169 4.65995 13.3344 4.59435 13.1637C4.52875 12.9931 4.42805 12.8381 4.29878 12.7088C4.1695 12.5795 4.01452 12.4788 3.84387 12.4132C3.67322 12.3476 3.49069 12.3186 3.30811 12.328L2.37421 12.3753C2.1049 12.3894 1.83784 12.3197 1.6097 12.176C1.38156 12.0322 1.20352 11.8213 1.10002 11.5723C0.996524 11.3232 0.972645 11.0483 1.03166 10.7851C1.09068 10.522 1.2297 10.2836 1.42963 10.1026L2.12406 9.47557C2.25977 9.35299 2.36826 9.2033 2.44251 9.03617C2.51676 8.86904 2.55513 8.6882 2.55513 8.50532C2.55513 8.32244 2.51676 8.14159 2.44251 7.97446C2.36826 7.80734 2.25977 7.65765 2.12406 7.53506L1.42963 6.90468C1.23035 6.7239 1.09175 6.48599 1.03279 6.22347C0.973837 5.96094 0.997395 5.68661 1.10025 5.43798C1.2031 5.18936 1.38023 4.97856 1.60742 4.83441C1.83461 4.69026 2.10078 4.61979 2.36954 4.63263L3.30344 4.67999C3.48637 4.68961 3.66928 4.66064 3.84028 4.59497C4.01129 4.5293 4.16657 4.42838 4.29603 4.29879C4.4255 4.1692 4.52626 4.01382 4.59177 3.84275C4.65728 3.67168 4.68607 3.48875 4.67627 3.30583L4.63158 2.37126C4.61897 2.10261 4.68957 1.83661 4.83373 1.60956C4.97789 1.38251 5.1886 1.20547 5.43709 1.1026C5.68559 0.999726 5.95978 0.976032 6.22224 1.03475C6.4847 1.09347 6.72265 1.23174 6.90362 1.43069L7.53067 2.12311Z" stroke="#1F1F1F" stroke-opacity="0.7" stroke-width="1.5" stroke-linecap="round" stroke-linejoin="round"/>
<path d="M8.50036 11.5044C10.1582 11.5044 11.5022 10.1604 11.5022 8.50256C11.5022 6.84469 10.1582 5.50073 8.50036 5.50073C6.8425 5.50073 5.49854 6.84469 5.49854 8.50256C5.49854 10.1604 6.8425 11.5044 8.50036 11.5044Z" stroke="#1F1F1F" stroke-opacity="0.7" stroke-width="1.5" stroke-linecap="round" stroke-linejoin="round"/>
</svg>