<svg xmlns="http://www.w3.org/2000/svg" width="20" height="20" viewBox="0 0 20 20" fill="none">
<g clip-path="url(#clip0)">
<path d="M7.49418 19.375H2.04251C1.86474 19.375 1.68901 19.337 1.52708 19.2636C1.36514 19.1903 1.22071 19.0832 1.10343 18.9496C0.986154 18.816 0.898723 18.6589 0.846975 18.4889C0.795227 18.3188 0.780353 18.1396 0.803345 17.9633L2.35168 6.08833C2.39094 5.78728 2.53844 5.5108 2.76662 5.31053C2.9948 5.11026 3.28807 4.99988 3.59168 5H4.52168C4.82514 5.00008 5.11821 5.11055 5.34622 5.31081C5.57422 5.51106 5.7216 5.78742 5.76085 6.08833L7.49418 19.375Z" stroke="#0D2F81" stroke-width="1.5" stroke-linecap="round" stroke-linejoin="round"/>
<path d="M11.8691 5H16.3966C16.7001 5.00008 16.9932 5.11055 17.2212 5.31081C17.4492 5.51106 17.5966 5.78742 17.6358 6.08833L19.185 17.9633C19.208 18.1397 19.1931 18.3189 19.1413 18.4891C19.0895 18.6592 19.002 18.8163 18.8846 18.9499C18.7672 19.0836 18.6227 19.1906 18.4607 19.2639C18.2986 19.3372 18.1228 19.3751 17.945 19.375H7.49414" stroke="#0D2F81" stroke-width="1.5" stroke-linecap="round" stroke-linejoin="round"/>
<path d="M4.52167 5H9.99417" stroke="#0D2F81" stroke-width="1.5" stroke-linecap="round" stroke-linejoin="round"/>
<path d="M14.9941 8.75V3.125C14.9941 2.7967 14.9295 2.47161 14.8038 2.16829C14.6782 1.86498 14.4941 1.58938 14.2619 1.35723C14.0298 1.12509 13.7542 0.940938 13.4508 0.815301C13.1475 0.689664 12.8224 0.625 12.4941 0.625C12.1658 0.625 11.8407 0.689664 11.5374 0.815301C11.2341 0.940938 10.9585 1.12509 10.7264 1.35723C10.4942 1.58938 10.3101 1.86498 10.1844 2.16829C10.0588 2.47161 9.99414 2.7967 9.99414 3.125V8.75" stroke="#0D2F81" stroke-width="1.5" stroke-linecap="round" stroke-linejoin="round"/>
<path d="M7.98164 1.04395C7.63888 1.27263 7.35796 1.58249 7.16387 1.94596C6.96978 2.30943 6.86853 2.71523 6.86914 3.12728V4.99978" stroke="#0D2F81" stroke-width="1.5" stroke-linecap="round" stroke-linejoin="round"/>
</g>
<defs>
<clipPath id="clip0">
<rect width="20" height="20" fill="white"/>
</clipPath>
</defs>
</svg>