<svg width="70" height="70" viewBox="0 0 70 70" fill="none" xmlns="http://www.w3.org/2000/svg">
<path d="M32.9408 29.1813C38.9106 29.1813 43.75 24.3419 43.75 18.3722C43.75 12.4024 38.9106 7.56299 32.9408 7.56299C26.9711 7.56299 22.1317 12.4024 22.1317 18.3722C22.1317 24.3419 26.9711 29.1813 32.9408 29.1813Z" stroke="#DA291C" stroke-width="1.5" stroke-linecap="round" stroke-linejoin="round"/>
<path d="M17.5 33.8128L25.2992 26.0166" stroke="#DA291C" stroke-width="1.5" stroke-linecap="round" stroke-linejoin="round"/>
<path d="M18.5938 66.6255C21.6141 66.6255 24.0625 64.177 24.0625 61.1567C24.0625 58.1364 21.6141 55.688 18.5938 55.688C15.5734 55.688 13.125 58.1364 13.125 61.1567C13.125 64.177 15.5734 66.6255 18.5938 66.6255Z" stroke="#DA291C" stroke-width="1.5" stroke-linecap="round" stroke-linejoin="round"/>
<path d="M40.4688 66.6255C43.4891 66.6255 45.9375 64.177 45.9375 61.1567C45.9375 58.1364 43.4891 55.688 40.4688 55.688C37.4484 55.688 35 58.1364 35 61.1567C35 64.177 37.4484 66.6255 40.4688 66.6255Z" stroke="#DA291C" stroke-width="1.5" stroke-linecap="round" stroke-linejoin="round"/>
<path d="M2.1875 20.688L8.98042 43.6917C9.22916 44.6232 9.77862 45.4464 10.5434 46.0334C11.3082 46.6205 12.2455 46.9385 13.2096 46.938H44.7621C45.7277 46.9404 46.667 46.6233 47.4335 46.0361C48.2001 45.4489 48.7509 44.6246 49 43.6917L58.4442 8.24254C58.8164 6.84529 59.64 5.61021 60.7867 4.72934C61.9334 3.84847 63.339 3.37118 64.785 3.3717H67.8125" stroke="#DA291C" stroke-width="1.5" stroke-linecap="round" stroke-linejoin="round"/>
</svg>
