<svg width="24" height="24" viewBox="0 0 24 24" fill="none" xmlns="http://www.w3.org/2000/svg">
<path d="M23.2503 4.24899L11.8083 19.505C11.6794 19.677 11.515 19.8193 11.3263 19.9222C11.1376 20.0252 10.929 20.0863 10.7146 20.1016C10.5002 20.1169 10.285 20.0859 10.0836 20.0107C9.88218 19.9356 9.6993 19.818 9.54731 19.666L6.57031 16.689" stroke="#1F1F1F" stroke-opacity="0.5" stroke-width="1.5" stroke-linecap="round" stroke-linejoin="round"/>
<path d="M6.00063 19.76C5.86192 19.9018 5.69647 20.0147 5.51383 20.0922C5.33119 20.1696 5.13501 20.2101 4.93663 20.2112C4.73825 20.2123 4.54162 20.1741 4.35813 20.0987C4.17463 20.0233 4.00791 19.9123 3.86763 19.772L0.890625 16.8" stroke="#1F1F1F" stroke-opacity="0.5" stroke-width="1.5" stroke-linecap="round" stroke-linejoin="round"/>
<path d="M17.4291 4.35501L9.28906 15.209" stroke="#1F1F1F" stroke-opacity="0.5" stroke-width="1.5" stroke-linecap="round" stroke-linejoin="round"/>
</svg>
