<svg width="60" height="60" viewBox="0 0 60 60" fill="none" xmlns="http://www.w3.org/2000/svg">
<circle cx="30" cy="30" r="30" fill="#4CAF50"/>
<path d="M41.25 22.249L29.808 37.505C29.6791 37.677 29.5147 37.8193 29.326 37.9222C29.1373 38.0252 28.9287 38.0863 28.7143 38.1016C28.4998 38.1169 28.2846 38.0859 28.0833 38.0107C27.8819 37.9356 27.699 37.818 27.547 37.666L24.57 34.689" stroke="white" stroke-width="1.5" stroke-linecap="round" stroke-linejoin="round"/>
<path d="M24 37.76C23.8613 37.9018 23.6958 38.0147 23.5132 38.0922C23.3306 38.1697 23.1344 38.2101 22.936 38.2112C22.7376 38.2123 22.541 38.1741 22.3575 38.0987C22.174 38.0233 22.0073 37.9123 21.867 37.772L18.89 34.8" stroke="white" stroke-width="1.5" stroke-linecap="round" stroke-linejoin="round"/>
<path d="M35.43 22.355L27.29 33.209" stroke="white" stroke-width="1.5" stroke-linecap="round" stroke-linejoin="round"/>
</svg>
