<svg width="509" height="403" viewBox="0 0 509 403" fill="none" xmlns="http://www.w3.org/2000/svg">
<rect x="133" y="141" width="180" height="180" fill="white" fill-opacity="0.3"/>
<g opacity="0.4">
<circle cx="85.193" cy="83.193" r="2.19298" fill="white"/>
<ellipse cx="85.193" cy="118.281" rx="2.19298" ry="2.19298" fill="white"/>
<ellipse cx="85.193" cy="153.368" rx="2.19298" ry="2.19299" fill="white"/>
<ellipse cx="85.193" cy="188.456" rx="2.19298" ry="2.19298" fill="white"/>
<ellipse cx="85.193" cy="223.544" rx="2.19298" ry="2.19299" fill="white"/>
<ellipse cx="120.281" cy="83.193" rx="2.19298" ry="2.19298" fill="white"/>
<circle cx="120.281" cy="118.281" r="2.19298" fill="white"/>
<ellipse cx="120.281" cy="153.368" rx="2.19298" ry="2.19299" fill="white"/>
<ellipse cx="120.281" cy="188.456" rx="2.19298" ry="2.19298" fill="white"/>
<ellipse cx="120.281" cy="223.544" rx="2.19298" ry="2.19299" fill="white"/>
<ellipse cx="155.369" cy="83.193" rx="2.19299" ry="2.19298" fill="white"/>
<ellipse cx="155.369" cy="118.281" rx="2.19299" ry="2.19298" fill="white"/>
<circle cx="155.369" cy="153.368" r="2.19299" fill="white"/>
<ellipse cx="155.369" cy="188.456" rx="2.19299" ry="2.19298" fill="white"/>
<circle cx="155.369" cy="223.544" r="2.19299" fill="white"/>
<ellipse cx="190.457" cy="83.193" rx="2.19298" ry="2.19298" fill="white"/>
<ellipse cx="190.457" cy="118.281" rx="2.19298" ry="2.19298" fill="white"/>
<ellipse cx="190.457" cy="153.368" rx="2.19298" ry="2.19299" fill="white"/>
<circle cx="190.457" cy="188.456" r="2.19298" fill="white"/>
<ellipse cx="190.457" cy="223.544" rx="2.19298" ry="2.19299" fill="white"/>
<ellipse cx="225.545" cy="83.193" rx="2.19299" ry="2.19298" fill="white"/>
<ellipse cx="225.545" cy="118.281" rx="2.19299" ry="2.19298" fill="white"/>
<circle cx="225.545" cy="153.368" r="2.19299" fill="white"/>
<ellipse cx="225.545" cy="188.456" rx="2.19299" ry="2.19298" fill="white"/>
<circle cx="225.545" cy="223.544" r="2.19299" fill="white"/>
</g>
<g clip-path="url(#clip0)" filter="url(#filter0_d)">
<path d="M282.167 185.167C282.167 178.536 284.801 172.177 289.489 167.489C294.177 162.801 300.536 160.167 307.167 160.167H371.75C372.303 160.167 372.832 159.947 373.223 159.556C373.614 159.166 373.833 158.636 373.833 158.083V93.5C373.833 90.1848 372.516 87.0054 370.172 84.6612C367.828 82.317 364.649 81 361.333 81H215.5C212.185 81 209.005 82.317 206.661 84.6612C204.317 87.0054 203 90.1848 203 93.5V214.333C203 217.649 204.317 220.828 206.661 223.172C209.005 225.516 212.185 226.833 215.5 226.833H240.5V256C240.5 256.824 240.745 257.63 241.203 258.316C241.662 259.001 242.313 259.535 243.075 259.85C243.58 260.057 244.121 260.165 244.667 260.167C245.215 260.167 245.758 260.058 246.264 259.848C246.77 259.638 247.23 259.33 247.617 258.942L279.725 226.833H280.083C280.636 226.833 281.166 226.614 281.556 226.223C281.947 225.832 282.167 225.303 282.167 224.75V185.167ZM227.75 164.075C228.923 162.907 230.511 162.251 232.167 162.251C233.822 162.251 235.41 162.907 236.583 164.075C243.392 170.953 252.308 175.353 261.908 176.575C262.723 176.68 263.508 176.943 264.22 177.351C264.933 177.76 265.557 178.304 266.059 178.954C266.561 179.603 266.93 180.345 267.145 181.138C267.36 181.93 267.417 182.757 267.313 183.571C267.208 184.385 266.944 185.171 266.536 185.883C266.128 186.595 265.583 187.22 264.934 187.722C264.284 188.224 263.542 188.593 262.75 188.808C261.958 189.023 261.131 189.08 260.317 188.975C247.973 187.406 236.51 181.753 227.75 172.917C227.169 172.336 226.708 171.647 226.394 170.889C226.08 170.13 225.918 169.317 225.918 168.496C225.918 167.675 226.08 166.862 226.394 166.103C226.708 165.345 227.169 164.655 227.75 164.075ZM267.583 135.167C267.583 136.824 266.925 138.414 265.753 139.586C264.581 140.758 262.991 141.417 261.333 141.417C259.676 141.417 258.086 140.758 256.914 139.586C255.742 138.414 255.083 136.824 255.083 135.167V118.5C255.083 116.842 255.742 115.253 256.914 114.081C258.086 112.908 259.676 112.25 261.333 112.25C262.991 112.25 264.581 112.908 265.753 114.081C266.925 115.253 267.583 116.842 267.583 118.5V135.167ZM317.583 135.167C317.583 136.824 316.925 138.414 315.753 139.586C314.581 140.758 312.991 141.417 311.333 141.417C309.676 141.417 308.086 140.758 306.914 139.586C305.742 138.414 305.083 136.824 305.083 135.167V118.5C305.083 116.842 305.742 115.253 306.914 114.081C308.086 112.908 309.676 112.25 311.333 112.25C312.991 112.25 314.581 112.908 315.753 114.081C316.925 115.253 317.583 116.842 317.583 118.5V135.167Z" fill="white"/>
<path d="M390.5 172.667H307.167C303.851 172.667 300.672 173.984 298.328 176.328C295.984 178.672 294.667 181.851 294.667 185.167V243.5C294.667 246.815 295.984 249.995 298.328 252.339C300.672 254.683 303.851 256 307.167 256H339.108L371.333 280.167C371.952 280.631 372.688 280.914 373.459 280.983C374.23 281.053 375.005 280.906 375.697 280.56C376.389 280.214 376.971 279.682 377.378 279.024C377.785 278.366 378 277.607 378 276.833V256H390.5C393.815 256 396.995 254.683 399.339 252.339C401.683 249.995 403 246.815 403 243.5V185.167C403 181.851 401.683 178.672 399.339 176.328C396.995 173.984 393.815 172.667 390.5 172.667ZM323.833 214.333C323.833 212.685 324.322 211.074 325.238 209.704C326.153 208.333 327.455 207.265 328.978 206.634C330.5 206.004 332.176 205.839 333.792 206.16C335.409 206.482 336.894 207.275 338.059 208.441C339.225 209.606 340.018 211.091 340.34 212.708C340.661 214.324 340.496 216 339.866 217.522C339.235 219.045 338.167 220.347 336.796 221.262C335.426 222.178 333.815 222.667 332.167 222.667C329.957 222.667 327.837 221.789 326.274 220.226C324.711 218.663 323.833 216.543 323.833 214.333ZM365.5 222.667C363.852 222.667 362.241 222.178 360.87 221.262C359.5 220.347 358.432 219.045 357.801 217.522C357.17 216 357.005 214.324 357.327 212.708C357.648 211.091 358.442 209.606 359.607 208.441C360.773 207.275 362.258 206.482 363.874 206.16C365.491 205.839 367.166 206.004 368.689 206.634C370.212 207.265 371.513 208.333 372.429 209.704C373.345 211.074 373.833 212.685 373.833 214.333C373.833 216.543 372.955 218.663 371.393 220.226C369.83 221.789 367.71 222.667 365.5 222.667Z" fill="white"/>
</g>
<defs>
<filter id="filter0_d" x="183" y="71" width="300" height="300" filterUnits="userSpaceOnUse" color-interpolation-filters="sRGB">
<feFlood flood-opacity="0" result="BackgroundImageFix"/>
<feColorMatrix in="SourceAlpha" type="matrix" values="0 0 0 0 0 0 0 0 0 0 0 0 0 0 0 0 0 0 127 0"/>
<feOffset dx="30" dy="40"/>
<feGaussianBlur stdDeviation="25"/>
<feColorMatrix type="matrix" values="0 0 0 0 0 0 0 0 0 0 0 0 0 0 0 0 0 0 0.05 0"/>
<feBlend mode="normal" in2="BackgroundImageFix" result="effect1_dropShadow"/>
<feBlend mode="normal" in="SourceGraphic" in2="effect1_dropShadow" result="shape"/>
</filter>
<clipPath id="clip0">
<rect width="200" height="200" fill="white" transform="translate(203 81)"/>
</clipPath>
</defs>
</svg>
