<svg xmlns="http://www.w3.org/2000/svg" width="40" height="40" viewBox="0 0 40 40" fill="none">
<path d="M8.75 17.5186H20" stroke="#0D2F81" stroke-width="1.5" stroke-linecap="round" stroke-linejoin="round"/>
<path d="M8.75 23.7686H12.5" stroke="#0D2F81" stroke-width="1.5" stroke-linecap="round" stroke-linejoin="round"/>
<path d="M8.75 30.0186H12.5" stroke="#0D2F81" stroke-width="1.5" stroke-linecap="round" stroke-linejoin="round"/>
<path d="M15 38.7686H3.75C3.08696 38.7686 2.45107 38.5052 1.98223 38.0363C1.51339 37.5675 1.25 36.9316 1.25 36.2686V10.0186C1.25 9.35551 1.51339 8.71963 1.98223 8.25079C2.45107 7.78195 3.08696 7.51855 3.75 7.51855H10C10 5.86095 10.6585 4.27124 11.8306 3.09914C13.0027 1.92703 14.5924 1.26855 16.25 1.26855C17.9076 1.26855 19.4973 1.92703 20.6694 3.09914C21.8415 4.27124 22.5 5.86095 22.5 7.51855H28.75C29.413 7.51855 30.0489 7.78195 30.5178 8.25079C30.9866 8.71963 31.25 9.35551 31.25 10.0186V13.7686" stroke="#0D2F81" stroke-width="1.5" stroke-linecap="round" stroke-linejoin="round"/>
<path d="M16.25 6.26855C16.3736 6.26855 16.4945 6.30521 16.5972 6.37389C16.7 6.44256 16.7801 6.54017 16.8274 6.65438C16.8747 6.76858 16.8871 6.89425 16.863 7.01549C16.8389 7.13673 16.7794 7.24809 16.6919 7.3355C16.6045 7.42291 16.4932 7.48243 16.3719 7.50655C16.2507 7.53066 16.125 7.51829 16.0108 7.47098C15.8966 7.42368 15.799 7.34357 15.7303 7.24079C15.6617 7.13801 15.625 7.01717 15.625 6.89356C15.625 6.7278 15.6908 6.56882 15.8081 6.45161C15.9253 6.3344 16.0842 6.26855 16.25 6.26855" stroke="#0D2F81" stroke-width="1.5" stroke-linecap="round" stroke-linejoin="round"/>
<path d="M28.75 33.75C28.8736 33.75 28.9945 33.7867 29.0972 33.8553C29.2 33.924 29.2801 34.0216 29.3274 34.1358C29.3747 34.25 29.3871 34.3757 29.363 34.4969C29.3389 34.6182 29.2794 34.7295 29.1919 34.8169C29.1045 34.9044 28.9932 34.9639 28.8719 34.988C28.7507 35.0121 28.625 34.9997 28.5108 34.9524C28.3966 34.9051 28.299 34.825 28.2303 34.7222C28.1617 34.6195 28.125 34.4986 28.125 34.375C28.125 34.2092 28.1908 34.0503 28.3081 33.9331C28.4253 33.8158 28.5842 33.75 28.75 33.75Z" stroke="#0D2F81" stroke-width="1.5" stroke-linecap="round" stroke-linejoin="round"/>
<path d="M28.75 30V25" stroke="#0D2F81" stroke-width="1.5" stroke-linecap="round" stroke-linejoin="round"/>
<path d="M38.4383 34.47C38.6635 34.9209 38.7697 35.4218 38.7469 35.9253C38.7242 36.4288 38.5731 36.9181 38.3082 37.3468C38.0432 37.7756 37.6731 38.1295 37.233 38.3751C36.7929 38.6206 36.2973 38.7497 35.7933 38.75H21.7067C21.2027 38.7497 20.7071 38.6206 20.267 38.3751C19.8268 38.1295 19.4567 37.7756 19.1918 37.3468C18.9268 36.9181 18.7758 36.4288 18.753 35.9253C18.7302 35.4218 18.8365 34.9209 19.0617 34.47L26.105 20.3833C26.3509 19.8924 26.7285 19.4797 27.1957 19.1912C27.6628 18.9028 28.201 18.75 28.75 18.75C29.299 18.75 29.8372 18.9028 30.3043 19.1912C30.7714 19.4797 31.1491 19.8924 31.395 20.3833L38.4383 34.47Z" stroke="#0D2F81" stroke-width="1.5" stroke-linecap="round" stroke-linejoin="round"/>
</svg>