<svg xmlns="http://www.w3.org/2000/svg" width="24" height="24" viewBox="0 0 24 24" fill="none">
<g clip-path="url(#clip0)">
<path d="M11.4788 23.1C11.6359 23.2121 11.8278 23.2646 12.0201 23.2483C12.2125 23.232 12.3927 23.1479 12.5288 23.011L23.0098 12.529C23.1465 12.3928 23.2305 12.2126 23.2468 12.0203C23.2631 11.828 23.2106 11.6362 23.0988 11.479C22.608 10.7884 22.3444 9.96221 22.3444 9.115C22.3444 8.26779 22.608 7.44159 23.0988 6.751C23.2111 6.59376 23.2638 6.40169 23.2475 6.20913C23.2312 6.01658 23.147 5.83611 23.0098 5.7L18.2998 0.989C18.1635 0.85175 17.9829 0.767437 17.7901 0.751132C17.5974 0.734828 17.4052 0.787594 17.2478 0.9C16.5573 1.39054 15.7313 1.65407 14.8843 1.65407C14.0373 1.65407 13.2113 1.39054 12.5208 0.9C12.3635 0.788327 12.1717 0.735994 11.9795 0.752287C11.7873 0.768579 11.607 0.852445 11.4708 0.989L0.989781 11.471C0.853074 11.6071 0.769023 11.7873 0.752547 11.9795C0.736071 12.1717 0.788235 12.3636 0.899781 12.521C1.39054 13.2116 1.65421 14.0378 1.65421 14.885C1.65421 15.7322 1.39054 16.5584 0.899781 17.249C0.787575 17.4064 0.735015 17.5985 0.751505 17.791C0.767994 17.9836 0.852456 18.164 0.989781 18.3L5.69978 23.011C5.83608 23.1476 6.01649 23.2314 6.20881 23.2473C6.40113 23.2632 6.59285 23.2103 6.74978 23.098C7.44067 22.6073 8.26718 22.3439 9.1146 22.3442C9.96202 22.3446 10.7883 22.6087 11.4788 23.1V23.1Z" stroke="#1F1F1F" stroke-width="1.5" stroke-linecap="round" stroke-linejoin="round"/>
<path d="M18.794 10.7155L13.2843 5.2057C12.8937 4.81518 12.2606 4.81518 11.87 5.2057L5.20627 11.8695C4.81574 12.26 4.81574 12.8932 5.20627 13.2837L10.716 18.7935C11.1066 19.184 11.7397 19.184 12.1303 18.7935L18.794 12.1297C19.1846 11.7392 19.1846 11.106 18.794 10.7155Z" stroke="#1F1F1F" stroke-width="1.5" stroke-linecap="round" stroke-linejoin="round"/>
<path d="M12.5772 9.11499L9.11523 12.577" stroke="#1F1F1F" stroke-width="1.5" stroke-linecap="round" stroke-linejoin="round"/>
<path d="M13.7792 12.529L12.7012 13.607" stroke="#1F1F1F" stroke-width="1.5" stroke-linecap="round" stroke-linejoin="round"/>
</g>
<defs>
<clipPath id="clip0">
<rect width="24" height="24" fill="white"/>
</clipPath>
</defs>
</svg>