<svg xmlns="http://www.w3.org/2000/svg" width="24" height="24" viewBox="0 0 24 24" fill="none">
<path d="M6.65598 6.0439L10.724 7.2999L13.685 4.8499C13.7505 4.79005 13.8322 4.75073 13.9199 4.73681C14.0076 4.7229 14.0974 4.73499 14.1783 4.7716C14.2591 4.8082 14.3275 4.86772 14.3749 4.94277C14.4223 5.01783 14.4467 5.10514 14.445 5.1939L14.326 9.5319L18.017 11.5709C18.0942 11.6191 18.156 11.6885 18.195 11.7707C18.2341 11.8529 18.2488 11.9446 18.2375 12.0349C18.2261 12.1252 18.1891 12.2104 18.1309 12.2804C18.0727 12.3504 17.9957 12.4023 17.909 12.4299L13.873 13.8739L12.429 17.9099C12.4015 17.9967 12.3498 18.0738 12.2799 18.132C12.21 18.1903 12.1249 18.2273 12.0346 18.2387C11.9443 18.25 11.8526 18.2353 11.7705 18.1962C11.6883 18.157 11.6191 18.0952 11.571 18.0179L9.53098 14.3269L5.19298 14.4459C5.10422 14.4476 5.01692 14.4232 4.94186 14.3758C4.8668 14.3284 4.80729 14.2601 4.77068 14.1792C4.73408 14.0983 4.72198 14.0085 4.7359 13.9208C4.74982 13.8331 4.78913 13.7515 4.84898 13.6859L7.29998 10.7239L6.04398 6.6559C6.02138 6.57118 6.02145 6.48201 6.04419 6.39733C6.06692 6.31265 6.11153 6.23544 6.17353 6.17344C6.23553 6.11144 6.31274 6.06684 6.39742 6.0441C6.4821 6.02136 6.57127 6.02129 6.65598 6.0439V6.0439Z" stroke="#1F1F1F" stroke-opacity="0.7" stroke-width="1.5" stroke-linecap="round" stroke-linejoin="round"/>
<path d="M13.873 13.873L23.25 23.25" stroke="#1F1F1F" stroke-opacity="0.7" stroke-width="1.5" stroke-linecap="round" stroke-linejoin="round"/>
<path d="M18 2.25H21" stroke="#1F1F1F" stroke-opacity="0.7" stroke-width="1.5" stroke-linecap="round" stroke-linejoin="round"/>
<path d="M19.5 0.75V3.75" stroke="#1F1F1F" stroke-opacity="0.7" stroke-width="1.5" stroke-linecap="round" stroke-linejoin="round"/>
<path d="M2.25 20.25H5.25" stroke="#1F1F1F" stroke-opacity="0.7" stroke-width="1.5" stroke-linecap="round" stroke-linejoin="round"/>
<path d="M3.75 18.75V21.75" stroke="#1F1F1F" stroke-opacity="0.7" stroke-width="1.5" stroke-linecap="round" stroke-linejoin="round"/>
<path d="M9 3V0.75" stroke="#1F1F1F" stroke-opacity="0.7" stroke-width="1.5" stroke-linecap="round" stroke-linejoin="round"/>
<path d="M0.75 9.75H3" stroke="#1F1F1F" stroke-opacity="0.7" stroke-width="1.5" stroke-linecap="round" stroke-linejoin="round"/>
</svg>