<svg xmlns="http://www.w3.org/2000/svg" width="24" height="24" viewBox="0 0 24 24" fill="none">
<path d="M6.65598 6.04402L10.724 7.30002L13.685 4.85002C13.7505 4.79017 13.8322 4.75085 13.9199 4.73694C14.0076 4.72302 14.0974 4.73511 14.1783 4.77172C14.2591 4.80833 14.3275 4.86784 14.3749 4.9429C14.4223 5.01795 14.4467 5.10526 14.445 5.19402L14.326 9.53202L18.017 11.571C18.0942 11.6193 18.156 11.6886 18.195 11.7708C18.2341 11.853 18.2488 11.9447 18.2375 12.035C18.2261 12.1253 18.1891 12.2105 18.1309 12.2805C18.0727 12.3505 17.9957 12.4024 17.909 12.43L13.873 13.874L12.429 17.91C12.4015 17.9968 12.3498 18.0739 12.2799 18.1322C12.21 18.1904 12.1249 18.2274 12.0346 18.2388C11.9443 18.2502 11.8526 18.2354 11.7705 18.1963C11.6883 18.1572 11.6191 18.0953 11.571 18.018L9.53098 14.327L5.19298 14.446C5.10422 14.4477 5.01692 14.4234 4.94186 14.376C4.8668 14.3286 4.80729 14.2602 4.77068 14.1793C4.73408 14.0984 4.72198 14.0086 4.7359 13.9209C4.74982 13.8333 4.78913 13.7516 4.84898 13.686L7.29998 10.724L6.04398 6.65602C6.02138 6.5713 6.02145 6.48213 6.04419 6.39745C6.06692 6.31277 6.11153 6.23556 6.17353 6.17356C6.23553 6.11157 6.31274 6.06696 6.39742 6.04422C6.4821 6.02149 6.57127 6.02142 6.65598 6.04402V6.04402Z" stroke="#0D2F81" stroke-width="1.5" stroke-linecap="round" stroke-linejoin="round"/>
<path d="M13.873 13.873L23.25 23.25" stroke="#0D2F81" stroke-width="1.5" stroke-linecap="round" stroke-linejoin="round"/>
<path d="M18 2.25H21" stroke="#0D2F81" stroke-width="1.5" stroke-linecap="round" stroke-linejoin="round"/>
<path d="M19.5 0.75V3.75" stroke="#0D2F81" stroke-width="1.5" stroke-linecap="round" stroke-linejoin="round"/>
<path d="M2.25 20.25H5.25" stroke="#0D2F81" stroke-width="1.5" stroke-linecap="round" stroke-linejoin="round"/>
<path d="M3.75 18.75V21.75" stroke="#0D2F81" stroke-width="1.5" stroke-linecap="round" stroke-linejoin="round"/>
<path d="M9 3V0.75" stroke="#0D2F81" stroke-width="1.5" stroke-linecap="round" stroke-linejoin="round"/>
<path d="M0.75 9.75H3" stroke="#0D2F81" stroke-width="1.5" stroke-linecap="round" stroke-linejoin="round"/>
</svg>