<svg width="46" height="55" viewBox="0 0 46 55" fill="none" xmlns="http://www.w3.org/2000/svg">
<path d="M21.6135 1.34874C22.3593 0.917844 23.2785 0.917844 24.0243 1.34874L44.4335 13.1395C45.1787 13.5701 45.6378 14.3654 45.6378 15.2261V38.8104C45.6378 39.671 45.1787 40.4663 44.4335 40.8969L24.0243 52.6877C23.2785 53.1186 22.3593 53.1186 21.6135 52.6877L1.20426 40.8969C0.459029 40.4663 0 39.671 0 38.8104V15.2261C0 14.3654 0.459029 13.5701 1.20426 13.1396L21.6135 1.34874Z" fill="url(#paint0_linear_8435_44904)"/>
<g filter="url(#filter0_di_8435_44904)">
<path d="M22.8187 5.14502L41.7359 16.0815V37.9546L22.8187 48.8911L3.90149 37.9546V16.0815L22.8187 5.14502Z" fill="white"/>
</g>
<mask id="mask0_8435_44904" style="mask-type:alpha" maskUnits="userSpaceOnUse" x="3" y="5" width="39" height="44">
<path d="M22.8187 5.14844L41.7359 16.0849V37.958L22.8187 48.8945L3.90149 37.958V16.0849L22.8187 5.14844Z" fill="white"/>
</mask>
<g mask="url(#mask0_8435_44904)">
<g filter="url(#filter1_di_8435_44904)">
<path d="M18.1712 29.706C21.0466 28.0436 24.591 28.0436 27.4665 29.706L41.736 37.9556V59.8286L22.8188 70.7651L3.90161 59.8286V37.9556L18.1712 29.706Z" fill="white"/>
</g>
<path d="M30.0263 36.8137L29.6285 37.4086C29.2844 36.8245 28.711 36.2762 27.9082 35.8103C25.0842 34.1653 20.4969 34.1438 17.6585 35.7637C16.8736 36.2116 16.3038 36.7421 15.9526 37.3047L15.5333 36.7528L15.5261 38.0179C15.4938 39.1074 16.1927 40.2076 17.6334 41.0462C20.4574 42.6912 25.0448 42.7127 27.8832 41.0928C29.3023 40.2829 30.0155 39.2149 30.0191 38.1433L30.0263 36.8173V36.8137Z" fill="#F4A856"/>
<path d="M27.8897 39.7646C25.0513 41.3845 20.464 41.3666 17.64 39.718C14.8159 38.0731 14.8302 35.421 17.665 33.8011C20.5034 32.1812 25.0907 32.1992 27.9148 33.8477C30.7389 35.4927 30.7245 38.1447 27.8897 39.7646Z" fill="#FCCC6B"/>
<path d="M27.8897 39.7646C25.0513 41.3845 20.464 41.3666 17.64 39.718C14.8159 38.0731 14.8302 35.421 17.665 33.8011C20.5034 32.1812 25.0907 32.1992 27.9148 33.8477C30.7389 35.4927 30.7245 38.1447 27.8897 39.7646Z" fill="url(#paint1_radial_8435_44904)"/>
<path d="M22.8079 40.3545C21.2239 40.3545 19.6362 40.0033 18.4321 39.3009C17.2673 38.62 16.6258 37.7168 16.6294 36.7564C16.633 35.7959 17.2817 34.8963 18.4536 34.2262C20.8476 32.8571 24.736 32.8751 27.1193 34.2656C28.284 34.9465 28.9255 35.8496 28.922 36.8101C28.9184 37.7706 28.2697 38.6701 27.0978 39.3403C25.9115 40.0176 24.3597 40.3545 22.8079 40.3545ZM22.7434 33.3338C21.2131 33.3338 19.6828 33.6671 18.5145 34.3337C17.382 34.9788 16.7584 35.8425 16.7513 36.7564C16.7477 37.6702 17.3641 38.5375 18.493 39.1934C20.844 40.5624 24.6751 40.5803 27.0369 39.2328C28.1694 38.5877 28.7929 37.724 28.8001 36.8101C28.8037 35.8962 28.1873 35.029 27.0584 34.3731C25.8721 33.6814 24.306 33.3338 22.7434 33.3338Z" fill="#F4A856"/>
<path d="M27.0692 39.2884C24.686 40.6503 20.8369 40.6324 18.4644 39.249C16.0955 37.8657 16.1063 35.6437 18.4859 34.2818C20.8692 32.92 24.7182 32.9379 27.0907 34.3213C29.4596 35.7046 29.4489 37.9266 27.0692 39.2884Z" fill="url(#paint2_radial_8435_44904)"/>
<path d="M18.4856 34.5721C20.8689 33.2103 24.7179 33.2282 27.0904 34.6115C28.2122 35.2638 28.7999 36.106 28.8573 36.959C28.9289 36.0128 28.3412 35.0488 27.094 34.3213C24.7251 32.9379 20.8725 32.92 18.4892 34.2818C17.2349 34.9986 16.64 35.9555 16.7009 36.9016C16.7654 36.0522 17.3603 35.2136 18.4856 34.5721Z" fill="#F4A856"/>
<path d="M27.8906 39.4867C25.0522 41.1066 20.4649 41.0887 17.6408 39.4401C16.2897 38.6517 15.5909 37.6339 15.5371 36.6089C15.469 37.7235 16.1679 38.856 17.6408 39.7161C20.4649 41.3611 25.0522 41.3826 27.8906 39.7627C29.3707 38.9169 30.0803 37.7916 30.0194 36.677C29.9549 37.702 29.2489 38.7126 27.8906 39.4867Z" fill="#FCE586"/>
<path d="M30.9308 34.988L30.533 35.583C30.189 34.9988 29.6156 34.4505 28.8128 33.9846C25.9887 32.3396 21.4014 32.3181 18.563 33.938C17.7782 34.386 17.2083 34.9164 16.8571 35.479L16.4378 34.9271L16.4306 36.1922C16.3984 37.2817 17.0972 38.3819 18.5379 39.2206C21.362 40.8655 25.9493 40.887 28.7877 39.2671C30.2069 38.4572 30.9201 37.3892 30.9237 36.3176L30.9308 34.9916V34.988Z" fill="#F4A856"/>
<path d="M28.7943 37.9394C25.9559 39.5593 21.3686 39.5414 18.5445 37.8928C15.7204 36.2479 15.7348 33.5958 18.5696 31.9759C21.408 30.356 25.9953 30.374 28.8193 32.0225C31.6434 33.6675 31.6291 36.3195 28.7943 37.9394Z" fill="#FCCC6B"/>
<path d="M28.7943 37.9394C25.9559 39.5593 21.3686 39.5414 18.5445 37.8928C15.7204 36.2479 15.7348 33.5958 18.5696 31.9759C21.408 30.356 25.9953 30.374 28.8193 32.0225C31.6434 33.6675 31.6291 36.3195 28.7943 37.9394Z" fill="url(#paint3_radial_8435_44904)"/>
<path d="M23.7125 38.5293C22.1284 38.5293 20.5408 38.1781 19.3366 37.4757C18.1719 36.7948 17.5304 35.8916 17.534 34.9312C17.5375 33.9707 18.1862 33.0712 19.3581 32.401C21.7521 31.032 25.6406 31.0499 28.0238 32.4404C29.1886 33.1213 29.8301 34.0244 29.8265 34.9849C29.8229 35.9454 29.1742 36.8449 28.0023 37.5151C26.8161 38.1925 25.2643 38.5293 23.7125 38.5293ZM23.648 31.5086C22.1177 31.5086 20.5874 31.8419 19.419 32.5085C18.2866 33.1536 17.663 34.0173 17.6558 34.9312C17.6522 35.845 18.2686 36.7123 19.3975 37.3682C21.7485 38.7372 25.5797 38.7551 27.9414 37.4076C29.0739 36.7625 29.6975 35.8988 29.7046 34.9849C29.7082 34.071 29.0918 33.2038 27.9629 32.5479C26.7767 31.8562 25.2105 31.5086 23.648 31.5086Z" fill="#F4A856"/>
<path d="M27.9739 37.4633C25.5906 38.8251 21.7416 38.8072 19.3691 37.4238C17.0002 36.0405 17.0109 33.8185 19.3906 32.4566C21.7739 31.0948 25.6229 31.1127 27.9954 32.4961C30.3643 33.8794 30.3536 36.1014 27.9739 37.4633Z" fill="url(#paint4_radial_8435_44904)"/>
<path d="M19.3903 32.7469C21.7736 31.3851 25.6226 31.403 27.9951 32.7863C29.1168 33.4386 29.7046 34.2808 29.7619 35.1338C29.8336 34.1876 29.2459 33.2236 27.9987 32.4961C25.6298 31.1127 21.7771 31.0948 19.3939 32.4566C18.1396 33.1734 17.5446 34.1303 17.6056 35.0764C17.6701 34.227 18.265 33.3884 19.3903 32.7469Z" fill="#F4A856"/>
<path d="M28.7951 37.6615C25.9567 39.2814 21.3694 39.2635 18.5454 37.6149C17.1943 36.8265 16.4954 35.8087 16.4417 34.7837C16.3736 35.8983 17.0724 37.0308 18.5454 37.8909C21.3694 39.5359 25.9567 39.5574 28.7951 37.9375C30.2753 37.0917 30.9849 35.9664 30.9239 34.8518C30.8594 35.8768 30.1534 36.8874 28.7951 37.6615Z" fill="#FCE586"/>
<path d="M30.0185 33.1629L29.6207 33.7578C29.2766 33.1736 28.7032 32.6253 27.9004 32.1594C25.0764 30.5144 20.4891 30.4929 17.6507 32.1128C16.8658 32.5608 16.296 33.0912 15.9448 33.6538L15.5254 33.1019L15.5183 34.367C15.486 35.4565 16.1849 36.5567 17.6256 37.3954C20.4496 39.0403 25.0369 39.0618 27.8753 37.442C29.2945 36.632 30.0077 35.564 30.0113 34.4925L30.0185 33.1664V33.1629Z" fill="#F4A856"/>
<path d="M27.8819 36.1137C25.0435 37.7336 20.4562 37.7157 17.6321 36.0672C14.8081 34.4222 14.8224 31.7701 17.6572 30.1502C20.4956 28.5304 25.0829 28.5483 27.907 30.1968C30.7311 31.8418 30.7167 34.4939 27.8819 36.1137Z" fill="#FCCC6B"/>
<path d="M27.8819 36.1137C25.0435 37.7336 20.4562 37.7157 17.6321 36.0672C14.8081 34.4222 14.8224 31.7701 17.6572 30.1502C20.4956 28.5304 25.0829 28.5483 27.907 30.1968C30.7311 31.8418 30.7167 34.4939 27.8819 36.1137Z" fill="url(#paint5_radial_8435_44904)"/>
<path d="M22.8001 36.7036C21.2161 36.7036 19.6284 36.3524 18.4243 35.65C17.2595 34.9691 16.618 34.0659 16.6216 33.1055C16.6252 32.145 17.2739 31.2455 18.4458 30.5753C20.8398 29.2063 24.7282 29.2242 27.1115 30.6147C28.2762 31.2956 28.9177 32.1988 28.9141 33.1592C28.9106 34.1197 28.2619 35.0192 27.09 35.6894C25.9037 36.3668 24.3519 36.7036 22.8001 36.7036ZM22.7356 29.6829C21.2053 29.6829 19.675 30.0162 18.5067 30.6828C17.3742 31.3279 16.7506 32.1916 16.7434 33.1055C16.7399 34.0194 17.3563 34.8866 18.4852 35.5425C20.8362 36.9115 24.6673 36.9294 27.029 35.5819C28.1615 34.9368 28.7851 34.0731 28.7923 33.1592C28.7959 32.2454 28.1795 31.3781 27.0506 30.7222C25.8643 30.0305 24.2982 29.6829 22.7356 29.6829Z" fill="#F4A856"/>
<path d="M27.0614 35.6376C24.6782 36.9994 20.8291 36.9815 18.4566 35.5981C16.0877 34.2148 16.0985 31.9928 18.4781 30.631C20.8614 29.2691 24.7104 29.287 27.0829 30.6704C29.4518 32.0537 29.4411 34.2757 27.0614 35.6376Z" fill="url(#paint6_radial_8435_44904)"/>
<path d="M18.478 30.9212C20.8612 29.5594 24.7102 29.5773 27.0827 30.9607C28.2045 31.6129 28.7922 32.4551 28.8496 33.3081C28.9212 32.3619 28.3335 31.3979 27.0863 30.6704C24.7174 29.287 20.8648 29.2691 18.4815 30.631C17.2272 31.3477 16.6323 32.3046 16.6932 33.2507C16.7577 32.4014 17.3526 31.5627 18.478 30.9212Z" fill="#F4A856"/>
<path d="M27.8828 35.8358C25.0444 37.4557 20.4571 37.4378 17.633 35.7892C16.2819 35.0008 15.5831 33.983 15.5293 32.958C15.4612 34.0726 16.1601 35.2051 17.633 36.0652C20.4571 37.7102 25.0444 37.7317 27.8828 36.1118C29.3629 35.266 30.0725 34.1407 30.0116 33.0261C29.9471 34.0511 29.2411 35.0617 27.8828 35.8358Z" fill="#FCE586"/>
<path d="M30.9308 31.3372L30.533 31.9321C30.189 31.3479 29.6156 30.7996 28.8128 30.3337C25.9887 28.6887 21.4014 28.6672 18.563 30.2871C17.7782 30.7351 17.2083 31.2655 16.8571 31.8282L16.4378 31.2762L16.4306 32.5413C16.3984 33.6308 17.0972 34.7311 18.5379 35.5697C21.362 37.2147 25.9493 37.2362 28.7877 35.6163C30.2069 34.8063 30.9201 33.7383 30.9237 32.6668L30.9308 31.3408V31.3372Z" fill="#F4A856"/>
<path d="M28.7947 34.2881C25.9564 35.908 21.369 35.89 18.545 34.2415C15.7209 32.5965 15.7353 29.9445 18.5701 28.3246C21.4085 26.7047 25.9958 26.7226 28.8198 28.3712C31.6439 30.0161 31.6296 32.6682 28.7947 34.2881Z" fill="#FCCC6B"/>
<path d="M28.7947 34.2881C25.9564 35.908 21.369 35.89 18.545 34.2415C15.7209 32.5965 15.7353 29.9445 18.5701 28.3246C21.4085 26.7047 25.9958 26.7226 28.8198 28.3712C31.6439 30.0161 31.6296 32.6682 28.7947 34.2881Z" fill="url(#paint7_radial_8435_44904)"/>
<path d="M23.7125 34.878C22.1284 34.878 20.5408 34.5267 19.3366 33.8243C18.1719 33.1434 17.5304 32.2403 17.534 31.2798C17.5375 30.3193 18.1862 29.4198 19.3581 28.7496C21.7521 27.3806 25.6406 27.3985 28.0238 28.789C29.1886 29.47 29.8301 30.3731 29.8265 31.3335C29.8229 32.294 29.1742 33.1936 28.0023 33.8637C26.8161 34.5411 25.2643 34.878 23.7125 34.878ZM23.648 27.8572C22.1177 27.8572 20.5874 28.1905 19.419 28.8571C18.2866 29.5022 17.663 30.3659 17.6558 31.2798C17.6522 32.1937 18.2686 33.061 19.3975 33.7168C21.7485 35.0858 25.5797 35.1037 27.9414 33.7562C29.0739 33.1111 29.6975 32.2474 29.7046 31.3335C29.7082 30.4197 29.0918 29.5524 27.9629 28.8965C26.7767 28.2049 25.2105 27.8572 23.648 27.8572Z" fill="#F4A856"/>
<path d="M27.9739 33.8124C25.5906 35.1742 21.7416 35.1563 19.3691 33.773C17.0002 32.3896 17.0109 30.1676 19.3906 28.8058C21.7739 27.4439 25.6229 27.4618 27.9954 28.8452C30.3643 30.2285 30.3536 32.4505 27.9739 33.8124Z" fill="url(#paint8_radial_8435_44904)"/>
<path d="M19.3903 29.096C21.7736 27.7342 25.6226 27.7521 27.9951 29.1355C29.1168 29.7877 29.7046 30.6299 29.7619 31.4829C29.8336 30.5367 29.2459 29.5727 27.9987 28.8452C25.6298 27.4618 21.7771 27.4439 19.3939 28.8058C18.1396 29.5225 17.5446 30.4794 17.6056 31.4255C17.6701 30.5762 18.265 29.7376 19.3903 29.096Z" fill="#F4A856"/>
<path d="M28.7956 34.0101C25.9572 35.63 21.3699 35.6121 18.5459 33.9636C17.1948 33.1751 16.4959 32.1573 16.4422 31.1323C16.3741 32.2469 17.0729 33.3794 18.5459 34.2395C21.3699 35.8845 25.9572 35.906 28.7956 34.2861C30.2758 33.4403 30.9854 32.315 30.9244 31.2004C30.8599 32.2254 30.1539 33.236 28.7956 34.0101Z" fill="#FCE586"/>
<path d="M26.6237 18.2512C26.6237 18.2512 26.6225 18.2505 26.6216 18.2502L26.6124 18.2466C26.2292 18.0904 25.7071 18.1993 25.142 18.5255C24.0011 19.1842 23.0275 20.5302 23.0275 22.0394V23.6819C23.0275 24.4676 23.2917 24.9033 23.7058 25.0489L25.5915 26.1339L28.6711 19.41L26.624 18.2512H26.6237Z" fill="url(#paint9_linear_8435_44904)"/>
<path d="M28.0013 20.6455H26.0063V24.6909H28.0013V20.6455Z" fill="url(#paint10_linear_8435_44904)"/>
<path d="M27.1012 19.6398C25.9604 20.2986 24.9867 21.6445 24.9867 23.1537V24.7962C24.9867 26.3054 25.9604 26.5269 27.1012 25.8685C28.2421 25.2097 29.2084 23.8763 29.2084 22.3588V20.7163C29.2084 19.2071 28.2421 18.9813 27.1012 19.6401V19.6398ZM27.8351 23.0933C27.8351 23.7353 27.5806 24.1905 27.1012 24.4676C26.6216 24.7444 26.3601 24.5869 26.3601 23.9449V22.419C26.3601 21.777 26.6216 21.3174 27.1012 21.0407C27.5809 20.7639 27.8351 20.9253 27.8351 21.5673V23.0933Z" fill="url(#paint11_linear_8435_44904)"/>
<path d="M20.0258 16.215C20.0258 16.215 20.0246 16.2144 20.0237 16.2141L20.0145 16.2104C19.6313 16.0542 19.1092 16.1632 18.5441 16.4893C17.4032 17.1481 16.4296 18.494 16.4296 20.0032V21.6457C16.4296 22.4315 16.6938 22.8675 17.1079 23.0127L19.0595 24.1246L22.0528 17.3617L20.0261 16.215H20.0258Z" fill="url(#paint12_linear_8435_44904)"/>
<path d="M24.591 13.2487L24.587 13.2471C24.5421 13.2273 24.4903 13.2163 24.4302 13.2163C24.3282 13.2166 24.2266 13.2422 24.1177 13.3051C23.9871 13.3805 23.8779 13.4851 23.7689 13.6316C23.6237 13.8324 23.5654 13.9743 23.4202 14.3917L19.0602 26.8642C18.9293 27.2484 18.8787 27.411 18.8787 27.5779C18.8787 27.8205 18.961 27.9596 19.1487 28.0374L21.0368 29.1158L26.5804 14.3795L24.591 13.2487Z" fill="url(#paint13_linear_8435_44904)"/>
<path d="M26.5701 15.502L22.2105 27.9748C22.0652 28.3922 22.007 28.5341 21.8617 28.7349C21.7528 28.8814 21.6435 28.986 21.513 29.0614C21.404 29.1242 21.3021 29.1496 21.2005 29.1502C20.9537 29.1511 20.8374 28.968 20.8374 28.6928C20.8374 28.5262 20.8884 28.3632 21.019 27.9791L25.3786 15.5059C25.5239 15.0885 25.5821 14.9466 25.7274 14.7459C25.8363 14.5994 25.9455 14.495 26.0761 14.4194C26.1851 14.3565 26.287 14.3312 26.3886 14.3306C26.6354 14.3297 26.752 14.5127 26.752 14.788C26.752 14.9546 26.701 15.1175 26.5704 15.5017L26.5701 15.502Z" fill="url(#paint14_linear_8435_44904)"/>
<path d="M21.4035 18.6099H19.4086V22.6553H21.4035V18.6099Z" fill="url(#paint15_linear_8435_44904)"/>
<path d="M20.5033 17.6042C19.3625 18.263 18.3888 19.6089 18.3888 21.1181V22.7606C18.3888 24.2698 19.3625 24.4913 20.5033 23.8328C21.6442 23.174 22.6105 21.8406 22.6105 20.3232V18.6807C22.6105 17.1715 21.6442 16.9457 20.5033 17.6045V17.6042ZM21.2372 21.0577C21.2372 21.6996 20.9827 22.1549 20.5033 22.432C20.0237 22.7087 19.7622 22.5513 19.7622 21.9093V20.3833C19.7622 19.7413 20.0237 19.2818 20.5033 19.005C20.983 18.7283 21.2372 18.8897 21.2372 19.5317V21.0577Z" fill="url(#paint16_linear_8435_44904)"/>
<mask id="mask1_8435_44904" style="mask-type:luminance" maskUnits="userSpaceOnUse" x="24" y="19" width="6" height="8">
<path d="M27.1012 19.6398C25.9604 20.2986 24.9867 21.6445 24.9867 23.1537V24.7962C24.9867 26.3054 25.9604 26.5269 27.1012 25.8685C28.2421 25.2097 29.2084 23.8763 29.2084 22.3588V20.7163C29.2084 19.2071 28.2421 18.9813 27.1012 19.6401V19.6398ZM27.8351 23.0933C27.8351 23.7353 27.5806 24.1905 27.1012 24.4676C26.6216 24.7444 26.3601 24.5869 26.3601 23.9449V22.419C26.3601 21.777 26.6216 21.3174 27.1012 21.0407C27.5809 20.7639 27.8351 20.9253 27.8351 21.5673V23.0933Z" fill="white"/>
</mask>
<g mask="url(#mask1_8435_44904)">
<path opacity="0.2" d="M29.1223 16.556L21.8781 27.6772L23.0033 28.4102L30.2475 17.289L29.1223 16.556Z" fill="white"/>
<path opacity="0.2" d="M31.0048 17.5599L23.7606 28.6812L24.8858 29.4141L32.13 18.2929L31.0048 17.5599Z" fill="white"/>
</g>
<mask id="mask2_8435_44904" style="mask-type:luminance" maskUnits="userSpaceOnUse" x="18" y="17" width="5" height="8">
<path d="M20.5033 17.6042C19.3625 18.263 18.3888 19.6089 18.3888 21.1181V22.7606C18.3888 24.2698 19.3625 24.4913 20.5033 23.8328C21.6442 23.174 22.6105 21.8406 22.6105 20.3232V18.6807C22.6105 17.1715 21.6442 16.9457 20.5033 17.6045V17.6042ZM21.2372 21.0577C21.2372 21.6996 20.9827 22.1549 20.5033 22.432C20.0237 22.7087 19.7622 22.5513 19.7622 21.9093V20.3833C19.7622 19.7413 20.0237 19.2818 20.5033 19.005C20.983 18.7283 21.2372 18.8897 21.2372 19.5317V21.0577Z" fill="white"/>
</mask>
<g mask="url(#mask2_8435_44904)">
<path opacity="0.2" d="M22.7517 14.204L15.5074 25.3252L16.6326 26.0582L23.8769 14.9369L22.7517 14.204Z" fill="white"/>
<path opacity="0.2" d="M24.6346 15.2074L17.3904 26.3286L18.5156 27.0616L25.7598 15.9403L24.6346 15.2074Z" fill="white"/>
</g>
</g>
<path d="M23.5732 5.23296C23.1064 4.96309 22.531 4.96309 22.0642 5.23296L4.35297 15.4723C3.88699 15.7417 3.6 16.2391 3.6 16.7773V37.2588C3.6 37.797 3.88699 38.2944 4.35297 38.5638L22.0642 48.8031C22.531 49.073 23.1064 49.073 23.5732 48.8031L41.2844 38.5638C41.7504 38.2944 42.0374 37.797 42.0374 37.2588V16.7773C42.0374 16.2391 41.7504 15.7417 41.2844 15.4723L23.5732 5.23296Z" stroke="white" stroke-width="0.602986"/>
<defs>
<filter id="filter0_di_8435_44904" x="1.97193" y="3.21546" width="41.6936" height="47.6052" filterUnits="userSpaceOnUse" color-interpolation-filters="sRGB">
<feFlood flood-opacity="0" result="BackgroundImageFix"/>
<feColorMatrix in="SourceAlpha" type="matrix" values="0 0 0 0 0 0 0 0 0 0 0 0 0 0 0 0 0 0 127 0" result="hardAlpha"/>
<feOffset/>
<feGaussianBlur stdDeviation="0.964778"/>
<feComposite in2="hardAlpha" operator="out"/>
<feColorMatrix type="matrix" values="0 0 0 0 0 0 0 0 0 0 0 0 0 0 0 0 0 0 0.25 0"/>
<feBlend mode="normal" in2="BackgroundImageFix" result="effect1_dropShadow_8435_44904"/>
<feBlend mode="normal" in="SourceGraphic" in2="effect1_dropShadow_8435_44904" result="shape"/>
<feColorMatrix in="SourceAlpha" type="matrix" values="0 0 0 0 0 0 0 0 0 0 0 0 0 0 0 0 0 0 127 0" result="hardAlpha"/>
<feOffset/>
<feGaussianBlur stdDeviation="1.50747"/>
<feComposite in2="hardAlpha" operator="arithmetic" k2="-1" k3="1"/>
<feColorMatrix type="matrix" values="0 0 0 0 0.0799999 0 0 0 0 0 0 0 0 0 1 0 0 0 0.2 0"/>
<feBlend mode="normal" in2="shape" result="effect2_innerShadow_8435_44904"/>
</filter>
<filter id="filter1_di_8435_44904" x="-0.439888" y="24.1175" width="46.5175" height="50.9892" filterUnits="userSpaceOnUse" color-interpolation-filters="sRGB">
<feFlood flood-opacity="0" result="BackgroundImageFix"/>
<feColorMatrix in="SourceAlpha" type="matrix" values="0 0 0 0 0 0 0 0 0 0 0 0 0 0 0 0 0 0 127 0" result="hardAlpha"/>
<feOffset/>
<feGaussianBlur stdDeviation="2.17075"/>
<feComposite in2="hardAlpha" operator="out"/>
<feColorMatrix type="matrix" values="0 0 0 0 0.0799999 0 0 0 0 0 0 0 0 0 1 0 0 0 0.2 0"/>
<feBlend mode="normal" in2="BackgroundImageFix" result="effect1_dropShadow_8435_44904"/>
<feBlend mode="normal" in="SourceGraphic" in2="effect1_dropShadow_8435_44904" result="shape"/>
<feColorMatrix in="SourceAlpha" type="matrix" values="0 0 0 0 0 0 0 0 0 0 0 0 0 0 0 0 0 0 127 0" result="hardAlpha"/>
<feOffset/>
<feGaussianBlur stdDeviation="2.05015"/>
<feComposite in2="hardAlpha" operator="arithmetic" k2="-1" k3="1"/>
<feColorMatrix type="matrix" values="0 0 0 0 0 0 0 0 0 0 0 0 0 0 0 0 0 0 0.25 0"/>
<feBlend mode="normal" in2="shape" result="effect2_innerShadow_8435_44904"/>
</filter>
<linearGradient id="paint0_linear_8435_44904" x1="25.6321" y1="18.9761" x2="11.6435" y2="25.5339" gradientUnits="userSpaceOnUse">
<stop stop-color="#FFD600"/>
<stop offset="1" stop-color="#D9B600"/>
</linearGradient>
<radialGradient id="paint1_radial_8435_44904" cx="0" cy="0" r="1" gradientUnits="userSpaceOnUse" gradientTransform="translate(18.6107 34.3918) rotate(-17.07) scale(10.3501 10.3501)">
<stop stop-color="#FCE586"/>
<stop offset="0.23" stop-color="#FCDB7B"/>
<stop offset="0.62" stop-color="#FCCF6F"/>
<stop offset="1" stop-color="#FCCC6B"/>
</radialGradient>
<radialGradient id="paint2_radial_8435_44904" cx="0" cy="0" r="1" gradientUnits="userSpaceOnUse" gradientTransform="translate(26.1256 41.7721) rotate(-17.07) scale(24.6174 24.6174)">
<stop stop-color="#FCE586"/>
<stop offset="0.23" stop-color="#FCDB7B"/>
<stop offset="0.62" stop-color="#FCCF6F"/>
<stop offset="1" stop-color="#FCCC6B"/>
</radialGradient>
<radialGradient id="paint3_radial_8435_44904" cx="0" cy="0" r="1" gradientUnits="userSpaceOnUse" gradientTransform="translate(19.5153 32.5666) rotate(-17.07) scale(10.3501 10.3501)">
<stop stop-color="#FCE586"/>
<stop offset="0.23" stop-color="#FCDB7B"/>
<stop offset="0.62" stop-color="#FCCF6F"/>
<stop offset="1" stop-color="#FCCC6B"/>
</radialGradient>
<radialGradient id="paint4_radial_8435_44904" cx="0" cy="0" r="1" gradientUnits="userSpaceOnUse" gradientTransform="translate(27.0303 39.9469) rotate(-17.07) scale(24.6174 24.6174)">
<stop stop-color="#FCE586"/>
<stop offset="0.23" stop-color="#FCDB7B"/>
<stop offset="0.62" stop-color="#FCCF6F"/>
<stop offset="1" stop-color="#FCCC6B"/>
</radialGradient>
<radialGradient id="paint5_radial_8435_44904" cx="0" cy="0" r="1" gradientUnits="userSpaceOnUse" gradientTransform="translate(18.6029 30.7409) rotate(-17.07) scale(10.3501 10.3501)">
<stop stop-color="#FCE586"/>
<stop offset="0.23" stop-color="#FCDB7B"/>
<stop offset="0.62" stop-color="#FCCF6F"/>
<stop offset="1" stop-color="#FCCC6B"/>
</radialGradient>
<radialGradient id="paint6_radial_8435_44904" cx="0" cy="0" r="1" gradientUnits="userSpaceOnUse" gradientTransform="translate(26.1178 38.1213) rotate(-17.07) scale(24.6174 24.6174)">
<stop stop-color="#FCE586"/>
<stop offset="0.23" stop-color="#FCDB7B"/>
<stop offset="0.62" stop-color="#FCCF6F"/>
<stop offset="1" stop-color="#FCCC6B"/>
</radialGradient>
<radialGradient id="paint7_radial_8435_44904" cx="0" cy="0" r="1" gradientUnits="userSpaceOnUse" gradientTransform="translate(19.5158 28.9152) rotate(-17.07) scale(10.3501 10.3501)">
<stop stop-color="#FCE586"/>
<stop offset="0.23" stop-color="#FCDB7B"/>
<stop offset="0.62" stop-color="#FCCF6F"/>
<stop offset="1" stop-color="#FCCC6B"/>
</radialGradient>
<radialGradient id="paint8_radial_8435_44904" cx="0" cy="0" r="1" gradientUnits="userSpaceOnUse" gradientTransform="translate(27.0303 36.2961) rotate(-17.07) scale(24.6174 24.6174)">
<stop stop-color="#FCE586"/>
<stop offset="0.23" stop-color="#FCDB7B"/>
<stop offset="0.62" stop-color="#FCCF6F"/>
<stop offset="1" stop-color="#FCCC6B"/>
</radialGradient>
<linearGradient id="paint9_linear_8435_44904" x1="23.519" y1="24.9585" x2="27.2096" y2="18.5661" gradientUnits="userSpaceOnUse">
<stop stop-color="#4457A4"/>
<stop offset="0.79" stop-color="#62E594"/>
</linearGradient>
<linearGradient id="paint10_linear_8435_44904" x1="25.8785" y1="24.6171" x2="28.1292" y2="20.7194" gradientUnits="userSpaceOnUse">
<stop stop-color="#62E594"/>
<stop offset="0.84" stop-color="#4457A4"/>
</linearGradient>
<linearGradient id="paint11_linear_8435_44904" x1="29.6622" y1="19.4558" x2="18.7067" y2="33.5674" gradientUnits="userSpaceOnUse">
<stop stop-color="#E1FFED"/>
<stop offset="0.39" stop-color="#62E594"/>
<stop offset="1" stop-color="#29A7DE"/>
</linearGradient>
<linearGradient id="paint12_linear_8435_44904" x1="16.9516" y1="22.9401" x2="20.6425" y2="16.5477" gradientUnits="userSpaceOnUse">
<stop stop-color="#4457A4"/>
<stop offset="0.67" stop-color="#62E594"/>
</linearGradient>
<linearGradient id="paint13_linear_8435_44904" x1="18.6971" y1="27.7821" x2="26.4713" y2="14.3167" gradientUnits="userSpaceOnUse">
<stop stop-color="#4457A4"/>
<stop offset="0.67" stop-color="#62E594"/>
</linearGradient>
<linearGradient id="paint14_linear_8435_44904" x1="27.1075" y1="17.4728" x2="16.1523" y2="31.5844" gradientUnits="userSpaceOnUse">
<stop stop-color="#E1FFED"/>
<stop offset="0.39" stop-color="#62E594"/>
<stop offset="1" stop-color="#29A7DE"/>
</linearGradient>
<linearGradient id="paint15_linear_8435_44904" x1="19.281" y1="22.5818" x2="21.5314" y2="18.6837" gradientUnits="userSpaceOnUse">
<stop stop-color="#62E594"/>
<stop offset="0.84" stop-color="#4457A4"/>
</linearGradient>
<linearGradient id="paint16_linear_8435_44904" x1="24.5591" y1="15.4942" x2="13.6039" y2="29.6058" gradientUnits="userSpaceOnUse">
<stop stop-color="#E1FFED"/>
<stop offset="0.39" stop-color="#62E594"/>
<stop offset="1" stop-color="#29A7DE"/>
</linearGradient>
</defs>
</svg>
