<svg width="48" height="57" viewBox="0 0 48 57" fill="none" xmlns="http://www.w3.org/2000/svg">
<path d="M21.9635 1.95686C23.118 1.29655 24.5358 1.29655 25.6904 1.95686L45.7639 13.4375C46.9327 14.1059 47.6538 15.3492 47.6538 16.6956V39.5957C47.6538 40.9421 46.9327 42.1854 45.7639 42.8539L25.6904 54.3344C24.5358 54.9948 23.118 54.9948 21.9635 54.3344L1.88997 42.8539C0.721189 42.1854 0 40.9421 0 39.5957V16.6956C0 15.3492 0.721191 14.1059 1.88997 13.4375L21.9635 1.95686Z" fill="url(#paint0_linear_8435_44896)"/>
<g filter="url(#filter0_di_8435_44896)">
<path d="M23.8265 5.53467L43.5794 16.8398V39.4501L23.8265 50.7552L4.07361 39.4501V16.8398L23.8265 5.53467Z" fill="white"/>
</g>
<mask id="mask0_8435_44896" style="mask-type:alpha" maskUnits="userSpaceOnUse" x="4" y="5" width="40" height="46">
<path d="M23.8265 5.53906L43.5794 16.8442V39.4545L23.8265 50.7596L4.07361 39.4545V16.8442L23.8265 5.53906Z" fill="white"/>
</mask>
<g mask="url(#mask0_8435_44896)">
<g filter="url(#filter1_di_8435_44896)">
<path d="M16.6416 32.2585C21.0927 29.711 26.56 29.711 31.0111 32.2585L43.5793 39.4516V62.0619L23.8264 73.367L4.07349 62.0619V39.4516L16.6416 32.2585Z" fill="white"/>
</g>
<g opacity="0.2">
<path d="M25.479 4.06348L25.4836 4.52539C25.0847 4.34062 24.5738 4.25748 23.9719 4.30136C21.8512 4.4561 19.3807 6.11666 18.4522 8.01279C18.1955 8.53706 18.0859 9.02437 18.1046 9.45395L17.6753 9.31307L18.1372 9.98745C18.5221 10.5764 19.3013 10.9067 20.3838 10.8281C22.5045 10.6734 24.975 9.01283 25.9036 7.11669C26.3678 6.16978 26.3561 5.34296 25.9642 4.7702L25.479 4.06348Z" fill="#F4A856"/>
<path d="M23.1046 8.91743C25.2599 7.4685 26.3223 5.29564 25.4775 4.0642C24.6328 2.83277 22.2009 3.00909 20.0456 4.45802C17.8904 5.90695 16.828 8.07982 17.6727 9.31125C18.5174 10.5427 20.9494 10.3664 23.1046 8.91743Z" fill="#FCCC6B"/>
<path d="M23.1046 8.91743C25.2599 7.4685 26.3223 5.29564 25.4775 4.0642C24.6328 2.83277 22.2009 3.00909 20.0456 4.45802C17.8904 5.90695 16.828 8.07982 17.6727 9.31125C18.5174 10.5427 20.9494 10.3664 23.1046 8.91743Z" fill="url(#paint1_radial_8435_44896)"/>
<path d="M22.9087 8.57393C22.0572 9.15132 21.0774 9.54394 20.1722 9.60861C19.295 9.67096 18.6208 9.42384 18.2685 8.91343C17.9162 8.40071 17.9349 7.68707 18.3175 6.90413C19.099 5.30362 21.1917 3.89711 22.9834 3.76777C23.8606 3.70541 24.5348 3.95254 24.887 4.46294C25.2393 4.97566 25.2207 5.68931 24.8381 6.47225C24.4508 7.26442 23.7416 8.00809 22.9087 8.57393ZM20.2888 4.8648C19.4676 5.42371 18.7678 6.15584 18.3875 6.93877C18.0189 7.69399 17.9979 8.37993 18.3338 8.86724C18.6698 9.35456 19.3183 9.59013 20.1652 9.53008C21.9312 9.40306 23.9935 8.01502 24.7657 6.4376C25.1343 5.68238 25.1553 4.99645 24.8194 4.50683C24.4858 4.01951 23.8349 3.78394 22.988 3.8463C22.0969 3.91096 21.1287 4.29666 20.2888 4.86711V4.8648Z" fill="#F4A856"/>
<path d="M22.8596 8.56221C24.6695 7.34545 25.5617 5.52076 24.8523 4.48665C24.1429 3.45255 22.1007 3.60061 20.2908 4.81737C18.4809 6.03413 17.5887 7.85882 18.2981 8.89293C19.0075 9.92703 21.0497 9.77897 22.8596 8.56221Z" fill="url(#paint2_radial_8435_44896)"/>
<path d="M18.4576 7.07345C19.2345 5.48218 21.3085 4.08721 23.0909 3.95788C23.933 3.89783 24.5583 4.13109 24.9012 4.56067C24.5909 4.03178 23.9214 3.73385 22.9835 3.80083C21.2035 3.93016 19.1272 5.32513 18.3503 6.9164C17.9397 7.75477 17.9724 8.47996 18.355 8.96035C18.0774 8.48458 18.089 7.82405 18.4553 7.07114L18.4576 7.07345Z" fill="#F4A856"/>
<path d="M25.3156 6.261C24.3894 8.15714 21.9188 9.8177 19.7959 9.97244C18.781 10.0463 18.0298 9.75996 17.6239 9.2357C17.9972 9.85465 18.7904 10.2011 19.8962 10.1203C22.0168 9.96551 24.4874 8.30495 25.4159 6.40881C25.8988 5.42033 25.8662 4.56349 25.4229 3.99072C25.7658 4.55887 25.7588 5.35335 25.3156 6.261Z" fill="#FCE586"/>
</g>
<path d="M26.1401 35.8653L25.8811 36.2487C25.6571 35.8722 25.2839 35.5189 24.7613 35.2186C22.9229 34.1586 19.9368 34.1447 18.0891 35.1886C17.5782 35.4773 17.2073 35.8191 16.9786 36.1817L16.7057 35.8261L16.701 36.6413C16.68 37.3434 17.1349 38.0525 18.0728 38.5929C19.9111 39.653 22.8973 39.6668 24.745 38.6229C25.6688 38.101 26.1331 37.4127 26.1354 36.7222L26.1401 35.8676V35.8653Z" fill="#F4A856"/>
<path d="M26.1413 35.8667C26.1482 34.3782 24.0418 33.162 21.4366 33.1503C18.8313 33.1386 16.7139 34.3358 16.7071 35.8243C16.7002 37.3128 18.8066 38.529 21.4118 38.5407C24.0171 38.5524 26.1345 37.3552 26.1413 35.8667Z" fill="#FCCC6B"/>
<path d="M26.1413 35.8667C26.1482 34.3782 24.0418 33.162 21.4366 33.1503C18.8313 33.1386 16.7139 34.3358 16.7071 35.8243C16.7002 37.3128 18.8066 38.529 21.4118 38.5407C24.0171 38.5524 26.1345 37.3552 26.1413 35.8667Z" fill="url(#paint3_radial_8435_44896)"/>
<path d="M21.4435 38.1475C20.4123 38.1475 19.3789 37.9212 18.595 37.4685C17.8368 37.0297 17.4192 36.4477 17.4215 35.8287C17.4239 35.2098 17.8461 34.6301 18.609 34.1982C20.1674 33.3159 22.6986 33.3275 24.25 34.2236C25.0082 34.6624 25.4258 35.2444 25.4235 35.8634C25.4212 36.4823 24.9989 37.062 24.236 37.4939C23.4638 37.9304 22.4537 38.1475 21.4435 38.1475ZM21.4015 33.6231C20.4053 33.6231 19.4092 33.8379 18.6486 34.2675C17.9114 34.6832 17.5055 35.2398 17.5008 35.8287C17.4985 36.4177 17.8998 36.9766 18.6346 37.3992C20.1651 38.2815 22.659 38.293 24.1964 37.4246C24.9336 37.0089 25.3395 36.4523 25.3442 35.8634C25.3465 35.2744 24.9452 34.7155 24.2104 34.2929C23.4382 33.8471 22.4187 33.6231 21.4015 33.6231Z" fill="#F4A856"/>
<path d="M25.385 35.8636C25.3907 34.6136 23.6218 33.5923 21.4341 33.5824C19.2463 33.5726 17.4681 34.578 17.4624 35.828C17.4567 37.078 19.2256 38.0993 21.4133 38.1091C23.6011 38.1189 25.3792 37.1136 25.385 35.8636Z" fill="url(#paint4_radial_8435_44896)"/>
<path d="M18.6305 34.4184C20.1819 33.5408 22.6875 33.5523 24.2319 34.4438C24.9621 34.8642 25.3447 35.4069 25.382 35.9566C25.4287 35.3469 25.0461 34.7256 24.2342 34.2568C22.6921 33.3653 20.1842 33.3537 18.6328 34.2314C17.8163 34.6933 17.429 35.3099 17.4687 35.9196C17.5107 35.3723 17.898 34.8318 18.6305 34.4184Z" fill="#F4A856"/>
<path d="M24.7517 37.588C22.904 38.6319 19.9179 38.6203 18.0795 37.5579C17.2 37.0498 16.7451 36.3939 16.7101 35.7334C16.6658 36.4517 17.1207 37.1815 18.0795 37.7358C19.9179 38.7959 22.904 38.8097 24.7517 37.7658C25.7152 37.2207 26.1772 36.4955 26.1375 35.7773C26.0955 36.4378 25.6359 37.0891 24.7517 37.588Z" fill="#FCE586"/>
<path d="M26.9494 34.7232L26.6904 35.1066C26.4665 34.7302 26.0932 34.3768 25.5706 34.0766C23.7323 33.0165 20.7461 33.0026 18.8984 34.0465C18.3875 34.3352 18.0166 34.677 17.788 35.0396L17.515 34.684L17.5103 35.4992C17.4893 36.2013 17.9443 36.9104 18.8821 37.4508C20.7205 38.5109 23.7066 38.5247 25.5543 37.4808C26.4781 36.9589 26.9424 36.2706 26.9447 35.5801L26.9494 34.7255V34.7232Z" fill="#F4A856"/>
<path d="M26.9529 34.7222C26.9597 33.2337 24.8533 32.0175 22.2481 32.0058C19.6429 31.9941 17.5254 33.1913 17.5186 34.6798C17.5118 36.1683 19.6182 37.3845 22.2234 37.3962C24.8286 37.4079 26.946 36.2107 26.9529 34.7222Z" fill="#FCCC6B"/>
<path d="M26.9529 34.7222C26.9597 33.2337 24.8533 32.0175 22.2481 32.0058C19.6429 31.9941 17.5254 33.1913 17.5186 34.6798C17.5118 36.1683 19.6182 37.3845 22.2234 37.3962C24.8286 37.4079 26.946 36.2107 26.9529 34.7222Z" fill="url(#paint5_radial_8435_44896)"/>
<path d="M22.2537 37.003C21.2225 37.003 20.189 36.7766 19.4052 36.324C18.647 35.8852 18.2294 35.3032 18.2317 34.6842C18.234 34.0652 18.6563 33.4855 19.4192 33.0537C20.9776 32.1714 23.5088 32.183 25.0602 33.0791C25.8184 33.5179 26.236 34.0999 26.2337 34.7188C26.2313 35.3378 25.8091 35.9175 25.0462 36.3494C24.274 36.7859 23.2638 37.003 22.2537 37.003ZM22.2117 32.4786C21.2155 32.4786 20.2194 32.6934 19.4588 33.123C18.7216 33.5387 18.3157 34.0953 18.311 34.6842C18.3087 35.2731 18.71 35.832 19.4448 36.2547C20.9752 37.1369 23.4691 37.1485 25.0065 36.2801C25.7437 35.8644 26.1497 35.3078 26.1543 34.7188C26.1567 34.1299 25.7554 33.571 25.0205 33.1484C24.2483 32.7026 23.2288 32.4786 22.2117 32.4786Z" fill="#F4A856"/>
<path d="M26.1972 34.7186C26.203 33.4686 24.4341 32.4473 22.2463 32.4374C20.0586 32.4276 18.2804 33.433 18.2747 34.683C18.2689 35.933 20.0378 36.9543 22.2256 36.9641C24.4133 36.9739 26.1915 35.9686 26.1972 34.7186Z" fill="url(#paint6_radial_8435_44896)"/>
<path d="M19.44 33.2739C20.9914 32.3963 23.4969 32.4078 25.0413 33.2993C25.7715 33.7196 26.1541 34.2624 26.1915 34.812C26.2381 34.2023 25.8555 33.5811 25.0437 33.1122C23.5016 32.2207 20.9937 32.2092 19.4423 33.0868C18.6258 33.5487 18.2385 34.1654 18.2782 34.7751C18.3201 34.2277 18.7074 33.6873 19.44 33.2739Z" fill="#F4A856"/>
<path d="M25.5619 36.4434C23.7142 37.4873 20.7281 37.4758 18.8897 36.4134C18.0102 35.9053 17.5553 35.2494 17.5203 34.5889C17.476 35.3071 17.9309 36.037 18.8897 36.5912C20.7281 37.6513 23.7142 37.6652 25.5619 36.6213C26.5254 36.0762 26.9873 35.351 26.9477 34.6327C26.9057 35.2933 26.4461 35.9446 25.5619 36.4434Z" fill="#FCE586"/>
<path d="M33.1669 40.4073L32.908 40.7907C32.684 40.4142 32.3107 40.0609 31.7882 39.7606C29.9498 38.7006 26.9636 38.6867 25.116 39.7306C24.6051 40.0193 24.2341 40.3611 24.0055 40.7237L23.7325 40.368L23.7279 41.1833C23.7069 41.8854 24.1618 42.5944 25.0996 43.1349C26.938 44.195 29.9241 44.2088 31.7718 43.1649C32.6957 42.6429 33.1599 41.9547 33.1623 41.2642L33.1669 40.4096V40.4073Z" fill="#F4A856"/>
<path d="M31.7754 42.3094C29.9277 43.3533 26.9416 43.3418 25.1032 42.2794C23.2649 41.2193 23.2742 39.5102 25.1196 38.4663C26.9672 37.4224 29.9534 37.434 31.7917 38.4964C33.6301 39.5564 33.6208 41.2655 31.7754 42.3094Z" fill="#FCCC6B"/>
<path d="M31.7754 42.3094C29.9277 43.3533 26.9416 43.3418 25.1032 42.2794C23.2649 41.2193 23.2742 39.5102 25.1196 38.4663C26.9672 37.4224 29.9534 37.434 31.7917 38.4964C33.6301 39.5564 33.6208 41.2655 31.7754 42.3094Z" fill="url(#paint7_radial_8435_44896)"/>
<path d="M28.4711 42.6871C27.4399 42.6871 26.4064 42.4607 25.6226 42.0081C24.8644 41.5692 24.4468 40.9872 24.4491 40.3683C24.4514 39.7493 24.8737 39.1696 25.6366 38.7377C27.195 37.8555 29.7262 37.867 31.2776 38.7632C32.0358 39.202 32.4534 39.784 32.4511 40.4029C32.4487 41.0219 32.0265 41.6016 31.2636 42.0335C30.4914 42.47 29.4812 42.6871 28.4711 42.6871ZM28.4291 38.1627C27.4329 38.1627 26.4368 38.3775 25.6762 38.807C24.939 39.2228 24.5331 39.7793 24.5284 40.3683C24.5261 40.9572 24.9274 41.5161 25.6622 41.9388C27.1926 42.821 29.6865 42.8326 31.2239 41.9642C31.9612 41.5485 32.3671 40.9919 32.3718 40.4029C32.3741 39.814 31.9728 39.2551 31.2379 38.8324C30.4657 38.3867 29.4463 38.1627 28.4291 38.1627Z" fill="#F4A856"/>
<path d="M31.2423 41.9998C29.6909 42.8774 27.1854 42.8659 25.641 41.9744C24.0989 41.0829 24.1059 39.651 25.655 38.7733C27.2064 37.8957 29.7119 37.9073 31.2563 38.7987C32.7984 39.6902 32.7914 41.1222 31.2423 41.9998Z" fill="url(#paint8_radial_8435_44896)"/>
<path d="M25.6547 38.962C27.2061 38.0844 29.7116 38.0959 31.2561 38.9874C31.9863 39.4077 32.3689 39.9505 32.4062 40.5001C32.4528 39.8904 32.0702 39.2692 31.2584 38.8003C29.7163 37.9088 27.2084 37.8996 25.657 38.7749C24.8405 39.2368 24.4532 39.8535 24.4929 40.4632C24.5349 39.9158 24.9221 39.3754 25.6547 38.962Z" fill="#F4A856"/>
<path d="M31.7787 42.1295C29.931 43.1734 26.9449 43.1618 25.1065 42.0994C24.227 41.5913 23.7721 40.9354 23.7371 40.2749C23.6928 40.9932 24.1477 41.723 25.1065 42.2773C26.9449 43.3374 29.931 43.3512 31.7787 42.3073C32.7422 41.7622 33.2041 41.0371 33.1645 40.3188C33.1225 40.9793 32.6629 41.6306 31.7787 42.1295Z" fill="#FCE586"/>
<path d="M23.7355 42.0299L23.4766 42.4133C23.2526 42.0368 22.8793 41.6834 22.3568 41.3832C20.5184 40.3231 17.5323 40.3093 15.6846 41.3532C15.1737 41.6419 14.8027 41.9837 14.5741 42.3463L14.3011 41.9906L14.2965 42.8059C14.2755 43.508 14.7304 44.217 15.6682 44.7574C17.5066 45.8175 20.4927 45.8314 22.3404 44.7875C23.2643 44.2655 23.7285 43.5773 23.7309 42.8867L23.7355 42.0322V42.0299Z" fill="#F4A856"/>
<path d="M22.3446 43.9315C20.4969 44.9754 17.5108 44.9638 15.6724 43.9015C13.8341 42.8414 13.8434 41.1323 15.6888 40.0884C17.5365 39.0445 20.5226 39.056 22.361 40.1184C24.1993 41.1785 24.19 42.8876 22.3446 43.9315Z" fill="#FCCC6B"/>
<path d="M22.3446 43.9315C20.4969 44.9754 17.5108 44.9638 15.6724 43.9015C13.8341 42.8414 13.8434 41.1323 15.6888 40.0884C17.5365 39.0445 20.5226 39.056 22.361 40.1184C24.1993 41.1785 24.19 42.8876 22.3446 43.9315Z" fill="url(#paint9_radial_8435_44896)"/>
<path d="M19.037 44.3121C18.0058 44.3121 16.9724 44.0857 16.1885 43.6331C15.4303 43.1942 15.0127 42.6122 15.015 41.9933C15.0174 41.3743 15.4396 40.7946 16.2025 40.3627C17.7609 39.4805 20.2921 39.492 21.8435 40.3882C22.6017 40.827 23.0193 41.409 23.017 42.0279C23.0147 42.6469 22.5924 43.2266 21.8295 43.6585C21.0573 44.095 20.0472 44.3121 19.037 44.3121ZM18.995 39.7877C17.9988 39.7877 17.0027 40.0025 16.2421 40.432C15.5049 40.8478 15.099 41.4043 15.0943 41.9933C15.092 42.5822 15.4933 43.1411 16.2282 43.5638C17.7586 44.446 20.2525 44.4576 21.7899 43.5892C22.5271 43.1735 22.933 42.6169 22.9377 42.0279C22.94 41.439 22.5387 40.8801 21.8039 40.4574C21.0317 40.0117 20.0122 39.7877 18.995 39.7877Z" fill="#F4A856"/>
<path d="M21.8108 43.6248C20.2594 44.5024 17.7538 44.4909 16.2094 43.5994C14.6674 42.7079 14.6744 41.276 16.2234 40.3983C17.7748 39.5207 20.2804 39.5323 21.8248 40.4237C23.3669 41.3152 23.3599 42.7472 21.8108 43.6248Z" fill="url(#paint10_radial_8435_44896)"/>
<path d="M16.2233 40.5854C17.7747 39.7078 20.2803 39.7193 21.8247 40.6108C22.5549 41.0312 22.9375 41.5739 22.9748 42.1236C23.0215 41.5139 22.6389 40.8926 21.827 40.4237C20.2849 39.5323 17.777 39.5207 16.2256 40.3983C15.4091 40.8603 15.0218 41.4769 15.0615 42.0866C15.1035 41.5393 15.4907 40.9988 16.2233 40.5854Z" fill="#F4A856"/>
<path d="M22.3458 43.752C20.4982 44.7959 17.512 44.7844 15.6737 43.722C14.7941 43.2139 14.3392 42.558 14.3042 41.8975C14.2599 42.6157 14.7148 43.3455 15.6737 43.8998C17.512 44.9599 20.4982 44.9738 22.3458 43.9299C23.3094 43.3848 23.7713 42.6596 23.7316 41.9413C23.6896 42.6019 23.23 43.2532 22.3458 43.752Z" fill="#FCE586"/>
<path d="M28.2001 40.315L27.9412 40.6984C27.7172 40.322 27.3439 39.9686 26.8214 39.6684C24.983 38.6083 21.9969 38.5944 20.1492 39.6383C19.6383 39.927 19.2673 40.2688 19.0387 40.6314L18.7657 40.2758L18.7611 41.091C18.7401 41.7931 19.195 42.5022 20.1328 43.0426C21.9712 44.1027 24.9573 44.1165 26.805 43.0726C27.7289 42.5507 28.1931 41.8624 28.1955 41.1719L28.2001 40.3173V40.315Z" fill="#F4A856"/>
<path d="M28.1987 40.3135C28.2055 38.825 26.0991 37.6088 23.4939 37.5971C20.8887 37.5854 18.7713 38.7826 18.7644 40.2711C18.7576 41.7596 20.864 42.9758 23.4692 42.9875C26.0744 42.9992 28.1919 41.802 28.1987 40.3135Z" fill="#FCCC6B"/>
<path d="M28.1987 40.3135C28.2055 38.825 26.0991 37.6088 23.4939 37.5971C20.8887 37.5854 18.7713 38.7826 18.7644 40.2711C18.7576 41.7596 20.864 42.9758 23.4692 42.9875C26.0744 42.9992 28.1919 41.802 28.1987 40.3135Z" fill="url(#paint11_radial_8435_44896)"/>
<path d="M23.5009 42.5948C22.4697 42.5948 21.4362 42.3684 20.6524 41.9158C19.8942 41.477 19.4766 40.895 19.4789 40.276C19.4812 39.657 19.9035 39.0773 20.6664 38.6455C22.2248 37.7632 24.756 37.7748 26.3074 38.6709C27.0656 39.1097 27.4832 39.6917 27.4809 40.3106C27.4785 40.9296 27.0563 41.5093 26.2934 41.9412C25.5212 42.3777 24.511 42.5948 23.5009 42.5948ZM23.4589 38.0704C22.4627 38.0704 21.4666 38.2852 20.706 38.7147C19.9688 39.1305 19.5629 39.6871 19.5582 40.276C19.5559 40.8649 19.9571 41.4238 20.692 41.8465C22.2224 42.7287 24.7163 42.7403 26.2537 41.8719C26.9909 41.4562 27.3969 40.8996 27.4015 40.3106C27.4039 39.7217 27.0026 39.1628 26.2677 38.7402C25.4955 38.2944 24.476 38.0704 23.4589 38.0704Z" fill="#F4A856"/>
<path d="M26.2748 41.9051C24.7234 42.7827 22.2178 42.7711 20.6734 41.8796C19.1314 40.9882 19.1384 39.5562 20.6874 38.6786C22.2388 37.801 24.7444 37.8125 26.2888 38.704C27.8309 39.5955 27.8239 41.0274 26.2748 41.9051Z" fill="url(#paint12_radial_8435_44896)"/>
<path d="M20.6871 38.8686C22.2385 37.991 24.7441 38.0025 26.2885 38.894C27.0187 39.3144 27.4013 39.8571 27.4387 40.4068C27.4853 39.7971 27.1027 39.1758 26.2909 38.707C24.7488 37.8155 22.2409 37.8039 20.6895 38.6815C19.873 39.1435 19.4857 39.7601 19.5253 40.3698C19.5673 39.8225 19.9546 39.2843 20.6871 38.8686Z" fill="#F4A856"/>
<path d="M26.8091 42.0382C24.9614 43.0821 21.9753 43.0705 20.1369 42.0081C19.2574 41.5 18.8025 40.8441 18.7675 40.1836C18.7232 40.9019 19.1781 41.6317 20.1369 42.186C21.9753 43.246 24.9614 43.2599 26.8091 42.216C27.7726 41.6709 28.2345 40.9457 28.1949 40.2275C28.1529 40.888 27.6933 41.5393 26.8091 42.0382Z" fill="#FCE586"/>
<path d="M29.4184 39.3795L29.1594 39.7629C28.9355 39.3864 28.5622 39.033 28.0396 38.7328C26.2013 37.6727 23.2151 37.6589 21.3674 38.7028C20.8565 38.9915 20.4856 39.3333 20.257 39.6959L19.984 39.3402L19.9793 40.1555C19.9583 40.8576 20.4133 41.5666 21.3511 42.107C23.1895 43.1671 26.1756 43.181 28.0233 42.1371C28.9471 41.6151 29.4114 40.9269 29.4137 40.2363L29.4184 39.3818V39.3795Z" fill="#F4A856"/>
<path d="M29.4184 39.3779C29.4253 37.8894 27.3189 36.6732 24.7137 36.6615C22.1084 36.6498 19.991 37.847 19.9842 39.3356C19.9773 40.8241 22.0837 42.0402 24.6889 42.052C27.2942 42.0637 29.4116 40.8665 29.4184 39.3779Z" fill="#FCCC6B"/>
<path d="M29.4184 39.3779C29.4253 37.8894 27.3189 36.6732 24.7137 36.6615C22.1084 36.6498 19.991 37.847 19.9842 39.3356C19.9773 40.8241 22.0837 42.0402 24.6889 42.052C27.2942 42.0637 29.4116 40.8665 29.4184 39.3779Z" fill="url(#paint13_radial_8435_44896)"/>
<path d="M24.7206 41.6587C23.6894 41.6587 22.656 41.4324 21.8721 40.9797C21.1139 40.5409 20.6963 39.9589 20.6986 39.34C20.701 38.721 21.1232 38.1413 21.8861 37.7094C23.4445 36.8272 25.9757 36.8387 27.5271 37.7348C28.2853 38.1736 28.7029 38.7556 28.7006 39.3746C28.6983 39.9936 28.276 40.5733 27.5131 41.0051C26.7409 41.4416 25.7308 41.6587 24.7206 41.6587ZM24.6786 37.1343C23.6824 37.1343 22.6863 37.3491 21.9257 37.7787C21.1885 38.1944 20.7826 38.751 20.7779 39.34C20.7756 39.9289 21.1769 40.4878 21.9117 40.9105C23.4421 41.7927 25.9361 41.8042 27.4735 40.9359C28.2107 40.5201 28.6166 39.9635 28.6213 39.3746C28.6236 38.7857 28.2223 38.2268 27.4875 37.8041C26.7153 37.3584 25.6958 37.1343 24.6786 37.1343Z" fill="#F4A856"/>
<path d="M27.4945 40.9695C25.9431 41.8471 23.4376 41.8356 21.8932 40.9441C20.3511 40.0526 20.3581 38.6207 21.9072 37.7431C23.4586 36.8654 25.9641 36.877 27.5085 37.7685C29.0506 38.66 29.0436 40.0919 27.4945 40.9695Z" fill="url(#paint14_radial_8435_44896)"/>
<path d="M21.9069 37.9301C23.4583 37.0525 25.9638 37.0641 27.5083 37.9555C28.2385 38.3759 28.6211 38.9186 28.6584 39.4683C28.705 38.8586 28.3224 38.2373 27.5106 37.7685C25.9685 36.877 23.4606 36.8654 21.9092 37.7431C21.0927 38.205 20.7054 38.8216 20.7451 39.4313C20.7871 38.884 21.1743 38.3459 21.9069 37.9301Z" fill="#F4A856"/>
<path d="M28.0281 41.0992C26.1804 42.1431 23.1943 42.1316 21.3559 41.0692C20.4764 40.5611 20.0215 39.9052 19.9865 39.2446C19.9421 39.9629 20.3971 40.6927 21.3559 41.247C23.1943 42.3071 26.1804 42.3209 28.0281 41.277C28.9916 40.732 29.4535 40.0068 29.4139 39.2885C29.3719 39.949 28.9123 40.6003 28.0281 41.0992Z" fill="#FCE586"/>
<path d="M30.0656 37.5826L29.8067 37.966C29.5827 37.5895 29.2094 37.2362 28.6868 36.9359C26.8485 35.8759 23.8623 35.862 22.0146 36.9059C21.5037 37.1946 21.1328 37.5364 20.9042 37.899L20.6312 37.5433L20.6265 38.3586C20.6056 39.0607 21.0605 39.7697 21.9983 40.3102C23.8367 41.3703 26.8228 41.3841 28.6705 40.3402C29.5944 39.8182 30.0586 39.13 30.0609 38.4394L30.0656 37.5849V37.5826Z" fill="#F4A856"/>
<path d="M28.6747 39.4847C26.827 40.5286 23.8409 40.5171 22.0025 39.4547C20.1642 38.3946 20.1735 36.6855 22.0188 35.6416C23.8665 34.5977 26.8527 34.6093 28.691 35.6717C30.5294 36.7317 30.5201 38.4408 28.6747 39.4847Z" fill="#FCCC6B"/>
<path d="M28.6747 39.4847C26.827 40.5286 23.8409 40.5171 22.0025 39.4547C20.1642 38.3946 20.1735 36.6855 22.0188 35.6416C23.8665 34.5977 26.8527 34.6093 28.691 35.6717C30.5294 36.7317 30.5201 38.4408 28.6747 39.4847Z" fill="url(#paint15_radial_8435_44896)"/>
<path d="M25.367 39.8653C24.3358 39.8653 23.3023 39.639 22.5184 39.1863C21.7602 38.7475 21.3426 38.1655 21.345 37.5465C21.3473 36.9275 21.7696 36.3479 22.5324 35.916C24.0908 35.0337 26.6221 35.0453 28.1735 35.9414C28.9317 36.3802 29.3493 36.9622 29.3469 37.5811C29.3446 38.2001 28.9224 38.7798 28.1595 39.2117C27.3873 39.6482 26.3771 39.8653 25.367 39.8653ZM25.325 35.3409C24.3288 35.3409 23.3326 35.5557 22.5721 35.9853C21.8349 36.401 21.429 36.9576 21.4243 37.5465C21.422 38.1354 21.8232 38.6943 22.5581 39.117C24.0885 39.9992 26.5824 40.0108 28.1198 39.1424C28.857 38.7267 29.263 38.1701 29.2676 37.5811C29.27 36.9922 28.8687 36.4333 28.1338 36.0107C27.3616 35.5649 26.3421 35.3409 25.325 35.3409Z" fill="#F4A856"/>
<path d="M28.1409 39.1775C26.5895 40.0551 24.0839 40.0436 22.5395 39.1521C20.9975 38.2606 21.0044 36.8287 22.5535 35.9511C24.1049 35.0735 26.6105 35.085 28.1549 35.9765C29.697 36.868 29.69 38.2999 28.1409 39.1775Z" fill="url(#paint16_radial_8435_44896)"/>
<path d="M22.5534 36.1382C24.1048 35.2605 26.6103 35.2721 28.1547 36.1636C28.8849 36.5839 29.2675 37.1266 29.3049 37.6763C29.3515 37.0666 28.9689 36.4453 28.1571 35.9765C26.615 35.085 24.1071 35.0735 22.5557 35.9511C21.7392 36.413 21.3519 37.0296 21.3916 37.6394C21.4335 37.092 21.8208 36.5539 22.5534 36.1382Z" fill="#F4A856"/>
<path d="M28.6752 39.3048C26.8275 40.3487 23.8414 40.3371 22.003 39.2747C21.1235 38.7666 20.6686 38.1107 20.6336 37.4502C20.5892 38.1685 21.0442 38.8983 22.003 39.4526C23.8414 40.5127 26.8275 40.5265 28.6752 39.4826C29.6387 38.9375 30.1006 38.2123 30.061 37.4941C30.019 38.1546 29.5594 38.8059 28.6752 39.3048Z" fill="#FCE586"/>
<path d="M33.3231 38.3278L32.9895 38.6489C32.8472 38.2355 32.5556 37.8151 32.1076 37.4133C30.5283 36.0021 27.6074 35.3832 25.5848 36.0322C25.0249 36.2123 24.5909 36.4687 24.2923 36.7781L24.0987 36.374L23.926 37.1708C23.7604 37.8544 24.059 38.6396 24.8639 39.3579C26.4433 40.769 29.3641 41.388 31.3868 40.739C32.3993 40.4157 32.9942 39.836 33.1411 39.1616L33.3208 38.3255L33.3231 38.3278Z" fill="#F4A856"/>
<path d="M31.569 39.906C29.5463 40.555 26.6255 39.936 25.0461 38.5249C23.4667 37.1138 23.8283 35.444 25.851 34.7973C27.8736 34.1483 30.7945 34.7673 32.3739 36.1784C33.9533 37.5895 33.5916 39.2593 31.569 39.906Z" fill="#FCCC6B"/>
<path d="M31.569 39.906C29.5463 40.555 26.6255 39.936 25.0461 38.5249C23.4667 37.1138 23.8283 35.444 25.851 34.7973C27.8736 34.1483 30.7945 34.7673 32.3739 36.1784C33.9533 37.5895 33.5916 39.2593 31.569 39.906Z" fill="url(#paint17_radial_8435_44896)"/>
<path d="M28.2533 39.61C27.2431 39.3998 26.2796 38.9703 25.6054 38.3675C24.9522 37.7855 24.6652 37.1296 24.7959 36.5245C24.9265 35.9193 25.4584 35.4367 26.2959 35.1711C28.0037 34.6237 30.4789 35.148 31.811 36.3397C32.4642 36.9217 32.7512 37.5776 32.6205 38.1827C32.4899 38.7878 31.958 39.2705 31.1205 39.5361C30.2759 39.8063 29.2424 39.8155 28.2533 39.61ZM29.1491 35.1734C28.174 34.9724 27.1545 34.9794 26.3216 35.2473C25.5144 35.5059 25.0012 35.9655 24.8752 36.5429C24.7515 37.1203 25.0292 37.7485 25.6591 38.3097C26.9725 39.483 29.4127 40.0003 31.0971 39.4599C31.9043 39.2012 32.4176 38.7416 32.5435 38.1642C32.6672 37.5868 32.3896 36.9586 31.7597 36.3974C31.0948 35.8039 30.1453 35.3789 29.1491 35.1734Z" fill="#F4A856"/>
<path d="M31.1097 39.498C29.4113 40.0431 26.9594 39.5234 25.6319 38.3386C24.3068 37.1538 24.6078 35.7519 26.3085 35.2092C28.0069 34.6641 30.4588 35.1838 31.7862 36.3686C33.1113 37.5534 32.8104 38.9553 31.1097 39.498Z" fill="url(#paint18_radial_8435_44896)"/>
<path d="M26.2686 35.3916C27.967 34.8466 30.4189 35.3662 31.7463 36.551C32.3739 37.1123 32.6352 37.7197 32.5582 38.2647C32.7308 37.6781 32.4835 36.9922 31.786 36.3686C30.4609 35.1838 28.0089 34.6641 26.3082 35.2092C25.4124 35.4956 24.9061 36.0221 24.8198 36.6272C24.9738 36.1007 25.4637 35.6503 26.2686 35.3939V35.3916Z" fill="#F4A856"/>
<path d="M31.6058 39.7331C29.5832 40.3821 26.6624 39.7631 25.083 38.352C24.3271 37.6776 24.0168 36.9432 24.1195 36.2896C23.9282 36.9847 24.2221 37.7908 25.0456 38.5252C26.625 39.9363 29.5459 40.5553 31.5685 39.9063C32.623 39.5691 33.2249 38.9525 33.3369 38.2411C33.1596 38.8785 32.574 39.4236 31.6058 39.7331Z" fill="#FCE586"/>
<g opacity="0.5">
<path d="M26.1316 18.6744L25.714 18.88C25.7047 18.4435 25.5577 17.9539 25.2521 17.4388C24.1813 15.6189 21.587 14.1524 19.4594 14.1616C18.8715 14.1639 18.3793 14.2794 17.999 14.4849L17.9383 14.0415L17.5301 14.7505C17.1615 15.351 17.2058 16.1917 17.7517 17.1178C18.8225 18.9377 21.4167 20.4043 23.5444 20.3951C24.6082 20.3904 25.3547 20.0186 25.7 19.4181L26.1293 18.6768L26.1316 18.6744Z" fill="#F4A856"/>
<path d="M23.976 19.6484C21.8483 19.6576 19.2565 18.1911 18.1833 16.3711C17.1125 14.5512 17.9687 13.0708 20.094 13.0616C22.2216 13.0523 24.8135 14.5189 25.8867 16.3388C26.9575 18.1587 26.1013 19.6391 23.976 19.6484Z" fill="#FCCC6B"/>
<path d="M23.976 19.6484C21.8483 19.6576 19.2565 18.1911 18.1833 16.3711C17.1125 14.5512 17.9687 13.0708 20.094 13.0616C22.2216 13.0523 24.8135 14.5189 25.8867 16.3388C26.9575 18.1587 26.1013 19.6391 23.976 19.6484Z" fill="url(#paint19_radial_8435_44896)"/>
<path d="M20.9108 18.3689C20.0126 17.8654 19.2265 17.1656 18.7692 16.3896C18.3259 15.639 18.2536 14.9277 18.5639 14.3895C18.8742 13.8514 19.5297 13.5535 20.4069 13.5489C22.2033 13.5419 24.3986 14.7845 25.3037 16.3203C25.747 17.0709 25.8193 17.7822 25.509 18.3204C25.1988 18.8585 24.5432 19.1564 23.666 19.161C22.7772 19.1657 21.7903 18.8631 20.9108 18.3689ZM23.1248 14.4103C22.2569 13.9253 21.2841 13.6251 20.4092 13.6297C19.5601 13.632 18.9302 13.9161 18.6339 14.4288C18.3376 14.9415 18.4099 15.6228 18.8392 16.348C19.7304 17.8631 21.8953 19.0871 23.666 19.0802C24.5152 19.0779 25.1451 18.7938 25.4414 18.2811C25.7377 17.7684 25.6654 17.0871 25.2361 16.3619C24.7858 15.5974 24.009 14.9069 23.1248 14.4103Z" fill="#F4A856"/>
<path d="M25.4772 18.3004C26.1037 17.2152 25.0719 15.4641 23.1724 14.3894C21.273 13.3147 19.2253 13.3232 18.5987 14.4085C17.9722 15.4938 19.004 17.2448 20.9034 18.3195C22.8029 19.3942 24.8506 19.3857 25.4772 18.3004Z" fill="url(#paint20_radial_8435_44896)"/>
<path d="M20.3132 13.7514C22.0979 13.7445 24.2769 14.9755 25.1751 16.5021C25.5997 17.225 25.6627 17.8832 25.4224 18.3774C25.7653 17.8693 25.742 17.1442 25.2684 16.3381C24.3679 14.8115 22.1912 13.5782 20.4065 13.5875C19.4664 13.5921 18.8202 13.9385 18.5542 14.4905C18.8621 14.0355 19.4687 13.7537 20.3132 13.7514Z" fill="#F4A856"/>
<path d="M24.0649 19.4942C21.9373 19.5035 19.3454 18.0369 18.2723 16.217C17.759 15.3463 17.689 14.5541 17.9877 13.9629C17.5911 14.568 17.6237 15.4225 18.1836 16.3717C19.2544 18.1917 21.8487 19.6582 23.9763 19.649C25.0844 19.6444 25.8473 19.2379 26.1739 18.5935C25.81 19.1478 25.0844 19.4896 24.0673 19.4942H24.0649Z" fill="#FCE586"/>
</g>
<path d="M25.2202 26.8457L25.1852 27.3053C24.8026 27.0882 24.3033 26.9635 23.6991 26.9543C21.5715 26.9288 18.9679 28.3746 17.8808 30.1853C17.5798 30.6865 17.4282 31.1622 17.4095 31.5918L16.9943 31.4163L17.3979 32.1276C17.7291 32.7466 18.4803 33.1415 19.5628 33.1554C21.6905 33.1808 24.294 31.735 25.3812 29.9243C25.9247 29.019 25.9854 28.1945 25.6448 27.5917L25.2225 26.8457H25.2202Z" fill="#F4A856"/>
<path d="M22.4369 31.4862C24.7093 30.2248 25.9553 28.1497 25.2199 26.8514C24.4845 25.553 22.0462 25.523 19.7738 26.7844C17.5014 28.0458 16.2554 30.1209 16.9908 31.4193C17.7262 32.7176 20.1645 32.7476 22.4369 31.4862Z" fill="#FCCC6B"/>
<path d="M22.4369 31.4862C24.7093 30.2248 25.9553 28.1497 25.2199 26.8514C24.4845 25.553 22.0462 25.523 19.7738 26.7844C17.5014 28.0458 16.2554 30.1209 16.9908 31.4193C17.7262 32.7176 20.1645 32.7476 22.4369 31.4862Z" fill="url(#paint21_radial_8435_44896)"/>
<path d="M22.2714 31.1245C21.3732 31.628 20.3631 31.9352 19.4556 31.9236C18.576 31.9121 17.9252 31.6095 17.6195 31.0691C17.3139 30.5286 17.3932 29.8196 17.8412 29.0713C18.758 27.5424 20.965 26.3183 22.7613 26.3391C23.6408 26.3507 24.2917 26.6532 24.5973 27.1937C24.903 27.7341 24.8236 28.4431 24.3757 29.1914C23.9208 29.9466 23.1509 30.6303 22.2714 31.1245ZM19.9828 27.2075C19.1149 27.6948 18.3567 28.3669 17.9088 29.1129C17.4749 29.8358 17.3979 30.5171 17.6895 31.0298C17.9811 31.5448 18.6087 31.8335 19.4579 31.8451C21.2286 31.8659 23.4029 30.6603 24.3081 29.1522C24.742 28.4293 24.819 27.7479 24.5274 27.2329C24.2357 26.7179 23.6082 26.4292 22.759 26.42C21.8655 26.4084 20.867 26.711 19.9828 27.2075Z" fill="#F4A856"/>
<path d="M22.2242 31.1071C24.1324 30.0478 25.1788 28.3052 24.5612 27.2149C23.9437 26.1246 21.8961 26.0994 19.9878 27.1587C18.0795 28.218 17.0332 29.9605 17.6508 31.0508C18.2683 32.1412 20.3159 32.1663 22.2242 31.1071Z" fill="url(#paint22_radial_8435_44896)"/>
<path d="M17.9664 29.2561C18.8786 27.7364 21.0645 26.5216 22.8515 26.5447C23.6961 26.5562 24.3003 26.8403 24.6036 27.2999C24.34 26.7456 23.6984 26.3946 22.7582 26.3807C20.9735 26.3576 18.7852 27.5724 17.8731 29.0921C17.3925 29.8935 17.3621 30.6187 17.7028 31.1291C17.4671 30.6326 17.5348 29.9743 17.9664 29.2561Z" fill="#F4A856"/>
<path d="M24.8699 29.0243C23.7827 30.8349 21.1792 32.2807 19.0515 32.2553C18.0344 32.2438 17.3112 31.895 16.9519 31.3361C17.2715 31.9828 18.0297 32.3962 19.1402 32.4101C21.2678 32.4355 23.8714 30.9897 24.9585 29.179C25.5254 28.2344 25.5651 27.3799 25.1755 26.7725C25.4695 27.366 25.3925 28.1582 24.8722 29.0243H24.8699Z" fill="#FCE586"/>
</g>
<path d="M24.9929 5.66112C24.2703 5.24756 23.3827 5.24756 22.6601 5.66112L4.78572 15.8912C4.05489 16.3094 3.60399 17.087 3.60399 17.9291V38.3608C3.60399 39.2029 4.05489 39.9805 4.78572 40.3987L22.6601 50.6288C23.3827 51.0423 24.2703 51.0423 24.9929 50.6288L42.8673 40.3987C43.5981 39.9805 44.049 39.2029 44.049 38.3608V17.9291C44.049 17.087 43.5981 16.3094 42.8673 15.8911L24.9929 5.66112Z" stroke="white" stroke-width="0.939234"/>
<defs>
<filter id="filter0_di_8435_44896" x="1.06806" y="2.52912" width="45.5168" height="51.2318" filterUnits="userSpaceOnUse" color-interpolation-filters="sRGB">
<feFlood flood-opacity="0" result="BackgroundImageFix"/>
<feColorMatrix in="SourceAlpha" type="matrix" values="0 0 0 0 0 0 0 0 0 0 0 0 0 0 0 0 0 0 127 0" result="hardAlpha"/>
<feOffset/>
<feGaussianBlur stdDeviation="1.50277"/>
<feComposite in2="hardAlpha" operator="out"/>
<feColorMatrix type="matrix" values="0 0 0 0 0 0 0 0 0 0 0 0 0 0 0 0 0 0 0.25 0"/>
<feBlend mode="normal" in2="BackgroundImageFix" result="effect1_dropShadow_8435_44896"/>
<feBlend mode="normal" in="SourceGraphic" in2="effect1_dropShadow_8435_44896" result="shape"/>
<feColorMatrix in="SourceAlpha" type="matrix" values="0 0 0 0 0 0 0 0 0 0 0 0 0 0 0 0 0 0 127 0" result="hardAlpha"/>
<feOffset/>
<feGaussianBlur stdDeviation="2.34809"/>
<feComposite in2="hardAlpha" operator="arithmetic" k2="-1" k3="1"/>
<feColorMatrix type="matrix" values="0 0 0 0 0.0799999 0 0 0 0 0 0 0 0 0 1 0 0 0 0.2 0"/>
<feBlend mode="normal" in2="shape" result="effect2_innerShadow_8435_44896"/>
</filter>
<filter id="filter1_di_8435_44896" x="-2.689" y="23.5857" width="53.0307" height="56.544" filterUnits="userSpaceOnUse" color-interpolation-filters="sRGB">
<feFlood flood-opacity="0" result="BackgroundImageFix"/>
<feColorMatrix in="SourceAlpha" type="matrix" values="0 0 0 0 0 0 0 0 0 0 0 0 0 0 0 0 0 0 127 0" result="hardAlpha"/>
<feOffset/>
<feGaussianBlur stdDeviation="3.38124"/>
<feComposite in2="hardAlpha" operator="out"/>
<feColorMatrix type="matrix" values="0 0 0 0 0.0799999 0 0 0 0 0 0 0 0 0 1 0 0 0 0.2 0"/>
<feBlend mode="normal" in2="BackgroundImageFix" result="effect1_dropShadow_8435_44896"/>
<feBlend mode="normal" in="SourceGraphic" in2="effect1_dropShadow_8435_44896" result="shape"/>
<feColorMatrix in="SourceAlpha" type="matrix" values="0 0 0 0 0 0 0 0 0 0 0 0 0 0 0 0 0 0 127 0" result="hardAlpha"/>
<feOffset/>
<feGaussianBlur stdDeviation="3.1934"/>
<feComposite in2="hardAlpha" operator="arithmetic" k2="-1" k3="1"/>
<feColorMatrix type="matrix" values="0 0 0 0 0 0 0 0 0 0 0 0 0 0 0 0 0 0 0.25 0"/>
<feBlend mode="normal" in2="shape" result="effect2_innerShadow_8435_44896"/>
</filter>
<linearGradient id="paint0_linear_8435_44896" x1="26.7644" y1="19.8325" x2="12.2113" y2="26.724" gradientUnits="userSpaceOnUse">
<stop stop-color="#FFD600"/>
<stop offset="1" stop-color="#D9B600"/>
</linearGradient>
<radialGradient id="paint1_radial_8435_44896" cx="0" cy="0" r="1" gradientUnits="userSpaceOnUse" gradientTransform="translate(18.4729 6.95813) rotate(-51.2284) scale(6.69621 6.71111)">
<stop stop-color="#FCE586"/>
<stop offset="0.23" stop-color="#FCDB7B"/>
<stop offset="0.62" stop-color="#FCCF6F"/>
<stop offset="1" stop-color="#FCCC6B"/>
</radialGradient>
<radialGradient id="paint2_radial_8435_44896" cx="0" cy="0" r="1" gradientUnits="userSpaceOnUse" gradientTransform="translate(25.2242 8.14365) rotate(-51.2284) scale(15.9267 15.9621)">
<stop stop-color="#FCE586"/>
<stop offset="0.23" stop-color="#FCDB7B"/>
<stop offset="0.62" stop-color="#FCCF6F"/>
<stop offset="1" stop-color="#FCCC6B"/>
</radialGradient>
<radialGradient id="paint3_radial_8435_44896" cx="0" cy="0" r="1" gradientUnits="userSpaceOnUse" gradientTransform="translate(18.7009 34.2988) rotate(-16.9087) scale(6.73172 6.6757)">
<stop stop-color="#FCE586"/>
<stop offset="0.23" stop-color="#FCDB7B"/>
<stop offset="0.62" stop-color="#FCCF6F"/>
<stop offset="1" stop-color="#FCCC6B"/>
</radialGradient>
<radialGradient id="paint4_radial_8435_44896" cx="0" cy="0" r="1" gradientUnits="userSpaceOnUse" gradientTransform="translate(23.5952 39.0571) rotate(-16.9087) scale(16.0111 15.8779)">
<stop stop-color="#FCE586"/>
<stop offset="0.23" stop-color="#FCDB7B"/>
<stop offset="0.62" stop-color="#FCCF6F"/>
<stop offset="1" stop-color="#FCCC6B"/>
</radialGradient>
<radialGradient id="paint5_radial_8435_44896" cx="0" cy="0" r="1" gradientUnits="userSpaceOnUse" gradientTransform="translate(19.5113 33.1561) rotate(-16.9086) scale(6.73172 6.6757)">
<stop stop-color="#FCE586"/>
<stop offset="0.23" stop-color="#FCDB7B"/>
<stop offset="0.62" stop-color="#FCCF6F"/>
<stop offset="1" stop-color="#FCCC6B"/>
</radialGradient>
<radialGradient id="paint6_radial_8435_44896" cx="0" cy="0" r="1" gradientUnits="userSpaceOnUse" gradientTransform="translate(24.4063 37.914) rotate(-16.9086) scale(16.0112 15.8779)">
<stop stop-color="#FCE586"/>
<stop offset="0.23" stop-color="#FCDB7B"/>
<stop offset="0.62" stop-color="#FCCF6F"/>
<stop offset="1" stop-color="#FCCC6B"/>
</radialGradient>
<radialGradient id="paint7_radial_8435_44896" cx="0" cy="0" r="1" gradientUnits="userSpaceOnUse" gradientTransform="translate(25.7361 38.8475) rotate(-16.9087) scale(6.73172 6.6757)">
<stop stop-color="#FCE586"/>
<stop offset="0.23" stop-color="#FCDB7B"/>
<stop offset="0.62" stop-color="#FCCF6F"/>
<stop offset="1" stop-color="#FCCC6B"/>
</radialGradient>
<radialGradient id="paint8_radial_8435_44896" cx="0" cy="0" r="1" gradientUnits="userSpaceOnUse" gradientTransform="translate(30.6313 43.6025) rotate(-16.9087) scale(16.0112 15.8779)">
<stop stop-color="#FCE586"/>
<stop offset="0.23" stop-color="#FCDB7B"/>
<stop offset="0.62" stop-color="#FCCF6F"/>
<stop offset="1" stop-color="#FCCC6B"/>
</radialGradient>
<radialGradient id="paint9_radial_8435_44896" cx="0" cy="0" r="1" gradientUnits="userSpaceOnUse" gradientTransform="translate(16.3044 40.4691) rotate(-16.9086) scale(6.73172 6.6757)">
<stop stop-color="#FCE586"/>
<stop offset="0.23" stop-color="#FCDB7B"/>
<stop offset="0.62" stop-color="#FCCF6F"/>
<stop offset="1" stop-color="#FCCC6B"/>
</radialGradient>
<radialGradient id="paint10_radial_8435_44896" cx="0" cy="0" r="1" gradientUnits="userSpaceOnUse" gradientTransform="translate(21.1966 45.2254) rotate(-16.9087) scale(16.0112 15.8779)">
<stop stop-color="#FCE586"/>
<stop offset="0.23" stop-color="#FCDB7B"/>
<stop offset="0.62" stop-color="#FCCF6F"/>
<stop offset="1" stop-color="#FCCC6B"/>
</radialGradient>
<radialGradient id="paint11_radial_8435_44896" cx="0" cy="0" r="1" gradientUnits="userSpaceOnUse" gradientTransform="translate(20.7575 38.7484) rotate(-16.9087) scale(6.73172 6.6757)">
<stop stop-color="#FCE586"/>
<stop offset="0.23" stop-color="#FCDB7B"/>
<stop offset="0.62" stop-color="#FCCF6F"/>
<stop offset="1" stop-color="#FCCC6B"/>
</radialGradient>
<radialGradient id="paint12_radial_8435_44896" cx="0" cy="0" r="1" gradientUnits="userSpaceOnUse" gradientTransform="translate(25.6608 43.5072) rotate(-16.9087) scale(16.0112 15.8779)">
<stop stop-color="#FCE586"/>
<stop offset="0.23" stop-color="#FCDB7B"/>
<stop offset="0.62" stop-color="#FCCF6F"/>
<stop offset="1" stop-color="#FCCC6B"/>
</radialGradient>
<radialGradient id="paint13_radial_8435_44896" cx="0" cy="0" r="1" gradientUnits="userSpaceOnUse" gradientTransform="translate(21.9784 37.811) rotate(-16.9086) scale(6.73172 6.6757)">
<stop stop-color="#FCE586"/>
<stop offset="0.23" stop-color="#FCDB7B"/>
<stop offset="0.62" stop-color="#FCCF6F"/>
<stop offset="1" stop-color="#FCCC6B"/>
</radialGradient>
<radialGradient id="paint14_radial_8435_44896" cx="0" cy="0" r="1" gradientUnits="userSpaceOnUse" gradientTransform="translate(26.882 42.5729) rotate(-16.9086) scale(16.0111 15.8779)">
<stop stop-color="#FCE586"/>
<stop offset="0.23" stop-color="#FCDB7B"/>
<stop offset="0.62" stop-color="#FCCF6F"/>
<stop offset="1" stop-color="#FCCC6B"/>
</radialGradient>
<radialGradient id="paint15_radial_8435_44896" cx="0" cy="0" r="1" gradientUnits="userSpaceOnUse" gradientTransform="translate(22.6353 36.0216) rotate(-16.9086) scale(6.73172 6.6757)">
<stop stop-color="#FCE586"/>
<stop offset="0.23" stop-color="#FCDB7B"/>
<stop offset="0.62" stop-color="#FCCF6F"/>
<stop offset="1" stop-color="#FCCC6B"/>
</radialGradient>
<radialGradient id="paint16_radial_8435_44896" cx="0" cy="0" r="1" gradientUnits="userSpaceOnUse" gradientTransform="translate(27.5282 40.7796) rotate(-16.9087) scale(16.0112 15.8779)">
<stop stop-color="#FCE586"/>
<stop offset="0.23" stop-color="#FCDB7B"/>
<stop offset="0.62" stop-color="#FCCF6F"/>
<stop offset="1" stop-color="#FCCC6B"/>
</radialGradient>
<radialGradient id="paint17_radial_8435_44896" cx="0" cy="0" r="1" gradientUnits="userSpaceOnUse" gradientTransform="translate(26.3615 35.2942) rotate(-5.20755) scale(6.73695 6.67052)">
<stop stop-color="#FCE586"/>
<stop offset="0.23" stop-color="#FCDB7B"/>
<stop offset="0.62" stop-color="#FCCF6F"/>
<stop offset="1" stop-color="#FCCC6B"/>
</radialGradient>
<radialGradient id="paint18_radial_8435_44896" cx="0" cy="0" r="1" gradientUnits="userSpaceOnUse" gradientTransform="translate(30.1668 40.9413) rotate(-5.20755) scale(16.0236 15.8656)">
<stop stop-color="#FCE586"/>
<stop offset="0.23" stop-color="#FCDB7B"/>
<stop offset="0.62" stop-color="#FCCF6F"/>
<stop offset="1" stop-color="#FCCC6B"/>
</radialGradient>
<radialGradient id="paint19_radial_8435_44896" cx="0" cy="0" r="1" gradientUnits="userSpaceOnUse" gradientTransform="translate(20.4244 13.6814) rotate(12.2993) scale(6.73441 6.67304)">
<stop stop-color="#FCE586"/>
<stop offset="0.23" stop-color="#FCDB7B"/>
<stop offset="0.62" stop-color="#FCCF6F"/>
<stop offset="1" stop-color="#FCCC6B"/>
</radialGradient>
<radialGradient id="paint20_radial_8435_44896" cx="0" cy="0" r="1" gradientUnits="userSpaceOnUse" gradientTransform="translate(22.3278 20.2097) rotate(12.2993) scale(16.0175 15.8716)">
<stop stop-color="#FCE586"/>
<stop offset="0.23" stop-color="#FCDB7B"/>
<stop offset="0.62" stop-color="#FCCF6F"/>
<stop offset="1" stop-color="#FCCC6B"/>
</radialGradient>
<radialGradient id="paint21_radial_8435_44896" cx="0" cy="0" r="1" gradientUnits="userSpaceOnUse" gradientTransform="translate(17.9792 29.1444) rotate(-46.3217) scale(6.6996 6.70306)">
<stop stop-color="#FCE586"/>
<stop offset="0.23" stop-color="#FCDB7B"/>
<stop offset="0.62" stop-color="#FCCF6F"/>
<stop offset="1" stop-color="#FCCC6B"/>
</radialGradient>
<radialGradient id="paint22_radial_8435_44896" cx="0" cy="0" r="1" gradientUnits="userSpaceOnUse" gradientTransform="translate(24.6042 30.892) rotate(-46.3217) scale(15.9403 15.9485)">
<stop stop-color="#FCE586"/>
<stop offset="0.23" stop-color="#FCDB7B"/>
<stop offset="0.62" stop-color="#FCCF6F"/>
<stop offset="1" stop-color="#FCCC6B"/>
</radialGradient>
</defs>
</svg>
