<svg xmlns="http://www.w3.org/2000/svg" width="24" height="24" viewBox="0 0 24 24" fill="none">
<path d="M6 13.2231L8.45 16.7001C8.54293 16.8389 8.66768 16.9536 8.81385 17.0344C8.96002 17.1153 9.12339 17.1601 9.29037 17.1651C9.45735 17.1701 9.6231 17.1351 9.77384 17.0631C9.92458 16.9911 10.0559 16.8841 10.157 16.7511L18 6.82812" stroke="#4CAF50" stroke-width="1.5" stroke-linecap="round" stroke-linejoin="round"/>
<path d="M21.75 0.749023H2.25C1.42157 0.749023 0.75 1.4206 0.75 2.24902V21.749C0.75 22.5774 1.42157 23.249 2.25 23.249H21.75C22.5784 23.249 23.25 22.5774 23.25 21.749V2.24902C23.25 1.4206 22.5784 0.749023 21.75 0.749023Z" stroke="#4CAF50" stroke-width="1.5" stroke-linecap="round" stroke-linejoin="round"/>
</svg>