<svg xmlns="http://www.w3.org/2000/svg" width="24" height="24" viewBox="0 0 24 24" fill="none">
<g clip-path="url(#clip0)">
<path d="M8.25 23.261H2.25C1.85218 23.261 1.47064 23.103 1.18934 22.8216C0.908035 22.5403 0.75 22.1588 0.75 21.761V2.26099C0.75 1.86316 0.908035 1.48163 1.18934 1.20033C1.47064 0.919022 1.85218 0.760986 2.25 0.760986H12.879C13.2765 0.761071 13.6578 0.918968 13.939 1.19999L19.811 7.07199C20.092 7.35318 20.2499 7.73444 20.25 8.13199V8.26099" stroke="#0D2F81" stroke-width="1.5" stroke-linecap="round" stroke-linejoin="round"/>
<path d="M12.75 0.760986V6.76099C12.75 7.15881 12.908 7.54034 13.1893 7.82165C13.4706 8.10295 13.8522 8.26099 14.25 8.26099H20.25" stroke="#0D2F81" stroke-width="1.5" stroke-linecap="round" stroke-linejoin="round"/>
<path d="M8.169 9.61899L6.037 12.461C5.9725 12.5469 5.89031 12.6179 5.79598 12.6693C5.70165 12.7206 5.59739 12.7512 5.49025 12.7587C5.38311 12.7663 5.27559 12.7508 5.17496 12.7132C5.07434 12.6757 4.98296 12.6169 4.907 12.541L3.75 11.385" stroke="#0D2F81" stroke-width="1.5" stroke-linecap="round" stroke-linejoin="round"/>
<path d="M8.169 16.369L6.037 19.211C5.9725 19.2969 5.89031 19.3679 5.79598 19.4193C5.70165 19.4706 5.59739 19.5012 5.49025 19.5087C5.38311 19.5163 5.27559 19.5008 5.17496 19.4632C5.07434 19.4257 4.98296 19.3669 4.907 19.291L3.75 18.134" stroke="#0D2F81" stroke-width="1.5" stroke-linecap="round" stroke-linejoin="round"/>
<path d="M11.25 12.761H15" stroke="#0D2F81" stroke-width="1.5" stroke-linecap="round" stroke-linejoin="round"/>
<path d="M22.631 14.88L15 22.511L11.25 23.261L12 19.511L19.631 11.88C20.0276 11.4834 20.5656 11.2606 21.1265 11.2606C21.6874 11.2606 22.2254 11.4834 22.622 11.88L22.631 11.889C23.0276 12.2856 23.2504 12.8236 23.2504 13.3845C23.2504 13.9454 23.0276 14.4834 22.631 14.88V14.88Z" stroke="#0D2F81" stroke-width="1.5" stroke-linecap="round" stroke-linejoin="round"/>
</g>
<defs>
<clipPath id="clip0">
<rect width="24" height="24" fill="white"/>
</clipPath>
</defs>
</svg>