<svg xmlns="http://www.w3.org/2000/svg" width="24" height="24" viewBox="0 0 24 24" fill="none">
<path d="M17.25 23.25C20.5637 23.25 23.25 20.5637 23.25 17.25C23.25 13.9363 20.5637 11.25 17.25 11.25C13.9363 11.25 11.25 13.9363 11.25 17.25C11.25 20.5637 13.9363 23.25 17.25 23.25Z" stroke="#0D2F81" stroke-opacity="0.3" stroke-width="1.5" stroke-linecap="round" stroke-linejoin="round"/>
<path d="M19.9242 15.5049L17.0192 19.3789C16.9546 19.4648 16.8723 19.5358 16.7779 19.5872C16.6835 19.6386 16.5791 19.6691 16.4719 19.6767C16.3647 19.6843 16.2571 19.6687 16.1564 19.6312C16.0557 19.5936 15.9642 19.5348 15.8882 19.4589L14.3882 17.9589" stroke="#0D2F81" stroke-opacity="0.3" stroke-width="1.5" stroke-linecap="round" stroke-linejoin="round"/>
<path d="M8.25 18.75H2.25C1.85218 18.75 1.47064 18.592 1.18934 18.3107C0.908035 18.0294 0.75 17.6478 0.75 17.25V6.75C0.75 6.35218 0.908035 5.97064 1.18934 5.68934C1.47064 5.40804 1.85218 5.25 2.25 5.25H17.25C17.6478 5.25 18.0294 5.40804 18.3107 5.68934C18.592 5.97064 18.75 6.35218 18.75 6.75V8.25" stroke="#0D2F81" stroke-opacity="0.3" stroke-width="1.5" stroke-linecap="round" stroke-linejoin="round"/>
<path d="M18.2659 5.647L15.4449 1.418C15.3082 1.21295 15.1231 1.04474 14.906 0.928235C14.6888 0.811727 14.4463 0.750511 14.1999 0.75H5.29989C5.05295 0.750018 4.80984 0.810998 4.59213 0.927528C4.37443 1.04406 4.18885 1.21253 4.05189 1.418L1.23389 5.647" stroke="#0D2F81" stroke-opacity="0.3" stroke-width="1.5" stroke-linecap="round" stroke-linejoin="round"/>
<path d="M9.75 0.75V5.25" stroke="#0D2F81" stroke-opacity="0.3" stroke-width="1.5" stroke-linecap="round" stroke-linejoin="round"/>
</svg>